G75*
%MOIN*%
%OFA0B0*%
%FSLAX25Y25*%
%IPPOS*%
%LPD*%
%AMOC8*
5,1,8,0,0,1.08239X$1,22.5*
%
%ADD10C,0.00000*%
D10*
X0034765Y0024528D02*
X0034765Y0241064D01*
X0172560Y0241064D01*
X0172560Y0024528D01*
X0034765Y0024528D01*
X0069174Y0092056D02*
X0069176Y0092209D01*
X0069182Y0092363D01*
X0069192Y0092516D01*
X0069206Y0092668D01*
X0069224Y0092821D01*
X0069246Y0092972D01*
X0069271Y0093123D01*
X0069301Y0093274D01*
X0069335Y0093424D01*
X0069372Y0093572D01*
X0069413Y0093720D01*
X0069458Y0093866D01*
X0069507Y0094012D01*
X0069560Y0094156D01*
X0069616Y0094298D01*
X0069676Y0094439D01*
X0069740Y0094579D01*
X0069807Y0094717D01*
X0069878Y0094853D01*
X0069953Y0094987D01*
X0070030Y0095119D01*
X0070112Y0095249D01*
X0070196Y0095377D01*
X0070284Y0095503D01*
X0070375Y0095626D01*
X0070469Y0095747D01*
X0070567Y0095865D01*
X0070667Y0095981D01*
X0070771Y0096094D01*
X0070877Y0096205D01*
X0070986Y0096313D01*
X0071098Y0096418D01*
X0071212Y0096519D01*
X0071330Y0096618D01*
X0071449Y0096714D01*
X0071571Y0096807D01*
X0071696Y0096896D01*
X0071823Y0096983D01*
X0071952Y0097065D01*
X0072083Y0097145D01*
X0072216Y0097221D01*
X0072351Y0097294D01*
X0072488Y0097363D01*
X0072627Y0097428D01*
X0072767Y0097490D01*
X0072909Y0097548D01*
X0073052Y0097603D01*
X0073197Y0097654D01*
X0073343Y0097701D01*
X0073490Y0097744D01*
X0073638Y0097783D01*
X0073787Y0097819D01*
X0073937Y0097850D01*
X0074088Y0097878D01*
X0074239Y0097902D01*
X0074392Y0097922D01*
X0074544Y0097938D01*
X0074697Y0097950D01*
X0074850Y0097958D01*
X0075003Y0097962D01*
X0075157Y0097962D01*
X0075310Y0097958D01*
X0075463Y0097950D01*
X0075616Y0097938D01*
X0075768Y0097922D01*
X0075921Y0097902D01*
X0076072Y0097878D01*
X0076223Y0097850D01*
X0076373Y0097819D01*
X0076522Y0097783D01*
X0076670Y0097744D01*
X0076817Y0097701D01*
X0076963Y0097654D01*
X0077108Y0097603D01*
X0077251Y0097548D01*
X0077393Y0097490D01*
X0077533Y0097428D01*
X0077672Y0097363D01*
X0077809Y0097294D01*
X0077944Y0097221D01*
X0078077Y0097145D01*
X0078208Y0097065D01*
X0078337Y0096983D01*
X0078464Y0096896D01*
X0078589Y0096807D01*
X0078711Y0096714D01*
X0078830Y0096618D01*
X0078948Y0096519D01*
X0079062Y0096418D01*
X0079174Y0096313D01*
X0079283Y0096205D01*
X0079389Y0096094D01*
X0079493Y0095981D01*
X0079593Y0095865D01*
X0079691Y0095747D01*
X0079785Y0095626D01*
X0079876Y0095503D01*
X0079964Y0095377D01*
X0080048Y0095249D01*
X0080130Y0095119D01*
X0080207Y0094987D01*
X0080282Y0094853D01*
X0080353Y0094717D01*
X0080420Y0094579D01*
X0080484Y0094439D01*
X0080544Y0094298D01*
X0080600Y0094156D01*
X0080653Y0094012D01*
X0080702Y0093866D01*
X0080747Y0093720D01*
X0080788Y0093572D01*
X0080825Y0093424D01*
X0080859Y0093274D01*
X0080889Y0093123D01*
X0080914Y0092972D01*
X0080936Y0092821D01*
X0080954Y0092668D01*
X0080968Y0092516D01*
X0080978Y0092363D01*
X0080984Y0092209D01*
X0080986Y0092056D01*
X0080984Y0091903D01*
X0080978Y0091749D01*
X0080968Y0091596D01*
X0080954Y0091444D01*
X0080936Y0091291D01*
X0080914Y0091140D01*
X0080889Y0090989D01*
X0080859Y0090838D01*
X0080825Y0090688D01*
X0080788Y0090540D01*
X0080747Y0090392D01*
X0080702Y0090246D01*
X0080653Y0090100D01*
X0080600Y0089956D01*
X0080544Y0089814D01*
X0080484Y0089673D01*
X0080420Y0089533D01*
X0080353Y0089395D01*
X0080282Y0089259D01*
X0080207Y0089125D01*
X0080130Y0088993D01*
X0080048Y0088863D01*
X0079964Y0088735D01*
X0079876Y0088609D01*
X0079785Y0088486D01*
X0079691Y0088365D01*
X0079593Y0088247D01*
X0079493Y0088131D01*
X0079389Y0088018D01*
X0079283Y0087907D01*
X0079174Y0087799D01*
X0079062Y0087694D01*
X0078948Y0087593D01*
X0078830Y0087494D01*
X0078711Y0087398D01*
X0078589Y0087305D01*
X0078464Y0087216D01*
X0078337Y0087129D01*
X0078208Y0087047D01*
X0078077Y0086967D01*
X0077944Y0086891D01*
X0077809Y0086818D01*
X0077672Y0086749D01*
X0077533Y0086684D01*
X0077393Y0086622D01*
X0077251Y0086564D01*
X0077108Y0086509D01*
X0076963Y0086458D01*
X0076817Y0086411D01*
X0076670Y0086368D01*
X0076522Y0086329D01*
X0076373Y0086293D01*
X0076223Y0086262D01*
X0076072Y0086234D01*
X0075921Y0086210D01*
X0075768Y0086190D01*
X0075616Y0086174D01*
X0075463Y0086162D01*
X0075310Y0086154D01*
X0075157Y0086150D01*
X0075003Y0086150D01*
X0074850Y0086154D01*
X0074697Y0086162D01*
X0074544Y0086174D01*
X0074392Y0086190D01*
X0074239Y0086210D01*
X0074088Y0086234D01*
X0073937Y0086262D01*
X0073787Y0086293D01*
X0073638Y0086329D01*
X0073490Y0086368D01*
X0073343Y0086411D01*
X0073197Y0086458D01*
X0073052Y0086509D01*
X0072909Y0086564D01*
X0072767Y0086622D01*
X0072627Y0086684D01*
X0072488Y0086749D01*
X0072351Y0086818D01*
X0072216Y0086891D01*
X0072083Y0086967D01*
X0071952Y0087047D01*
X0071823Y0087129D01*
X0071696Y0087216D01*
X0071571Y0087305D01*
X0071449Y0087398D01*
X0071330Y0087494D01*
X0071212Y0087593D01*
X0071098Y0087694D01*
X0070986Y0087799D01*
X0070877Y0087907D01*
X0070771Y0088018D01*
X0070667Y0088131D01*
X0070567Y0088247D01*
X0070469Y0088365D01*
X0070375Y0088486D01*
X0070284Y0088609D01*
X0070196Y0088735D01*
X0070112Y0088863D01*
X0070030Y0088993D01*
X0069953Y0089125D01*
X0069878Y0089259D01*
X0069807Y0089395D01*
X0069740Y0089533D01*
X0069676Y0089673D01*
X0069616Y0089814D01*
X0069560Y0089956D01*
X0069507Y0090100D01*
X0069458Y0090246D01*
X0069413Y0090392D01*
X0069372Y0090540D01*
X0069335Y0090688D01*
X0069301Y0090838D01*
X0069271Y0090989D01*
X0069246Y0091140D01*
X0069224Y0091291D01*
X0069206Y0091444D01*
X0069192Y0091596D01*
X0069182Y0091749D01*
X0069176Y0091903D01*
X0069174Y0092056D01*
X0129174Y0209056D02*
X0129176Y0209209D01*
X0129182Y0209363D01*
X0129192Y0209516D01*
X0129206Y0209668D01*
X0129224Y0209821D01*
X0129246Y0209972D01*
X0129271Y0210123D01*
X0129301Y0210274D01*
X0129335Y0210424D01*
X0129372Y0210572D01*
X0129413Y0210720D01*
X0129458Y0210866D01*
X0129507Y0211012D01*
X0129560Y0211156D01*
X0129616Y0211298D01*
X0129676Y0211439D01*
X0129740Y0211579D01*
X0129807Y0211717D01*
X0129878Y0211853D01*
X0129953Y0211987D01*
X0130030Y0212119D01*
X0130112Y0212249D01*
X0130196Y0212377D01*
X0130284Y0212503D01*
X0130375Y0212626D01*
X0130469Y0212747D01*
X0130567Y0212865D01*
X0130667Y0212981D01*
X0130771Y0213094D01*
X0130877Y0213205D01*
X0130986Y0213313D01*
X0131098Y0213418D01*
X0131212Y0213519D01*
X0131330Y0213618D01*
X0131449Y0213714D01*
X0131571Y0213807D01*
X0131696Y0213896D01*
X0131823Y0213983D01*
X0131952Y0214065D01*
X0132083Y0214145D01*
X0132216Y0214221D01*
X0132351Y0214294D01*
X0132488Y0214363D01*
X0132627Y0214428D01*
X0132767Y0214490D01*
X0132909Y0214548D01*
X0133052Y0214603D01*
X0133197Y0214654D01*
X0133343Y0214701D01*
X0133490Y0214744D01*
X0133638Y0214783D01*
X0133787Y0214819D01*
X0133937Y0214850D01*
X0134088Y0214878D01*
X0134239Y0214902D01*
X0134392Y0214922D01*
X0134544Y0214938D01*
X0134697Y0214950D01*
X0134850Y0214958D01*
X0135003Y0214962D01*
X0135157Y0214962D01*
X0135310Y0214958D01*
X0135463Y0214950D01*
X0135616Y0214938D01*
X0135768Y0214922D01*
X0135921Y0214902D01*
X0136072Y0214878D01*
X0136223Y0214850D01*
X0136373Y0214819D01*
X0136522Y0214783D01*
X0136670Y0214744D01*
X0136817Y0214701D01*
X0136963Y0214654D01*
X0137108Y0214603D01*
X0137251Y0214548D01*
X0137393Y0214490D01*
X0137533Y0214428D01*
X0137672Y0214363D01*
X0137809Y0214294D01*
X0137944Y0214221D01*
X0138077Y0214145D01*
X0138208Y0214065D01*
X0138337Y0213983D01*
X0138464Y0213896D01*
X0138589Y0213807D01*
X0138711Y0213714D01*
X0138830Y0213618D01*
X0138948Y0213519D01*
X0139062Y0213418D01*
X0139174Y0213313D01*
X0139283Y0213205D01*
X0139389Y0213094D01*
X0139493Y0212981D01*
X0139593Y0212865D01*
X0139691Y0212747D01*
X0139785Y0212626D01*
X0139876Y0212503D01*
X0139964Y0212377D01*
X0140048Y0212249D01*
X0140130Y0212119D01*
X0140207Y0211987D01*
X0140282Y0211853D01*
X0140353Y0211717D01*
X0140420Y0211579D01*
X0140484Y0211439D01*
X0140544Y0211298D01*
X0140600Y0211156D01*
X0140653Y0211012D01*
X0140702Y0210866D01*
X0140747Y0210720D01*
X0140788Y0210572D01*
X0140825Y0210424D01*
X0140859Y0210274D01*
X0140889Y0210123D01*
X0140914Y0209972D01*
X0140936Y0209821D01*
X0140954Y0209668D01*
X0140968Y0209516D01*
X0140978Y0209363D01*
X0140984Y0209209D01*
X0140986Y0209056D01*
X0140984Y0208903D01*
X0140978Y0208749D01*
X0140968Y0208596D01*
X0140954Y0208444D01*
X0140936Y0208291D01*
X0140914Y0208140D01*
X0140889Y0207989D01*
X0140859Y0207838D01*
X0140825Y0207688D01*
X0140788Y0207540D01*
X0140747Y0207392D01*
X0140702Y0207246D01*
X0140653Y0207100D01*
X0140600Y0206956D01*
X0140544Y0206814D01*
X0140484Y0206673D01*
X0140420Y0206533D01*
X0140353Y0206395D01*
X0140282Y0206259D01*
X0140207Y0206125D01*
X0140130Y0205993D01*
X0140048Y0205863D01*
X0139964Y0205735D01*
X0139876Y0205609D01*
X0139785Y0205486D01*
X0139691Y0205365D01*
X0139593Y0205247D01*
X0139493Y0205131D01*
X0139389Y0205018D01*
X0139283Y0204907D01*
X0139174Y0204799D01*
X0139062Y0204694D01*
X0138948Y0204593D01*
X0138830Y0204494D01*
X0138711Y0204398D01*
X0138589Y0204305D01*
X0138464Y0204216D01*
X0138337Y0204129D01*
X0138208Y0204047D01*
X0138077Y0203967D01*
X0137944Y0203891D01*
X0137809Y0203818D01*
X0137672Y0203749D01*
X0137533Y0203684D01*
X0137393Y0203622D01*
X0137251Y0203564D01*
X0137108Y0203509D01*
X0136963Y0203458D01*
X0136817Y0203411D01*
X0136670Y0203368D01*
X0136522Y0203329D01*
X0136373Y0203293D01*
X0136223Y0203262D01*
X0136072Y0203234D01*
X0135921Y0203210D01*
X0135768Y0203190D01*
X0135616Y0203174D01*
X0135463Y0203162D01*
X0135310Y0203154D01*
X0135157Y0203150D01*
X0135003Y0203150D01*
X0134850Y0203154D01*
X0134697Y0203162D01*
X0134544Y0203174D01*
X0134392Y0203190D01*
X0134239Y0203210D01*
X0134088Y0203234D01*
X0133937Y0203262D01*
X0133787Y0203293D01*
X0133638Y0203329D01*
X0133490Y0203368D01*
X0133343Y0203411D01*
X0133197Y0203458D01*
X0133052Y0203509D01*
X0132909Y0203564D01*
X0132767Y0203622D01*
X0132627Y0203684D01*
X0132488Y0203749D01*
X0132351Y0203818D01*
X0132216Y0203891D01*
X0132083Y0203967D01*
X0131952Y0204047D01*
X0131823Y0204129D01*
X0131696Y0204216D01*
X0131571Y0204305D01*
X0131449Y0204398D01*
X0131330Y0204494D01*
X0131212Y0204593D01*
X0131098Y0204694D01*
X0130986Y0204799D01*
X0130877Y0204907D01*
X0130771Y0205018D01*
X0130667Y0205131D01*
X0130567Y0205247D01*
X0130469Y0205365D01*
X0130375Y0205486D01*
X0130284Y0205609D01*
X0130196Y0205735D01*
X0130112Y0205863D01*
X0130030Y0205993D01*
X0129953Y0206125D01*
X0129878Y0206259D01*
X0129807Y0206395D01*
X0129740Y0206533D01*
X0129676Y0206673D01*
X0129616Y0206814D01*
X0129560Y0206956D01*
X0129507Y0207100D01*
X0129458Y0207246D01*
X0129413Y0207392D01*
X0129372Y0207540D01*
X0129335Y0207688D01*
X0129301Y0207838D01*
X0129271Y0207989D01*
X0129246Y0208140D01*
X0129224Y0208291D01*
X0129206Y0208444D01*
X0129192Y0208596D01*
X0129182Y0208749D01*
X0129176Y0208903D01*
X0129174Y0209056D01*
M02*
