G75*
%MOIN*%
%OFA0B0*%
%FSLAX25Y25*%
%IPPOS*%
%LPD*%
%AMOC8*
5,1,8,0,0,1.08239X$1,22.5*
%
%ADD10C,0.00787*%
%ADD11C,0.00500*%
%ADD12C,0.00400*%
%ADD13C,0.00600*%
%ADD14C,0.00800*%
%ADD15C,0.01000*%
D10*
X0036497Y0034922D02*
X0036499Y0034961D01*
X0036505Y0035000D01*
X0036515Y0035038D01*
X0036528Y0035075D01*
X0036545Y0035110D01*
X0036565Y0035144D01*
X0036589Y0035175D01*
X0036616Y0035204D01*
X0036645Y0035230D01*
X0036677Y0035253D01*
X0036711Y0035273D01*
X0036747Y0035289D01*
X0036784Y0035301D01*
X0036823Y0035310D01*
X0036862Y0035315D01*
X0036901Y0035316D01*
X0036940Y0035313D01*
X0036979Y0035306D01*
X0037016Y0035295D01*
X0037053Y0035281D01*
X0037088Y0035263D01*
X0037121Y0035242D01*
X0037152Y0035217D01*
X0037180Y0035190D01*
X0037205Y0035160D01*
X0037227Y0035127D01*
X0037246Y0035093D01*
X0037261Y0035057D01*
X0037273Y0035019D01*
X0037281Y0034981D01*
X0037285Y0034942D01*
X0037285Y0034902D01*
X0037281Y0034863D01*
X0037273Y0034825D01*
X0037261Y0034787D01*
X0037246Y0034751D01*
X0037227Y0034717D01*
X0037205Y0034684D01*
X0037180Y0034654D01*
X0037152Y0034627D01*
X0037121Y0034602D01*
X0037088Y0034581D01*
X0037053Y0034563D01*
X0037016Y0034549D01*
X0036979Y0034538D01*
X0036940Y0034531D01*
X0036901Y0034528D01*
X0036862Y0034529D01*
X0036823Y0034534D01*
X0036784Y0034543D01*
X0036747Y0034555D01*
X0036711Y0034571D01*
X0036677Y0034591D01*
X0036645Y0034614D01*
X0036616Y0034640D01*
X0036589Y0034669D01*
X0036565Y0034700D01*
X0036545Y0034734D01*
X0036528Y0034769D01*
X0036515Y0034806D01*
X0036505Y0034844D01*
X0036499Y0034883D01*
X0036497Y0034922D01*
X0096063Y0034922D02*
X0096065Y0034961D01*
X0096071Y0035000D01*
X0096081Y0035038D01*
X0096094Y0035075D01*
X0096111Y0035110D01*
X0096131Y0035144D01*
X0096155Y0035175D01*
X0096182Y0035204D01*
X0096211Y0035230D01*
X0096243Y0035253D01*
X0096277Y0035273D01*
X0096313Y0035289D01*
X0096350Y0035301D01*
X0096389Y0035310D01*
X0096428Y0035315D01*
X0096467Y0035316D01*
X0096506Y0035313D01*
X0096545Y0035306D01*
X0096582Y0035295D01*
X0096619Y0035281D01*
X0096654Y0035263D01*
X0096687Y0035242D01*
X0096718Y0035217D01*
X0096746Y0035190D01*
X0096771Y0035160D01*
X0096793Y0035127D01*
X0096812Y0035093D01*
X0096827Y0035057D01*
X0096839Y0035019D01*
X0096847Y0034981D01*
X0096851Y0034942D01*
X0096851Y0034902D01*
X0096847Y0034863D01*
X0096839Y0034825D01*
X0096827Y0034787D01*
X0096812Y0034751D01*
X0096793Y0034717D01*
X0096771Y0034684D01*
X0096746Y0034654D01*
X0096718Y0034627D01*
X0096687Y0034602D01*
X0096654Y0034581D01*
X0096619Y0034563D01*
X0096582Y0034549D01*
X0096545Y0034538D01*
X0096506Y0034531D01*
X0096467Y0034528D01*
X0096428Y0034529D01*
X0096389Y0034534D01*
X0096350Y0034543D01*
X0096313Y0034555D01*
X0096277Y0034571D01*
X0096243Y0034591D01*
X0096211Y0034614D01*
X0096182Y0034640D01*
X0096155Y0034669D01*
X0096131Y0034700D01*
X0096111Y0034734D01*
X0096094Y0034769D01*
X0096081Y0034806D01*
X0096071Y0034844D01*
X0096065Y0034883D01*
X0096063Y0034922D01*
D11*
X0098623Y0027048D02*
X0144292Y0027048D01*
X0144292Y0060513D01*
X0098623Y0060513D01*
X0098623Y0027048D01*
X0084725Y0027048D02*
X0084725Y0060513D01*
X0039056Y0060513D01*
X0039056Y0027048D01*
X0084725Y0027048D01*
X0064080Y0064056D02*
X0146080Y0064056D01*
X0146080Y0234056D01*
X0064080Y0234056D01*
X0064080Y0064056D01*
D12*
X0064993Y0065258D02*
X0064991Y0065188D01*
X0064985Y0065117D01*
X0064976Y0065048D01*
X0064962Y0064979D01*
X0064945Y0064910D01*
X0064924Y0064843D01*
X0064899Y0064777D01*
X0064871Y0064713D01*
X0064839Y0064650D01*
X0064804Y0064589D01*
X0064765Y0064530D01*
X0064724Y0064473D01*
X0064679Y0064419D01*
X0064631Y0064367D01*
X0064581Y0064318D01*
X0064527Y0064271D01*
X0064472Y0064228D01*
X0064414Y0064188D01*
X0064354Y0064151D01*
X0064292Y0064118D01*
X0064228Y0064088D01*
X0064163Y0064061D01*
X0064097Y0064038D01*
X0064029Y0064019D01*
X0063960Y0064004D01*
X0063891Y0063992D01*
X0063821Y0063984D01*
X0063750Y0063980D01*
X0063680Y0063980D01*
X0063609Y0063984D01*
X0063539Y0063992D01*
X0063470Y0064004D01*
X0063401Y0064019D01*
X0063333Y0064038D01*
X0063267Y0064061D01*
X0063202Y0064088D01*
X0063138Y0064118D01*
X0063076Y0064151D01*
X0063016Y0064188D01*
X0062958Y0064228D01*
X0062903Y0064271D01*
X0062849Y0064318D01*
X0062799Y0064367D01*
X0062751Y0064419D01*
X0062706Y0064473D01*
X0062665Y0064530D01*
X0062626Y0064589D01*
X0062591Y0064650D01*
X0062559Y0064713D01*
X0062531Y0064777D01*
X0062506Y0064843D01*
X0062485Y0064910D01*
X0062468Y0064979D01*
X0062454Y0065048D01*
X0062445Y0065117D01*
X0062439Y0065188D01*
X0062437Y0065258D01*
X0062437Y0067303D01*
X0062439Y0067373D01*
X0062445Y0067444D01*
X0062454Y0067513D01*
X0062468Y0067582D01*
X0062485Y0067651D01*
X0062506Y0067718D01*
X0062531Y0067784D01*
X0062559Y0067848D01*
X0062591Y0067911D01*
X0062626Y0067972D01*
X0062665Y0068031D01*
X0062706Y0068088D01*
X0062751Y0068142D01*
X0062799Y0068194D01*
X0062849Y0068243D01*
X0062903Y0068290D01*
X0062958Y0068333D01*
X0063016Y0068373D01*
X0063076Y0068410D01*
X0063138Y0068443D01*
X0063202Y0068473D01*
X0063267Y0068500D01*
X0063333Y0068523D01*
X0063401Y0068542D01*
X0063470Y0068557D01*
X0063539Y0068569D01*
X0063609Y0068577D01*
X0063680Y0068581D01*
X0063750Y0068581D01*
X0063821Y0068577D01*
X0063891Y0068569D01*
X0063960Y0068557D01*
X0064029Y0068542D01*
X0064097Y0068523D01*
X0064163Y0068500D01*
X0064228Y0068473D01*
X0064292Y0068443D01*
X0064354Y0068410D01*
X0064414Y0068373D01*
X0064472Y0068333D01*
X0064527Y0068290D01*
X0064581Y0068243D01*
X0064631Y0068194D01*
X0064679Y0068142D01*
X0064724Y0068088D01*
X0064765Y0068031D01*
X0064804Y0067972D01*
X0064839Y0067911D01*
X0064871Y0067848D01*
X0064899Y0067784D01*
X0064924Y0067718D01*
X0064945Y0067651D01*
X0064962Y0067582D01*
X0064976Y0067513D01*
X0064985Y0067444D01*
X0064991Y0067373D01*
X0064993Y0067303D01*
X0064993Y0065258D01*
X0067087Y0063980D02*
X0067087Y0068580D01*
X0069643Y0063980D01*
X0069643Y0068580D01*
X0071482Y0068580D02*
X0073015Y0063980D01*
X0074548Y0068580D01*
X0076396Y0068580D02*
X0078441Y0068580D01*
X0080316Y0068580D02*
X0081594Y0068580D01*
X0081594Y0068581D02*
X0081664Y0068579D01*
X0081735Y0068573D01*
X0081804Y0068564D01*
X0081873Y0068550D01*
X0081942Y0068533D01*
X0082009Y0068512D01*
X0082075Y0068487D01*
X0082139Y0068459D01*
X0082202Y0068427D01*
X0082263Y0068392D01*
X0082322Y0068353D01*
X0082379Y0068312D01*
X0082433Y0068267D01*
X0082485Y0068219D01*
X0082534Y0068169D01*
X0082581Y0068115D01*
X0082624Y0068060D01*
X0082664Y0068002D01*
X0082701Y0067942D01*
X0082734Y0067880D01*
X0082764Y0067816D01*
X0082791Y0067751D01*
X0082814Y0067685D01*
X0082833Y0067617D01*
X0082848Y0067548D01*
X0082860Y0067479D01*
X0082868Y0067409D01*
X0082872Y0067338D01*
X0082872Y0067268D01*
X0082868Y0067197D01*
X0082860Y0067127D01*
X0082848Y0067058D01*
X0082833Y0066989D01*
X0082814Y0066921D01*
X0082791Y0066855D01*
X0082764Y0066790D01*
X0082734Y0066726D01*
X0082701Y0066664D01*
X0082664Y0066604D01*
X0082624Y0066546D01*
X0082581Y0066491D01*
X0082534Y0066437D01*
X0082485Y0066387D01*
X0082433Y0066339D01*
X0082379Y0066294D01*
X0082322Y0066253D01*
X0082263Y0066214D01*
X0082202Y0066179D01*
X0082139Y0066147D01*
X0082075Y0066119D01*
X0082009Y0066094D01*
X0081942Y0066073D01*
X0081873Y0066056D01*
X0081804Y0066042D01*
X0081735Y0066033D01*
X0081664Y0066027D01*
X0081594Y0066025D01*
X0080316Y0066025D01*
X0081850Y0066025D02*
X0082872Y0063980D01*
X0080316Y0063980D02*
X0080316Y0068580D01*
X0077930Y0066536D02*
X0076396Y0066536D01*
X0076396Y0068580D02*
X0076396Y0063980D01*
X0078441Y0063980D01*
X0084487Y0068580D02*
X0087043Y0068580D01*
X0085765Y0068580D02*
X0085765Y0063980D01*
X0088846Y0063980D02*
X0088846Y0068580D01*
X0090891Y0068580D01*
X0092766Y0068580D02*
X0094044Y0068580D01*
X0094044Y0068581D02*
X0094114Y0068579D01*
X0094185Y0068573D01*
X0094254Y0068564D01*
X0094323Y0068550D01*
X0094392Y0068533D01*
X0094459Y0068512D01*
X0094525Y0068487D01*
X0094589Y0068459D01*
X0094652Y0068427D01*
X0094713Y0068392D01*
X0094772Y0068353D01*
X0094829Y0068312D01*
X0094883Y0068267D01*
X0094935Y0068219D01*
X0094984Y0068169D01*
X0095031Y0068115D01*
X0095074Y0068060D01*
X0095114Y0068002D01*
X0095151Y0067942D01*
X0095184Y0067880D01*
X0095214Y0067816D01*
X0095241Y0067751D01*
X0095264Y0067685D01*
X0095283Y0067617D01*
X0095298Y0067548D01*
X0095310Y0067479D01*
X0095318Y0067409D01*
X0095322Y0067338D01*
X0095322Y0067268D01*
X0095318Y0067197D01*
X0095310Y0067127D01*
X0095298Y0067058D01*
X0095283Y0066989D01*
X0095264Y0066921D01*
X0095241Y0066855D01*
X0095214Y0066790D01*
X0095184Y0066726D01*
X0095151Y0066664D01*
X0095114Y0066604D01*
X0095074Y0066546D01*
X0095031Y0066491D01*
X0094984Y0066437D01*
X0094935Y0066387D01*
X0094883Y0066339D01*
X0094829Y0066294D01*
X0094772Y0066253D01*
X0094713Y0066214D01*
X0094652Y0066179D01*
X0094589Y0066147D01*
X0094525Y0066119D01*
X0094459Y0066094D01*
X0094392Y0066073D01*
X0094323Y0066056D01*
X0094254Y0066042D01*
X0094185Y0066033D01*
X0094114Y0066027D01*
X0094044Y0066025D01*
X0092766Y0066025D01*
X0094300Y0066025D02*
X0095322Y0063980D01*
X0092766Y0063980D02*
X0092766Y0068580D01*
X0090380Y0066536D02*
X0088846Y0066536D01*
X0088846Y0063980D02*
X0090891Y0063980D01*
X0099354Y0063980D02*
X0100888Y0063980D01*
X0100888Y0063981D02*
X0100950Y0063983D01*
X0101011Y0063988D01*
X0101072Y0063998D01*
X0101133Y0064011D01*
X0101192Y0064027D01*
X0101250Y0064047D01*
X0101307Y0064071D01*
X0101363Y0064098D01*
X0101417Y0064128D01*
X0101469Y0064162D01*
X0101518Y0064198D01*
X0101566Y0064238D01*
X0101611Y0064280D01*
X0101653Y0064325D01*
X0101693Y0064373D01*
X0101729Y0064422D01*
X0101763Y0064474D01*
X0101793Y0064528D01*
X0101820Y0064584D01*
X0101844Y0064641D01*
X0101864Y0064699D01*
X0101880Y0064758D01*
X0101893Y0064819D01*
X0101903Y0064880D01*
X0101908Y0064941D01*
X0101910Y0065003D01*
X0101910Y0065514D01*
X0101908Y0065576D01*
X0101903Y0065637D01*
X0101893Y0065698D01*
X0101880Y0065759D01*
X0101864Y0065818D01*
X0101844Y0065876D01*
X0101820Y0065933D01*
X0101793Y0065989D01*
X0101763Y0066043D01*
X0101729Y0066095D01*
X0101693Y0066144D01*
X0101653Y0066192D01*
X0101611Y0066237D01*
X0101566Y0066279D01*
X0101518Y0066319D01*
X0101469Y0066355D01*
X0101417Y0066389D01*
X0101363Y0066419D01*
X0101307Y0066446D01*
X0101250Y0066470D01*
X0101192Y0066490D01*
X0101133Y0066506D01*
X0101072Y0066519D01*
X0101011Y0066529D01*
X0100950Y0066534D01*
X0100888Y0066536D01*
X0099354Y0066536D01*
X0099354Y0068580D01*
X0101910Y0068580D01*
X0103599Y0068580D02*
X0105132Y0063980D01*
X0106665Y0068580D01*
X0108160Y0063469D02*
X0110204Y0063469D01*
X0111941Y0065003D02*
X0111941Y0067558D01*
X0111943Y0067620D01*
X0111948Y0067681D01*
X0111958Y0067742D01*
X0111971Y0067803D01*
X0111987Y0067862D01*
X0112007Y0067920D01*
X0112031Y0067977D01*
X0112058Y0068033D01*
X0112088Y0068087D01*
X0112122Y0068139D01*
X0112158Y0068188D01*
X0112198Y0068236D01*
X0112240Y0068281D01*
X0112285Y0068323D01*
X0112333Y0068362D01*
X0112382Y0068399D01*
X0112434Y0068433D01*
X0112488Y0068463D01*
X0112544Y0068490D01*
X0112601Y0068514D01*
X0112659Y0068534D01*
X0112718Y0068550D01*
X0112779Y0068563D01*
X0112840Y0068573D01*
X0112901Y0068578D01*
X0112963Y0068580D01*
X0113986Y0068580D01*
X0115704Y0067303D02*
X0115704Y0065258D01*
X0115706Y0065188D01*
X0115712Y0065117D01*
X0115721Y0065048D01*
X0115735Y0064979D01*
X0115752Y0064910D01*
X0115773Y0064843D01*
X0115798Y0064777D01*
X0115826Y0064713D01*
X0115858Y0064650D01*
X0115893Y0064589D01*
X0115932Y0064530D01*
X0115973Y0064473D01*
X0116018Y0064419D01*
X0116066Y0064367D01*
X0116116Y0064318D01*
X0116170Y0064271D01*
X0116225Y0064228D01*
X0116283Y0064188D01*
X0116343Y0064151D01*
X0116405Y0064118D01*
X0116469Y0064088D01*
X0116534Y0064061D01*
X0116600Y0064038D01*
X0116668Y0064019D01*
X0116737Y0064004D01*
X0116806Y0063992D01*
X0116876Y0063984D01*
X0116947Y0063980D01*
X0117017Y0063980D01*
X0117088Y0063984D01*
X0117158Y0063992D01*
X0117227Y0064004D01*
X0117296Y0064019D01*
X0117364Y0064038D01*
X0117430Y0064061D01*
X0117495Y0064088D01*
X0117559Y0064118D01*
X0117621Y0064151D01*
X0117681Y0064188D01*
X0117739Y0064228D01*
X0117794Y0064271D01*
X0117848Y0064318D01*
X0117898Y0064367D01*
X0117946Y0064419D01*
X0117991Y0064473D01*
X0118032Y0064530D01*
X0118071Y0064589D01*
X0118106Y0064650D01*
X0118138Y0064713D01*
X0118166Y0064777D01*
X0118191Y0064843D01*
X0118212Y0064910D01*
X0118229Y0064979D01*
X0118243Y0065048D01*
X0118252Y0065117D01*
X0118258Y0065188D01*
X0118260Y0065258D01*
X0118260Y0067303D01*
X0118258Y0067373D01*
X0118252Y0067444D01*
X0118243Y0067513D01*
X0118229Y0067582D01*
X0118212Y0067651D01*
X0118191Y0067718D01*
X0118166Y0067784D01*
X0118138Y0067848D01*
X0118106Y0067911D01*
X0118071Y0067972D01*
X0118032Y0068031D01*
X0117991Y0068088D01*
X0117946Y0068142D01*
X0117898Y0068194D01*
X0117848Y0068243D01*
X0117794Y0068290D01*
X0117739Y0068333D01*
X0117681Y0068373D01*
X0117621Y0068410D01*
X0117559Y0068443D01*
X0117495Y0068473D01*
X0117430Y0068500D01*
X0117364Y0068523D01*
X0117296Y0068542D01*
X0117227Y0068557D01*
X0117158Y0068569D01*
X0117088Y0068577D01*
X0117017Y0068581D01*
X0116947Y0068581D01*
X0116876Y0068577D01*
X0116806Y0068569D01*
X0116737Y0068557D01*
X0116668Y0068542D01*
X0116600Y0068523D01*
X0116534Y0068500D01*
X0116469Y0068473D01*
X0116405Y0068443D01*
X0116343Y0068410D01*
X0116283Y0068373D01*
X0116225Y0068333D01*
X0116170Y0068290D01*
X0116116Y0068243D01*
X0116066Y0068194D01*
X0116018Y0068142D01*
X0115973Y0068088D01*
X0115932Y0068031D01*
X0115893Y0067972D01*
X0115858Y0067911D01*
X0115826Y0067848D01*
X0115798Y0067784D01*
X0115773Y0067718D01*
X0115752Y0067651D01*
X0115735Y0067582D01*
X0115721Y0067513D01*
X0115712Y0067444D01*
X0115706Y0067373D01*
X0115704Y0067303D01*
X0112963Y0063981D02*
X0112901Y0063983D01*
X0112840Y0063988D01*
X0112779Y0063998D01*
X0112718Y0064011D01*
X0112659Y0064027D01*
X0112601Y0064047D01*
X0112544Y0064071D01*
X0112488Y0064098D01*
X0112434Y0064128D01*
X0112382Y0064162D01*
X0112333Y0064198D01*
X0112285Y0064238D01*
X0112240Y0064280D01*
X0112198Y0064325D01*
X0112158Y0064373D01*
X0112122Y0064422D01*
X0112088Y0064474D01*
X0112058Y0064528D01*
X0112031Y0064584D01*
X0112007Y0064641D01*
X0111987Y0064699D01*
X0111971Y0064758D01*
X0111958Y0064819D01*
X0111948Y0064880D01*
X0111943Y0064941D01*
X0111941Y0065003D01*
X0112963Y0063980D02*
X0113986Y0063980D01*
X0120354Y0063980D02*
X0120354Y0068580D01*
X0122910Y0063980D01*
X0122910Y0068580D01*
X0124749Y0068580D02*
X0126282Y0063980D01*
X0127815Y0068580D01*
X0129663Y0068580D02*
X0131708Y0068580D01*
X0133583Y0068580D02*
X0134861Y0068580D01*
X0134861Y0068581D02*
X0134931Y0068579D01*
X0135002Y0068573D01*
X0135071Y0068564D01*
X0135140Y0068550D01*
X0135209Y0068533D01*
X0135276Y0068512D01*
X0135342Y0068487D01*
X0135406Y0068459D01*
X0135469Y0068427D01*
X0135530Y0068392D01*
X0135589Y0068353D01*
X0135646Y0068312D01*
X0135700Y0068267D01*
X0135752Y0068219D01*
X0135801Y0068169D01*
X0135848Y0068115D01*
X0135891Y0068060D01*
X0135931Y0068002D01*
X0135968Y0067942D01*
X0136001Y0067880D01*
X0136031Y0067816D01*
X0136058Y0067751D01*
X0136081Y0067685D01*
X0136100Y0067617D01*
X0136115Y0067548D01*
X0136127Y0067479D01*
X0136135Y0067409D01*
X0136139Y0067338D01*
X0136139Y0067268D01*
X0136135Y0067197D01*
X0136127Y0067127D01*
X0136115Y0067058D01*
X0136100Y0066989D01*
X0136081Y0066921D01*
X0136058Y0066855D01*
X0136031Y0066790D01*
X0136001Y0066726D01*
X0135968Y0066664D01*
X0135931Y0066604D01*
X0135891Y0066546D01*
X0135848Y0066491D01*
X0135801Y0066437D01*
X0135752Y0066387D01*
X0135700Y0066339D01*
X0135646Y0066294D01*
X0135589Y0066253D01*
X0135530Y0066214D01*
X0135469Y0066179D01*
X0135406Y0066147D01*
X0135342Y0066119D01*
X0135276Y0066094D01*
X0135209Y0066073D01*
X0135140Y0066056D01*
X0135071Y0066042D01*
X0135002Y0066033D01*
X0134931Y0066027D01*
X0134861Y0066025D01*
X0133583Y0066025D01*
X0135117Y0066025D02*
X0136139Y0063980D01*
X0133583Y0063980D02*
X0133583Y0068580D01*
X0131197Y0066536D02*
X0129663Y0066536D01*
X0129663Y0068580D02*
X0129663Y0063980D01*
X0131708Y0063980D01*
X0139032Y0063980D02*
X0139032Y0068580D01*
X0137754Y0068580D02*
X0140310Y0068580D01*
X0142113Y0068580D02*
X0144158Y0068580D01*
X0146033Y0068580D02*
X0147311Y0068580D01*
X0147311Y0068581D02*
X0147381Y0068579D01*
X0147452Y0068573D01*
X0147521Y0068564D01*
X0147590Y0068550D01*
X0147659Y0068533D01*
X0147726Y0068512D01*
X0147792Y0068487D01*
X0147856Y0068459D01*
X0147919Y0068427D01*
X0147980Y0068392D01*
X0148039Y0068353D01*
X0148096Y0068312D01*
X0148150Y0068267D01*
X0148202Y0068219D01*
X0148251Y0068169D01*
X0148298Y0068115D01*
X0148341Y0068060D01*
X0148381Y0068002D01*
X0148418Y0067942D01*
X0148451Y0067880D01*
X0148481Y0067816D01*
X0148508Y0067751D01*
X0148531Y0067685D01*
X0148550Y0067617D01*
X0148565Y0067548D01*
X0148577Y0067479D01*
X0148585Y0067409D01*
X0148589Y0067338D01*
X0148589Y0067268D01*
X0148585Y0067197D01*
X0148577Y0067127D01*
X0148565Y0067058D01*
X0148550Y0066989D01*
X0148531Y0066921D01*
X0148508Y0066855D01*
X0148481Y0066790D01*
X0148451Y0066726D01*
X0148418Y0066664D01*
X0148381Y0066604D01*
X0148341Y0066546D01*
X0148298Y0066491D01*
X0148251Y0066437D01*
X0148202Y0066387D01*
X0148150Y0066339D01*
X0148096Y0066294D01*
X0148039Y0066253D01*
X0147980Y0066214D01*
X0147919Y0066179D01*
X0147856Y0066147D01*
X0147792Y0066119D01*
X0147726Y0066094D01*
X0147659Y0066073D01*
X0147590Y0066056D01*
X0147521Y0066042D01*
X0147452Y0066033D01*
X0147381Y0066027D01*
X0147311Y0066025D01*
X0146033Y0066025D01*
X0147567Y0066025D02*
X0148589Y0063980D01*
X0146033Y0063980D02*
X0146033Y0068580D01*
X0143646Y0066536D02*
X0142113Y0066536D01*
X0142113Y0068580D02*
X0142113Y0063980D01*
X0144158Y0063980D01*
X0060719Y0063980D02*
X0059697Y0063980D01*
X0059697Y0063981D02*
X0059635Y0063983D01*
X0059574Y0063988D01*
X0059513Y0063998D01*
X0059452Y0064011D01*
X0059393Y0064027D01*
X0059335Y0064047D01*
X0059278Y0064071D01*
X0059222Y0064098D01*
X0059168Y0064128D01*
X0059116Y0064162D01*
X0059067Y0064198D01*
X0059019Y0064238D01*
X0058974Y0064280D01*
X0058932Y0064325D01*
X0058892Y0064373D01*
X0058856Y0064422D01*
X0058822Y0064474D01*
X0058792Y0064528D01*
X0058765Y0064584D01*
X0058741Y0064641D01*
X0058721Y0064699D01*
X0058705Y0064758D01*
X0058692Y0064819D01*
X0058682Y0064880D01*
X0058677Y0064941D01*
X0058675Y0065003D01*
X0058674Y0065003D02*
X0058674Y0067558D01*
X0058675Y0067558D02*
X0058677Y0067620D01*
X0058682Y0067681D01*
X0058692Y0067742D01*
X0058705Y0067803D01*
X0058721Y0067862D01*
X0058741Y0067920D01*
X0058765Y0067977D01*
X0058792Y0068033D01*
X0058822Y0068087D01*
X0058856Y0068139D01*
X0058892Y0068188D01*
X0058932Y0068236D01*
X0058974Y0068281D01*
X0059019Y0068323D01*
X0059067Y0068362D01*
X0059116Y0068399D01*
X0059168Y0068433D01*
X0059222Y0068463D01*
X0059278Y0068490D01*
X0059335Y0068514D01*
X0059393Y0068534D01*
X0059452Y0068550D01*
X0059513Y0068563D01*
X0059574Y0068573D01*
X0059635Y0068578D01*
X0059697Y0068580D01*
X0060719Y0068580D01*
X0056937Y0063469D02*
X0054893Y0063469D01*
X0051865Y0063980D02*
X0050332Y0068580D01*
X0047621Y0068580D02*
X0046087Y0068580D01*
X0047621Y0068580D02*
X0047684Y0068578D01*
X0047747Y0068572D01*
X0047809Y0068563D01*
X0047870Y0068549D01*
X0047931Y0068532D01*
X0047990Y0068511D01*
X0048048Y0068486D01*
X0048105Y0068458D01*
X0048159Y0068427D01*
X0048211Y0068392D01*
X0048262Y0068354D01*
X0048310Y0068313D01*
X0048355Y0068269D01*
X0048397Y0068223D01*
X0048437Y0068174D01*
X0048473Y0068123D01*
X0048506Y0068069D01*
X0048536Y0068014D01*
X0048562Y0067956D01*
X0048585Y0067898D01*
X0048604Y0067838D01*
X0048619Y0067777D01*
X0048631Y0067715D01*
X0048639Y0067652D01*
X0048643Y0067589D01*
X0048643Y0067527D01*
X0048639Y0067464D01*
X0048631Y0067401D01*
X0048619Y0067339D01*
X0048604Y0067278D01*
X0048585Y0067218D01*
X0048562Y0067160D01*
X0048536Y0067102D01*
X0048506Y0067047D01*
X0048473Y0066993D01*
X0048437Y0066942D01*
X0048397Y0066893D01*
X0048355Y0066847D01*
X0048310Y0066803D01*
X0048262Y0066762D01*
X0048211Y0066724D01*
X0048159Y0066689D01*
X0048105Y0066658D01*
X0048048Y0066630D01*
X0047990Y0066605D01*
X0047931Y0066584D01*
X0047870Y0066567D01*
X0047809Y0066553D01*
X0047747Y0066544D01*
X0047684Y0066538D01*
X0047621Y0066536D01*
X0046598Y0066536D01*
X0047365Y0066536D02*
X0047435Y0066534D01*
X0047506Y0066528D01*
X0047575Y0066519D01*
X0047644Y0066505D01*
X0047713Y0066488D01*
X0047780Y0066467D01*
X0047846Y0066442D01*
X0047910Y0066414D01*
X0047973Y0066382D01*
X0048034Y0066347D01*
X0048093Y0066308D01*
X0048150Y0066267D01*
X0048204Y0066222D01*
X0048256Y0066174D01*
X0048305Y0066124D01*
X0048352Y0066070D01*
X0048395Y0066015D01*
X0048435Y0065957D01*
X0048472Y0065897D01*
X0048505Y0065835D01*
X0048535Y0065771D01*
X0048562Y0065706D01*
X0048585Y0065640D01*
X0048604Y0065572D01*
X0048619Y0065503D01*
X0048631Y0065434D01*
X0048639Y0065364D01*
X0048643Y0065293D01*
X0048643Y0065223D01*
X0048639Y0065152D01*
X0048631Y0065082D01*
X0048619Y0065013D01*
X0048604Y0064944D01*
X0048585Y0064876D01*
X0048562Y0064810D01*
X0048535Y0064745D01*
X0048505Y0064681D01*
X0048472Y0064619D01*
X0048435Y0064559D01*
X0048395Y0064501D01*
X0048352Y0064446D01*
X0048305Y0064392D01*
X0048256Y0064342D01*
X0048204Y0064294D01*
X0048150Y0064249D01*
X0048093Y0064208D01*
X0048034Y0064169D01*
X0047973Y0064134D01*
X0047910Y0064102D01*
X0047846Y0064074D01*
X0047780Y0064049D01*
X0047713Y0064028D01*
X0047644Y0064011D01*
X0047575Y0063997D01*
X0047506Y0063988D01*
X0047435Y0063982D01*
X0047365Y0063980D01*
X0046087Y0063980D01*
X0044343Y0063980D02*
X0044087Y0063980D01*
X0044087Y0064236D01*
X0044343Y0064236D01*
X0044343Y0063980D01*
X0041065Y0063980D02*
X0039787Y0063980D01*
X0041065Y0063980D02*
X0041135Y0063982D01*
X0041206Y0063988D01*
X0041275Y0063997D01*
X0041344Y0064011D01*
X0041413Y0064028D01*
X0041480Y0064049D01*
X0041546Y0064074D01*
X0041610Y0064102D01*
X0041673Y0064134D01*
X0041734Y0064169D01*
X0041793Y0064208D01*
X0041850Y0064249D01*
X0041904Y0064294D01*
X0041956Y0064342D01*
X0042005Y0064392D01*
X0042052Y0064446D01*
X0042095Y0064501D01*
X0042135Y0064559D01*
X0042172Y0064619D01*
X0042205Y0064681D01*
X0042235Y0064745D01*
X0042262Y0064810D01*
X0042285Y0064876D01*
X0042304Y0064944D01*
X0042319Y0065013D01*
X0042331Y0065082D01*
X0042339Y0065152D01*
X0042343Y0065223D01*
X0042343Y0065293D01*
X0042339Y0065364D01*
X0042331Y0065434D01*
X0042319Y0065503D01*
X0042304Y0065572D01*
X0042285Y0065640D01*
X0042262Y0065706D01*
X0042235Y0065771D01*
X0042205Y0065835D01*
X0042172Y0065897D01*
X0042135Y0065957D01*
X0042095Y0066015D01*
X0042052Y0066070D01*
X0042005Y0066124D01*
X0041956Y0066174D01*
X0041904Y0066222D01*
X0041850Y0066267D01*
X0041793Y0066308D01*
X0041734Y0066347D01*
X0041673Y0066382D01*
X0041610Y0066414D01*
X0041546Y0066442D01*
X0041480Y0066467D01*
X0041413Y0066488D01*
X0041344Y0066505D01*
X0041275Y0066519D01*
X0041206Y0066528D01*
X0041135Y0066534D01*
X0041065Y0066536D01*
X0041321Y0066536D02*
X0040299Y0066536D01*
X0041321Y0066536D02*
X0041384Y0066538D01*
X0041447Y0066544D01*
X0041509Y0066553D01*
X0041570Y0066567D01*
X0041631Y0066584D01*
X0041690Y0066605D01*
X0041748Y0066630D01*
X0041805Y0066658D01*
X0041859Y0066689D01*
X0041911Y0066724D01*
X0041962Y0066762D01*
X0042010Y0066803D01*
X0042055Y0066847D01*
X0042097Y0066893D01*
X0042137Y0066942D01*
X0042173Y0066993D01*
X0042206Y0067047D01*
X0042236Y0067102D01*
X0042262Y0067160D01*
X0042285Y0067218D01*
X0042304Y0067278D01*
X0042319Y0067339D01*
X0042331Y0067401D01*
X0042339Y0067464D01*
X0042343Y0067527D01*
X0042343Y0067589D01*
X0042339Y0067652D01*
X0042331Y0067715D01*
X0042319Y0067777D01*
X0042304Y0067838D01*
X0042285Y0067898D01*
X0042262Y0067956D01*
X0042236Y0068014D01*
X0042206Y0068069D01*
X0042173Y0068123D01*
X0042137Y0068174D01*
X0042097Y0068223D01*
X0042055Y0068269D01*
X0042010Y0068313D01*
X0041962Y0068354D01*
X0041911Y0068392D01*
X0041859Y0068427D01*
X0041805Y0068458D01*
X0041748Y0068486D01*
X0041690Y0068511D01*
X0041631Y0068532D01*
X0041570Y0068549D01*
X0041509Y0068563D01*
X0041447Y0068572D01*
X0041384Y0068578D01*
X0041321Y0068580D01*
X0039787Y0068580D01*
X0051865Y0063980D02*
X0053398Y0068580D01*
X0056302Y0130732D02*
X0058857Y0130732D01*
X0058919Y0130734D01*
X0058980Y0130739D01*
X0059041Y0130749D01*
X0059102Y0130762D01*
X0059161Y0130778D01*
X0059219Y0130798D01*
X0059276Y0130822D01*
X0059332Y0130849D01*
X0059386Y0130879D01*
X0059438Y0130913D01*
X0059487Y0130949D01*
X0059535Y0130989D01*
X0059580Y0131031D01*
X0059622Y0131076D01*
X0059662Y0131124D01*
X0059698Y0131173D01*
X0059732Y0131225D01*
X0059762Y0131279D01*
X0059789Y0131335D01*
X0059813Y0131392D01*
X0059833Y0131450D01*
X0059849Y0131509D01*
X0059862Y0131570D01*
X0059872Y0131631D01*
X0059877Y0131692D01*
X0059879Y0131754D01*
X0059880Y0131754D02*
X0059880Y0132777D01*
X0058602Y0134495D02*
X0056557Y0134495D01*
X0056487Y0134497D01*
X0056416Y0134503D01*
X0056347Y0134512D01*
X0056278Y0134526D01*
X0056209Y0134543D01*
X0056142Y0134564D01*
X0056076Y0134589D01*
X0056012Y0134617D01*
X0055949Y0134649D01*
X0055888Y0134684D01*
X0055829Y0134723D01*
X0055772Y0134764D01*
X0055718Y0134809D01*
X0055666Y0134857D01*
X0055617Y0134907D01*
X0055570Y0134961D01*
X0055527Y0135016D01*
X0055487Y0135074D01*
X0055450Y0135134D01*
X0055417Y0135196D01*
X0055387Y0135260D01*
X0055360Y0135325D01*
X0055337Y0135391D01*
X0055318Y0135459D01*
X0055303Y0135528D01*
X0055291Y0135597D01*
X0055283Y0135667D01*
X0055279Y0135738D01*
X0055279Y0135808D01*
X0055283Y0135879D01*
X0055291Y0135949D01*
X0055303Y0136018D01*
X0055318Y0136087D01*
X0055337Y0136155D01*
X0055360Y0136221D01*
X0055387Y0136286D01*
X0055417Y0136350D01*
X0055450Y0136412D01*
X0055487Y0136472D01*
X0055527Y0136530D01*
X0055570Y0136585D01*
X0055617Y0136639D01*
X0055666Y0136689D01*
X0055718Y0136737D01*
X0055772Y0136782D01*
X0055829Y0136823D01*
X0055888Y0136862D01*
X0055949Y0136897D01*
X0056012Y0136929D01*
X0056076Y0136957D01*
X0056142Y0136982D01*
X0056209Y0137003D01*
X0056278Y0137020D01*
X0056347Y0137034D01*
X0056416Y0137043D01*
X0056487Y0137049D01*
X0056557Y0137051D01*
X0058602Y0137051D01*
X0058672Y0137049D01*
X0058743Y0137043D01*
X0058812Y0137034D01*
X0058881Y0137020D01*
X0058950Y0137003D01*
X0059017Y0136982D01*
X0059083Y0136957D01*
X0059147Y0136929D01*
X0059210Y0136897D01*
X0059271Y0136862D01*
X0059330Y0136823D01*
X0059387Y0136782D01*
X0059441Y0136737D01*
X0059493Y0136689D01*
X0059542Y0136639D01*
X0059589Y0136585D01*
X0059632Y0136530D01*
X0059672Y0136472D01*
X0059709Y0136412D01*
X0059742Y0136350D01*
X0059772Y0136286D01*
X0059799Y0136221D01*
X0059822Y0136155D01*
X0059841Y0136087D01*
X0059856Y0136018D01*
X0059868Y0135949D01*
X0059876Y0135879D01*
X0059880Y0135808D01*
X0059880Y0135738D01*
X0059876Y0135667D01*
X0059868Y0135597D01*
X0059856Y0135528D01*
X0059841Y0135459D01*
X0059822Y0135391D01*
X0059799Y0135325D01*
X0059772Y0135260D01*
X0059742Y0135196D01*
X0059709Y0135134D01*
X0059672Y0135074D01*
X0059632Y0135016D01*
X0059589Y0134961D01*
X0059542Y0134907D01*
X0059493Y0134857D01*
X0059441Y0134809D01*
X0059387Y0134764D01*
X0059330Y0134723D01*
X0059271Y0134684D01*
X0059210Y0134649D01*
X0059147Y0134617D01*
X0059083Y0134589D01*
X0059017Y0134564D01*
X0058950Y0134543D01*
X0058881Y0134526D01*
X0058812Y0134512D01*
X0058743Y0134503D01*
X0058672Y0134497D01*
X0058602Y0134495D01*
X0055280Y0131754D02*
X0055282Y0131692D01*
X0055287Y0131631D01*
X0055297Y0131570D01*
X0055310Y0131509D01*
X0055326Y0131450D01*
X0055346Y0131392D01*
X0055370Y0131335D01*
X0055397Y0131279D01*
X0055427Y0131225D01*
X0055461Y0131173D01*
X0055498Y0131124D01*
X0055537Y0131076D01*
X0055579Y0131031D01*
X0055624Y0130989D01*
X0055672Y0130949D01*
X0055721Y0130913D01*
X0055773Y0130879D01*
X0055827Y0130849D01*
X0055883Y0130822D01*
X0055940Y0130798D01*
X0055998Y0130778D01*
X0056057Y0130762D01*
X0056118Y0130749D01*
X0056179Y0130739D01*
X0056240Y0130734D01*
X0056302Y0130732D01*
X0055280Y0131754D02*
X0055280Y0132777D01*
X0055280Y0139145D02*
X0059880Y0141701D01*
X0055280Y0141701D01*
X0055280Y0143540D02*
X0059880Y0145073D01*
X0055280Y0146606D01*
X0055280Y0148454D02*
X0055280Y0150499D01*
X0055280Y0152374D02*
X0055280Y0153652D01*
X0055279Y0153652D02*
X0055281Y0153722D01*
X0055287Y0153793D01*
X0055296Y0153862D01*
X0055310Y0153931D01*
X0055327Y0154000D01*
X0055348Y0154067D01*
X0055373Y0154133D01*
X0055401Y0154197D01*
X0055433Y0154260D01*
X0055468Y0154321D01*
X0055507Y0154380D01*
X0055548Y0154437D01*
X0055593Y0154491D01*
X0055641Y0154543D01*
X0055691Y0154592D01*
X0055745Y0154639D01*
X0055800Y0154682D01*
X0055858Y0154722D01*
X0055918Y0154759D01*
X0055980Y0154792D01*
X0056044Y0154822D01*
X0056109Y0154849D01*
X0056175Y0154872D01*
X0056243Y0154891D01*
X0056312Y0154906D01*
X0056381Y0154918D01*
X0056451Y0154926D01*
X0056522Y0154930D01*
X0056592Y0154930D01*
X0056663Y0154926D01*
X0056733Y0154918D01*
X0056802Y0154906D01*
X0056871Y0154891D01*
X0056939Y0154872D01*
X0057005Y0154849D01*
X0057070Y0154822D01*
X0057134Y0154792D01*
X0057196Y0154759D01*
X0057256Y0154722D01*
X0057314Y0154682D01*
X0057369Y0154639D01*
X0057423Y0154592D01*
X0057473Y0154543D01*
X0057521Y0154491D01*
X0057566Y0154437D01*
X0057607Y0154380D01*
X0057646Y0154321D01*
X0057681Y0154260D01*
X0057713Y0154197D01*
X0057741Y0154133D01*
X0057766Y0154067D01*
X0057787Y0154000D01*
X0057804Y0153931D01*
X0057818Y0153862D01*
X0057827Y0153793D01*
X0057833Y0153722D01*
X0057835Y0153652D01*
X0057835Y0152374D01*
X0057835Y0153907D02*
X0059880Y0154930D01*
X0059880Y0152374D02*
X0055280Y0152374D01*
X0057324Y0149987D02*
X0057324Y0148454D01*
X0055280Y0148454D02*
X0059880Y0148454D01*
X0059880Y0150499D01*
X0059880Y0157823D02*
X0055280Y0157823D01*
X0055280Y0156545D02*
X0055280Y0159101D01*
X0055280Y0160904D02*
X0055280Y0162948D01*
X0055280Y0164824D02*
X0055280Y0166102D01*
X0055279Y0166102D02*
X0055281Y0166172D01*
X0055287Y0166243D01*
X0055296Y0166312D01*
X0055310Y0166381D01*
X0055327Y0166450D01*
X0055348Y0166517D01*
X0055373Y0166583D01*
X0055401Y0166647D01*
X0055433Y0166710D01*
X0055468Y0166771D01*
X0055507Y0166830D01*
X0055548Y0166887D01*
X0055593Y0166941D01*
X0055641Y0166993D01*
X0055691Y0167042D01*
X0055745Y0167089D01*
X0055800Y0167132D01*
X0055858Y0167172D01*
X0055918Y0167209D01*
X0055980Y0167242D01*
X0056044Y0167272D01*
X0056109Y0167299D01*
X0056175Y0167322D01*
X0056243Y0167341D01*
X0056312Y0167356D01*
X0056381Y0167368D01*
X0056451Y0167376D01*
X0056522Y0167380D01*
X0056592Y0167380D01*
X0056663Y0167376D01*
X0056733Y0167368D01*
X0056802Y0167356D01*
X0056871Y0167341D01*
X0056939Y0167322D01*
X0057005Y0167299D01*
X0057070Y0167272D01*
X0057134Y0167242D01*
X0057196Y0167209D01*
X0057256Y0167172D01*
X0057314Y0167132D01*
X0057369Y0167089D01*
X0057423Y0167042D01*
X0057473Y0166993D01*
X0057521Y0166941D01*
X0057566Y0166887D01*
X0057607Y0166830D01*
X0057646Y0166771D01*
X0057681Y0166710D01*
X0057713Y0166647D01*
X0057741Y0166583D01*
X0057766Y0166517D01*
X0057787Y0166450D01*
X0057804Y0166381D01*
X0057818Y0166312D01*
X0057827Y0166243D01*
X0057833Y0166172D01*
X0057835Y0166102D01*
X0057835Y0164824D01*
X0057835Y0166357D02*
X0059880Y0167380D01*
X0059880Y0164824D02*
X0055280Y0164824D01*
X0057324Y0162437D02*
X0057324Y0160904D01*
X0055280Y0160904D02*
X0059880Y0160904D01*
X0059880Y0162948D01*
X0059880Y0139145D02*
X0055280Y0139145D01*
D13*
X0058702Y0139095D02*
X0038702Y0139095D01*
X0038702Y0099095D01*
X0058702Y0099095D01*
X0058702Y0139095D01*
X0059292Y0142402D02*
X0059292Y0222402D01*
X0039292Y0222402D01*
X0039292Y0142402D01*
X0059292Y0142402D01*
X0046645Y0144395D02*
X0044867Y0144395D01*
X0046645Y0144395D02*
X0046728Y0144397D01*
X0046811Y0144403D01*
X0046894Y0144413D01*
X0046977Y0144426D01*
X0047058Y0144444D01*
X0047139Y0144465D01*
X0047218Y0144490D01*
X0047296Y0144519D01*
X0047373Y0144551D01*
X0047448Y0144587D01*
X0047522Y0144626D01*
X0047593Y0144669D01*
X0047663Y0144715D01*
X0047730Y0144765D01*
X0047795Y0144817D01*
X0047857Y0144872D01*
X0047917Y0144931D01*
X0047974Y0144992D01*
X0048028Y0145055D01*
X0048079Y0145121D01*
X0048126Y0145190D01*
X0048171Y0145260D01*
X0048212Y0145333D01*
X0048249Y0145407D01*
X0048284Y0145483D01*
X0048314Y0145561D01*
X0048341Y0145639D01*
X0048364Y0145720D01*
X0048384Y0145801D01*
X0048399Y0145883D01*
X0048411Y0145965D01*
X0048419Y0146048D01*
X0048423Y0146131D01*
X0048423Y0146215D01*
X0048419Y0146298D01*
X0048411Y0146381D01*
X0048399Y0146463D01*
X0048384Y0146545D01*
X0048364Y0146626D01*
X0048341Y0146707D01*
X0048314Y0146785D01*
X0048284Y0146863D01*
X0048249Y0146939D01*
X0048212Y0147013D01*
X0048171Y0147086D01*
X0048126Y0147156D01*
X0048079Y0147225D01*
X0048028Y0147291D01*
X0047974Y0147354D01*
X0047917Y0147415D01*
X0047857Y0147474D01*
X0047795Y0147529D01*
X0047730Y0147581D01*
X0047663Y0147631D01*
X0047593Y0147677D01*
X0047522Y0147720D01*
X0047448Y0147759D01*
X0047373Y0147795D01*
X0047296Y0147827D01*
X0047218Y0147856D01*
X0047139Y0147881D01*
X0047058Y0147902D01*
X0046977Y0147920D01*
X0046894Y0147933D01*
X0046811Y0147943D01*
X0046728Y0147949D01*
X0046645Y0147951D01*
X0047001Y0147951D02*
X0045579Y0147951D01*
X0047001Y0147951D02*
X0047075Y0147953D01*
X0047150Y0147959D01*
X0047223Y0147969D01*
X0047297Y0147982D01*
X0047369Y0147999D01*
X0047440Y0148021D01*
X0047511Y0148045D01*
X0047579Y0148074D01*
X0047647Y0148106D01*
X0047712Y0148142D01*
X0047775Y0148180D01*
X0047837Y0148223D01*
X0047896Y0148268D01*
X0047953Y0148316D01*
X0048007Y0148367D01*
X0048058Y0148421D01*
X0048106Y0148478D01*
X0048151Y0148537D01*
X0048194Y0148599D01*
X0048232Y0148662D01*
X0048268Y0148727D01*
X0048300Y0148795D01*
X0048329Y0148863D01*
X0048353Y0148934D01*
X0048375Y0149005D01*
X0048392Y0149077D01*
X0048405Y0149151D01*
X0048415Y0149224D01*
X0048421Y0149299D01*
X0048423Y0149373D01*
X0048421Y0149447D01*
X0048415Y0149522D01*
X0048405Y0149595D01*
X0048392Y0149669D01*
X0048375Y0149741D01*
X0048353Y0149812D01*
X0048329Y0149883D01*
X0048300Y0149951D01*
X0048268Y0150019D01*
X0048232Y0150084D01*
X0048194Y0150147D01*
X0048151Y0150209D01*
X0048106Y0150268D01*
X0048058Y0150325D01*
X0048007Y0150379D01*
X0047953Y0150430D01*
X0047896Y0150478D01*
X0047837Y0150523D01*
X0047775Y0150566D01*
X0047712Y0150604D01*
X0047647Y0150640D01*
X0047579Y0150672D01*
X0047511Y0150701D01*
X0047440Y0150725D01*
X0047369Y0150747D01*
X0047297Y0150764D01*
X0047223Y0150777D01*
X0047150Y0150787D01*
X0047075Y0150793D01*
X0047001Y0150795D01*
X0044867Y0150795D01*
X0040779Y0150795D02*
X0039002Y0150795D01*
X0039002Y0144395D01*
X0040779Y0144395D01*
X0040862Y0144397D01*
X0040945Y0144403D01*
X0041028Y0144413D01*
X0041111Y0144426D01*
X0041192Y0144444D01*
X0041273Y0144465D01*
X0041352Y0144490D01*
X0041430Y0144519D01*
X0041507Y0144551D01*
X0041582Y0144587D01*
X0041656Y0144626D01*
X0041727Y0144669D01*
X0041797Y0144715D01*
X0041864Y0144765D01*
X0041929Y0144817D01*
X0041991Y0144872D01*
X0042051Y0144931D01*
X0042108Y0144992D01*
X0042162Y0145055D01*
X0042213Y0145121D01*
X0042260Y0145190D01*
X0042305Y0145260D01*
X0042346Y0145333D01*
X0042383Y0145407D01*
X0042418Y0145483D01*
X0042448Y0145561D01*
X0042475Y0145639D01*
X0042498Y0145720D01*
X0042518Y0145801D01*
X0042533Y0145883D01*
X0042545Y0145965D01*
X0042553Y0146048D01*
X0042557Y0146131D01*
X0042557Y0146215D01*
X0042553Y0146298D01*
X0042545Y0146381D01*
X0042533Y0146463D01*
X0042518Y0146545D01*
X0042498Y0146626D01*
X0042475Y0146707D01*
X0042448Y0146785D01*
X0042418Y0146863D01*
X0042383Y0146939D01*
X0042346Y0147013D01*
X0042305Y0147086D01*
X0042260Y0147156D01*
X0042213Y0147225D01*
X0042162Y0147291D01*
X0042108Y0147354D01*
X0042051Y0147415D01*
X0041991Y0147474D01*
X0041929Y0147529D01*
X0041864Y0147581D01*
X0041797Y0147631D01*
X0041727Y0147677D01*
X0041656Y0147720D01*
X0041582Y0147759D01*
X0041507Y0147795D01*
X0041430Y0147827D01*
X0041352Y0147856D01*
X0041273Y0147881D01*
X0041192Y0147902D01*
X0041111Y0147920D01*
X0041028Y0147933D01*
X0040945Y0147943D01*
X0040862Y0147949D01*
X0040779Y0147951D01*
X0039002Y0147951D01*
X0040779Y0147951D02*
X0040853Y0147953D01*
X0040928Y0147959D01*
X0041001Y0147969D01*
X0041075Y0147982D01*
X0041147Y0147999D01*
X0041218Y0148021D01*
X0041289Y0148045D01*
X0041357Y0148074D01*
X0041425Y0148106D01*
X0041490Y0148142D01*
X0041553Y0148180D01*
X0041615Y0148223D01*
X0041674Y0148268D01*
X0041731Y0148316D01*
X0041785Y0148367D01*
X0041836Y0148421D01*
X0041884Y0148478D01*
X0041929Y0148537D01*
X0041972Y0148599D01*
X0042010Y0148662D01*
X0042046Y0148727D01*
X0042078Y0148795D01*
X0042107Y0148863D01*
X0042131Y0148934D01*
X0042153Y0149005D01*
X0042170Y0149077D01*
X0042183Y0149151D01*
X0042193Y0149224D01*
X0042199Y0149299D01*
X0042201Y0149373D01*
X0042199Y0149447D01*
X0042193Y0149522D01*
X0042183Y0149595D01*
X0042170Y0149669D01*
X0042153Y0149741D01*
X0042131Y0149812D01*
X0042107Y0149883D01*
X0042078Y0149951D01*
X0042046Y0150019D01*
X0042010Y0150084D01*
X0041972Y0150147D01*
X0041929Y0150209D01*
X0041884Y0150268D01*
X0041836Y0150325D01*
X0041785Y0150379D01*
X0041731Y0150430D01*
X0041674Y0150478D01*
X0041615Y0150523D01*
X0041553Y0150566D01*
X0041490Y0150604D01*
X0041425Y0150640D01*
X0041357Y0150672D01*
X0041289Y0150701D01*
X0041218Y0150725D01*
X0041147Y0150747D01*
X0041075Y0150764D01*
X0041001Y0150777D01*
X0040928Y0150787D01*
X0040853Y0150793D01*
X0040779Y0150795D01*
X0063765Y0179769D02*
X0063765Y0181546D01*
X0063765Y0179769D02*
X0070165Y0179769D01*
X0067321Y0179769D02*
X0067321Y0181546D01*
X0067319Y0181629D01*
X0067313Y0181712D01*
X0067303Y0181795D01*
X0067290Y0181878D01*
X0067272Y0181959D01*
X0067251Y0182040D01*
X0067226Y0182119D01*
X0067197Y0182197D01*
X0067165Y0182274D01*
X0067129Y0182349D01*
X0067090Y0182423D01*
X0067047Y0182494D01*
X0067001Y0182564D01*
X0066951Y0182631D01*
X0066899Y0182696D01*
X0066844Y0182758D01*
X0066785Y0182818D01*
X0066724Y0182875D01*
X0066661Y0182929D01*
X0066595Y0182980D01*
X0066526Y0183027D01*
X0066456Y0183072D01*
X0066383Y0183113D01*
X0066309Y0183150D01*
X0066233Y0183185D01*
X0066155Y0183215D01*
X0066077Y0183242D01*
X0065996Y0183265D01*
X0065915Y0183285D01*
X0065833Y0183300D01*
X0065751Y0183312D01*
X0065668Y0183320D01*
X0065585Y0183324D01*
X0065501Y0183324D01*
X0065418Y0183320D01*
X0065335Y0183312D01*
X0065253Y0183300D01*
X0065171Y0183285D01*
X0065090Y0183265D01*
X0065009Y0183242D01*
X0064931Y0183215D01*
X0064853Y0183185D01*
X0064777Y0183150D01*
X0064703Y0183113D01*
X0064630Y0183072D01*
X0064560Y0183027D01*
X0064491Y0182980D01*
X0064425Y0182929D01*
X0064362Y0182875D01*
X0064301Y0182818D01*
X0064242Y0182758D01*
X0064187Y0182696D01*
X0064135Y0182631D01*
X0064085Y0182564D01*
X0064039Y0182494D01*
X0063996Y0182423D01*
X0063957Y0182349D01*
X0063921Y0182274D01*
X0063889Y0182197D01*
X0063860Y0182119D01*
X0063835Y0182040D01*
X0063814Y0181959D01*
X0063796Y0181878D01*
X0063783Y0181795D01*
X0063773Y0181712D01*
X0063767Y0181629D01*
X0063765Y0181546D01*
X0065543Y0185634D02*
X0068388Y0185634D01*
X0068471Y0185636D01*
X0068554Y0185642D01*
X0068637Y0185652D01*
X0068720Y0185665D01*
X0068801Y0185683D01*
X0068882Y0185704D01*
X0068961Y0185729D01*
X0069039Y0185758D01*
X0069116Y0185790D01*
X0069191Y0185826D01*
X0069265Y0185865D01*
X0069336Y0185908D01*
X0069406Y0185954D01*
X0069473Y0186004D01*
X0069538Y0186056D01*
X0069600Y0186111D01*
X0069660Y0186170D01*
X0069717Y0186231D01*
X0069771Y0186294D01*
X0069822Y0186360D01*
X0069869Y0186429D01*
X0069914Y0186499D01*
X0069955Y0186572D01*
X0069992Y0186646D01*
X0070027Y0186722D01*
X0070057Y0186800D01*
X0070084Y0186878D01*
X0070107Y0186959D01*
X0070127Y0187040D01*
X0070142Y0187122D01*
X0070154Y0187204D01*
X0070162Y0187287D01*
X0070166Y0187370D01*
X0070166Y0187454D01*
X0070162Y0187537D01*
X0070154Y0187620D01*
X0070142Y0187702D01*
X0070127Y0187784D01*
X0070107Y0187865D01*
X0070084Y0187946D01*
X0070057Y0188024D01*
X0070027Y0188102D01*
X0069992Y0188178D01*
X0069955Y0188252D01*
X0069914Y0188325D01*
X0069869Y0188395D01*
X0069822Y0188464D01*
X0069771Y0188530D01*
X0069717Y0188593D01*
X0069660Y0188654D01*
X0069600Y0188713D01*
X0069538Y0188768D01*
X0069473Y0188820D01*
X0069406Y0188870D01*
X0069336Y0188916D01*
X0069265Y0188959D01*
X0069191Y0188998D01*
X0069116Y0189034D01*
X0069039Y0189066D01*
X0068961Y0189095D01*
X0068882Y0189120D01*
X0068801Y0189141D01*
X0068720Y0189159D01*
X0068637Y0189172D01*
X0068554Y0189182D01*
X0068471Y0189188D01*
X0068388Y0189190D01*
X0065543Y0189190D01*
X0065460Y0189188D01*
X0065377Y0189182D01*
X0065294Y0189172D01*
X0065211Y0189159D01*
X0065130Y0189141D01*
X0065049Y0189120D01*
X0064970Y0189095D01*
X0064892Y0189066D01*
X0064815Y0189034D01*
X0064740Y0188998D01*
X0064666Y0188959D01*
X0064595Y0188916D01*
X0064525Y0188870D01*
X0064458Y0188820D01*
X0064393Y0188768D01*
X0064331Y0188713D01*
X0064271Y0188654D01*
X0064214Y0188593D01*
X0064160Y0188530D01*
X0064109Y0188464D01*
X0064062Y0188395D01*
X0064017Y0188325D01*
X0063976Y0188252D01*
X0063939Y0188178D01*
X0063904Y0188102D01*
X0063874Y0188024D01*
X0063847Y0187946D01*
X0063824Y0187865D01*
X0063804Y0187784D01*
X0063789Y0187702D01*
X0063777Y0187620D01*
X0063769Y0187537D01*
X0063765Y0187454D01*
X0063765Y0187370D01*
X0063769Y0187287D01*
X0063777Y0187204D01*
X0063789Y0187122D01*
X0063804Y0187040D01*
X0063824Y0186959D01*
X0063847Y0186878D01*
X0063874Y0186800D01*
X0063904Y0186722D01*
X0063939Y0186646D01*
X0063976Y0186572D01*
X0064017Y0186499D01*
X0064062Y0186429D01*
X0064109Y0186360D01*
X0064160Y0186294D01*
X0064214Y0186231D01*
X0064271Y0186170D01*
X0064331Y0186111D01*
X0064393Y0186056D01*
X0064458Y0186004D01*
X0064525Y0185954D01*
X0064595Y0185908D01*
X0064666Y0185865D01*
X0064740Y0185826D01*
X0064815Y0185790D01*
X0064892Y0185758D01*
X0064970Y0185729D01*
X0065049Y0185704D01*
X0065130Y0185683D01*
X0065211Y0185665D01*
X0065294Y0185652D01*
X0065377Y0185642D01*
X0065460Y0185636D01*
X0065543Y0185634D01*
X0063765Y0191378D02*
X0063765Y0194934D01*
X0063765Y0193156D02*
X0070165Y0193156D01*
X0070876Y0196862D02*
X0070876Y0199707D01*
X0068388Y0202045D02*
X0065543Y0202045D01*
X0065460Y0202047D01*
X0065377Y0202053D01*
X0065294Y0202063D01*
X0065211Y0202076D01*
X0065130Y0202094D01*
X0065049Y0202115D01*
X0064970Y0202140D01*
X0064892Y0202169D01*
X0064815Y0202201D01*
X0064740Y0202237D01*
X0064666Y0202276D01*
X0064595Y0202319D01*
X0064525Y0202365D01*
X0064458Y0202415D01*
X0064393Y0202467D01*
X0064331Y0202522D01*
X0064271Y0202581D01*
X0064214Y0202642D01*
X0064160Y0202705D01*
X0064109Y0202771D01*
X0064062Y0202840D01*
X0064017Y0202910D01*
X0063976Y0202983D01*
X0063939Y0203057D01*
X0063904Y0203133D01*
X0063874Y0203211D01*
X0063847Y0203289D01*
X0063824Y0203370D01*
X0063804Y0203451D01*
X0063789Y0203533D01*
X0063777Y0203615D01*
X0063769Y0203698D01*
X0063765Y0203781D01*
X0063765Y0203865D01*
X0063769Y0203948D01*
X0063777Y0204031D01*
X0063789Y0204113D01*
X0063804Y0204195D01*
X0063824Y0204276D01*
X0063847Y0204357D01*
X0063874Y0204435D01*
X0063904Y0204513D01*
X0063939Y0204589D01*
X0063976Y0204663D01*
X0064017Y0204736D01*
X0064062Y0204806D01*
X0064109Y0204875D01*
X0064160Y0204941D01*
X0064214Y0205004D01*
X0064271Y0205065D01*
X0064331Y0205124D01*
X0064393Y0205179D01*
X0064458Y0205231D01*
X0064525Y0205281D01*
X0064595Y0205327D01*
X0064666Y0205370D01*
X0064740Y0205409D01*
X0064815Y0205445D01*
X0064892Y0205477D01*
X0064970Y0205506D01*
X0065049Y0205531D01*
X0065130Y0205552D01*
X0065211Y0205570D01*
X0065294Y0205583D01*
X0065377Y0205593D01*
X0065460Y0205599D01*
X0065543Y0205601D01*
X0068388Y0205601D01*
X0068471Y0205599D01*
X0068554Y0205593D01*
X0068637Y0205583D01*
X0068720Y0205570D01*
X0068801Y0205552D01*
X0068882Y0205531D01*
X0068961Y0205506D01*
X0069039Y0205477D01*
X0069116Y0205445D01*
X0069191Y0205409D01*
X0069265Y0205370D01*
X0069336Y0205327D01*
X0069406Y0205281D01*
X0069473Y0205231D01*
X0069538Y0205179D01*
X0069600Y0205124D01*
X0069660Y0205065D01*
X0069717Y0205004D01*
X0069771Y0204941D01*
X0069822Y0204875D01*
X0069869Y0204806D01*
X0069914Y0204736D01*
X0069955Y0204663D01*
X0069992Y0204589D01*
X0070027Y0204513D01*
X0070057Y0204435D01*
X0070084Y0204357D01*
X0070107Y0204276D01*
X0070127Y0204195D01*
X0070142Y0204113D01*
X0070154Y0204031D01*
X0070162Y0203948D01*
X0070166Y0203865D01*
X0070166Y0203781D01*
X0070162Y0203698D01*
X0070154Y0203615D01*
X0070142Y0203533D01*
X0070127Y0203451D01*
X0070107Y0203370D01*
X0070084Y0203289D01*
X0070057Y0203211D01*
X0070027Y0203133D01*
X0069992Y0203057D01*
X0069955Y0202983D01*
X0069914Y0202910D01*
X0069869Y0202840D01*
X0069822Y0202771D01*
X0069771Y0202705D01*
X0069717Y0202642D01*
X0069660Y0202581D01*
X0069600Y0202522D01*
X0069538Y0202467D01*
X0069473Y0202415D01*
X0069406Y0202365D01*
X0069336Y0202319D01*
X0069265Y0202276D01*
X0069191Y0202237D01*
X0069116Y0202201D01*
X0069039Y0202169D01*
X0068961Y0202140D01*
X0068882Y0202115D01*
X0068801Y0202094D01*
X0068720Y0202076D01*
X0068637Y0202063D01*
X0068554Y0202053D01*
X0068471Y0202047D01*
X0068388Y0202045D01*
X0068388Y0208404D02*
X0063765Y0208404D01*
X0063765Y0211960D02*
X0068388Y0211960D01*
X0068471Y0211958D01*
X0068554Y0211952D01*
X0068637Y0211942D01*
X0068720Y0211929D01*
X0068801Y0211911D01*
X0068882Y0211890D01*
X0068961Y0211865D01*
X0069039Y0211836D01*
X0069116Y0211804D01*
X0069191Y0211768D01*
X0069265Y0211729D01*
X0069336Y0211686D01*
X0069406Y0211640D01*
X0069473Y0211590D01*
X0069538Y0211538D01*
X0069600Y0211483D01*
X0069660Y0211424D01*
X0069717Y0211363D01*
X0069771Y0211300D01*
X0069822Y0211234D01*
X0069869Y0211165D01*
X0069914Y0211095D01*
X0069955Y0211022D01*
X0069992Y0210948D01*
X0070027Y0210872D01*
X0070057Y0210794D01*
X0070084Y0210716D01*
X0070107Y0210635D01*
X0070127Y0210554D01*
X0070142Y0210472D01*
X0070154Y0210390D01*
X0070162Y0210307D01*
X0070166Y0210224D01*
X0070166Y0210140D01*
X0070162Y0210057D01*
X0070154Y0209974D01*
X0070142Y0209892D01*
X0070127Y0209810D01*
X0070107Y0209729D01*
X0070084Y0209648D01*
X0070057Y0209570D01*
X0070027Y0209492D01*
X0069992Y0209416D01*
X0069955Y0209342D01*
X0069914Y0209269D01*
X0069869Y0209199D01*
X0069822Y0209130D01*
X0069771Y0209064D01*
X0069717Y0209001D01*
X0069660Y0208940D01*
X0069600Y0208881D01*
X0069538Y0208826D01*
X0069473Y0208774D01*
X0069406Y0208724D01*
X0069336Y0208678D01*
X0069265Y0208635D01*
X0069191Y0208596D01*
X0069116Y0208560D01*
X0069039Y0208528D01*
X0068961Y0208499D01*
X0068882Y0208474D01*
X0068801Y0208453D01*
X0068720Y0208435D01*
X0068637Y0208422D01*
X0068554Y0208412D01*
X0068471Y0208406D01*
X0068388Y0208404D01*
X0063765Y0214353D02*
X0063765Y0217909D01*
X0063765Y0216131D02*
X0070165Y0216131D01*
X0070165Y0220385D02*
X0063765Y0220385D01*
X0063765Y0222163D01*
X0063767Y0222246D01*
X0063773Y0222329D01*
X0063783Y0222412D01*
X0063796Y0222495D01*
X0063814Y0222576D01*
X0063835Y0222657D01*
X0063860Y0222736D01*
X0063889Y0222814D01*
X0063921Y0222891D01*
X0063957Y0222966D01*
X0063996Y0223040D01*
X0064039Y0223111D01*
X0064085Y0223181D01*
X0064135Y0223248D01*
X0064187Y0223313D01*
X0064242Y0223375D01*
X0064301Y0223435D01*
X0064362Y0223492D01*
X0064425Y0223546D01*
X0064491Y0223597D01*
X0064560Y0223644D01*
X0064630Y0223689D01*
X0064703Y0223730D01*
X0064777Y0223767D01*
X0064853Y0223802D01*
X0064931Y0223832D01*
X0065009Y0223859D01*
X0065090Y0223882D01*
X0065171Y0223902D01*
X0065253Y0223917D01*
X0065335Y0223929D01*
X0065418Y0223937D01*
X0065501Y0223941D01*
X0065585Y0223941D01*
X0065668Y0223937D01*
X0065751Y0223929D01*
X0065833Y0223917D01*
X0065915Y0223902D01*
X0065996Y0223882D01*
X0066077Y0223859D01*
X0066155Y0223832D01*
X0066233Y0223802D01*
X0066309Y0223767D01*
X0066383Y0223730D01*
X0066456Y0223689D01*
X0066526Y0223644D01*
X0066595Y0223597D01*
X0066661Y0223546D01*
X0066724Y0223492D01*
X0066785Y0223435D01*
X0066844Y0223375D01*
X0066899Y0223313D01*
X0066951Y0223248D01*
X0067001Y0223181D01*
X0067047Y0223111D01*
X0067090Y0223040D01*
X0067129Y0222966D01*
X0067165Y0222891D01*
X0067197Y0222814D01*
X0067226Y0222736D01*
X0067251Y0222657D01*
X0067272Y0222576D01*
X0067290Y0222495D01*
X0067303Y0222412D01*
X0067313Y0222329D01*
X0067319Y0222246D01*
X0067321Y0222163D01*
X0067321Y0220385D01*
X0068388Y0226456D02*
X0063765Y0226456D01*
X0063765Y0230012D02*
X0068388Y0230012D01*
X0068471Y0230010D01*
X0068554Y0230004D01*
X0068637Y0229994D01*
X0068720Y0229981D01*
X0068801Y0229963D01*
X0068882Y0229942D01*
X0068961Y0229917D01*
X0069039Y0229888D01*
X0069116Y0229856D01*
X0069191Y0229820D01*
X0069265Y0229781D01*
X0069336Y0229738D01*
X0069406Y0229692D01*
X0069473Y0229642D01*
X0069538Y0229590D01*
X0069600Y0229535D01*
X0069660Y0229476D01*
X0069717Y0229415D01*
X0069771Y0229352D01*
X0069822Y0229286D01*
X0069869Y0229217D01*
X0069914Y0229147D01*
X0069955Y0229074D01*
X0069992Y0229000D01*
X0070027Y0228924D01*
X0070057Y0228846D01*
X0070084Y0228768D01*
X0070107Y0228687D01*
X0070127Y0228606D01*
X0070142Y0228524D01*
X0070154Y0228442D01*
X0070162Y0228359D01*
X0070166Y0228276D01*
X0070166Y0228192D01*
X0070162Y0228109D01*
X0070154Y0228026D01*
X0070142Y0227944D01*
X0070127Y0227862D01*
X0070107Y0227781D01*
X0070084Y0227700D01*
X0070057Y0227622D01*
X0070027Y0227544D01*
X0069992Y0227468D01*
X0069955Y0227394D01*
X0069914Y0227321D01*
X0069869Y0227251D01*
X0069822Y0227182D01*
X0069771Y0227116D01*
X0069717Y0227053D01*
X0069660Y0226992D01*
X0069600Y0226933D01*
X0069538Y0226878D01*
X0069473Y0226826D01*
X0069406Y0226776D01*
X0069336Y0226730D01*
X0069265Y0226687D01*
X0069191Y0226648D01*
X0069116Y0226612D01*
X0069039Y0226580D01*
X0068961Y0226551D01*
X0068882Y0226526D01*
X0068801Y0226505D01*
X0068720Y0226487D01*
X0068637Y0226474D01*
X0068554Y0226464D01*
X0068471Y0226458D01*
X0068388Y0226456D01*
X0063765Y0232405D02*
X0063765Y0235961D01*
X0063765Y0234183D02*
X0070165Y0234183D01*
X0058465Y0236261D02*
X0058465Y0226261D01*
X0038465Y0226261D01*
X0038465Y0236261D01*
X0058465Y0236261D01*
X0047758Y0231258D02*
X0044736Y0227702D01*
X0048292Y0227702D01*
X0044736Y0232680D02*
X0044765Y0232765D01*
X0044798Y0232848D01*
X0044835Y0232929D01*
X0044875Y0233009D01*
X0044918Y0233086D01*
X0044965Y0233162D01*
X0045015Y0233236D01*
X0045068Y0233308D01*
X0045124Y0233377D01*
X0045183Y0233444D01*
X0045245Y0233508D01*
X0045310Y0233569D01*
X0045377Y0233628D01*
X0045447Y0233683D01*
X0045519Y0233736D01*
X0045593Y0233785D01*
X0045670Y0233831D01*
X0045748Y0233873D01*
X0045828Y0233913D01*
X0045910Y0233948D01*
X0045993Y0233981D01*
X0046077Y0234009D01*
X0046163Y0234034D01*
X0046250Y0234055D01*
X0046337Y0234072D01*
X0046425Y0234086D01*
X0046514Y0234095D01*
X0046603Y0234101D01*
X0046692Y0234103D01*
X0046692Y0234102D02*
X0046771Y0234100D01*
X0046849Y0234094D01*
X0046927Y0234085D01*
X0047004Y0234071D01*
X0047081Y0234054D01*
X0047156Y0234033D01*
X0047231Y0234008D01*
X0047304Y0233980D01*
X0047376Y0233948D01*
X0047446Y0233913D01*
X0047515Y0233874D01*
X0047581Y0233832D01*
X0047645Y0233787D01*
X0047707Y0233739D01*
X0047766Y0233688D01*
X0047823Y0233633D01*
X0047878Y0233576D01*
X0047929Y0233517D01*
X0047977Y0233455D01*
X0048022Y0233391D01*
X0048064Y0233325D01*
X0048103Y0233256D01*
X0048138Y0233186D01*
X0048170Y0233114D01*
X0048198Y0233041D01*
X0048223Y0232966D01*
X0048244Y0232891D01*
X0048261Y0232814D01*
X0048275Y0232737D01*
X0048284Y0232659D01*
X0048290Y0232581D01*
X0048292Y0232502D01*
X0048290Y0232420D01*
X0048284Y0232338D01*
X0048274Y0232257D01*
X0048261Y0232176D01*
X0048243Y0232096D01*
X0048222Y0232017D01*
X0048197Y0231939D01*
X0048169Y0231863D01*
X0048136Y0231787D01*
X0048101Y0231714D01*
X0048061Y0231642D01*
X0048019Y0231572D01*
X0047973Y0231504D01*
X0047924Y0231439D01*
X0047872Y0231376D01*
X0047816Y0231315D01*
X0047759Y0231257D01*
X0042437Y0234102D02*
X0041014Y0234102D01*
X0040940Y0234100D01*
X0040865Y0234094D01*
X0040792Y0234084D01*
X0040718Y0234071D01*
X0040646Y0234054D01*
X0040575Y0234032D01*
X0040504Y0234008D01*
X0040436Y0233979D01*
X0040368Y0233947D01*
X0040303Y0233911D01*
X0040240Y0233873D01*
X0040178Y0233830D01*
X0040119Y0233785D01*
X0040062Y0233737D01*
X0040008Y0233686D01*
X0039957Y0233631D01*
X0039909Y0233575D01*
X0039864Y0233516D01*
X0039821Y0233454D01*
X0039783Y0233391D01*
X0039747Y0233326D01*
X0039715Y0233258D01*
X0039686Y0233190D01*
X0039662Y0233119D01*
X0039640Y0233048D01*
X0039623Y0232976D01*
X0039610Y0232902D01*
X0039600Y0232829D01*
X0039594Y0232754D01*
X0039592Y0232680D01*
X0039592Y0229125D01*
X0039594Y0229051D01*
X0039600Y0228976D01*
X0039610Y0228903D01*
X0039623Y0228829D01*
X0039640Y0228757D01*
X0039662Y0228686D01*
X0039686Y0228615D01*
X0039715Y0228547D01*
X0039747Y0228479D01*
X0039783Y0228414D01*
X0039821Y0228351D01*
X0039864Y0228289D01*
X0039909Y0228230D01*
X0039957Y0228173D01*
X0040008Y0228119D01*
X0040062Y0228068D01*
X0040119Y0228020D01*
X0040178Y0227975D01*
X0040240Y0227932D01*
X0040303Y0227894D01*
X0040368Y0227858D01*
X0040436Y0227826D01*
X0040504Y0227797D01*
X0040575Y0227773D01*
X0040646Y0227751D01*
X0040718Y0227734D01*
X0040792Y0227721D01*
X0040865Y0227711D01*
X0040940Y0227705D01*
X0041014Y0227703D01*
X0041014Y0227702D02*
X0042437Y0227702D01*
X0097148Y0227978D02*
X0097148Y0225134D01*
X0097147Y0225134D02*
X0097149Y0225051D01*
X0097155Y0224968D01*
X0097165Y0224885D01*
X0097178Y0224802D01*
X0097196Y0224721D01*
X0097217Y0224640D01*
X0097242Y0224561D01*
X0097271Y0224483D01*
X0097303Y0224406D01*
X0097339Y0224331D01*
X0097378Y0224257D01*
X0097421Y0224186D01*
X0097467Y0224116D01*
X0097517Y0224049D01*
X0097569Y0223984D01*
X0097624Y0223922D01*
X0097683Y0223862D01*
X0097744Y0223805D01*
X0097807Y0223751D01*
X0097873Y0223700D01*
X0097942Y0223653D01*
X0098012Y0223608D01*
X0098085Y0223567D01*
X0098159Y0223530D01*
X0098235Y0223495D01*
X0098313Y0223465D01*
X0098391Y0223438D01*
X0098472Y0223415D01*
X0098553Y0223395D01*
X0098635Y0223380D01*
X0098717Y0223368D01*
X0098800Y0223360D01*
X0098883Y0223356D01*
X0098967Y0223356D01*
X0099050Y0223360D01*
X0099133Y0223368D01*
X0099215Y0223380D01*
X0099297Y0223395D01*
X0099378Y0223415D01*
X0099459Y0223438D01*
X0099537Y0223465D01*
X0099615Y0223495D01*
X0099691Y0223530D01*
X0099765Y0223567D01*
X0099838Y0223608D01*
X0099908Y0223653D01*
X0099977Y0223700D01*
X0100043Y0223751D01*
X0100106Y0223805D01*
X0100167Y0223862D01*
X0100226Y0223922D01*
X0100281Y0223984D01*
X0100333Y0224049D01*
X0100383Y0224116D01*
X0100429Y0224186D01*
X0100472Y0224257D01*
X0100511Y0224331D01*
X0100547Y0224406D01*
X0100579Y0224483D01*
X0100608Y0224561D01*
X0100633Y0224640D01*
X0100654Y0224721D01*
X0100672Y0224802D01*
X0100685Y0224885D01*
X0100695Y0224968D01*
X0100701Y0225051D01*
X0100703Y0225134D01*
X0100703Y0227978D01*
X0100701Y0228061D01*
X0100695Y0228144D01*
X0100685Y0228227D01*
X0100672Y0228310D01*
X0100654Y0228391D01*
X0100633Y0228472D01*
X0100608Y0228551D01*
X0100579Y0228629D01*
X0100547Y0228706D01*
X0100511Y0228781D01*
X0100472Y0228855D01*
X0100429Y0228926D01*
X0100383Y0228996D01*
X0100333Y0229063D01*
X0100281Y0229128D01*
X0100226Y0229190D01*
X0100167Y0229250D01*
X0100106Y0229307D01*
X0100043Y0229361D01*
X0099977Y0229412D01*
X0099908Y0229459D01*
X0099838Y0229504D01*
X0099765Y0229545D01*
X0099691Y0229582D01*
X0099615Y0229617D01*
X0099537Y0229647D01*
X0099459Y0229674D01*
X0099378Y0229697D01*
X0099297Y0229717D01*
X0099215Y0229732D01*
X0099133Y0229744D01*
X0099050Y0229752D01*
X0098967Y0229756D01*
X0098883Y0229756D01*
X0098800Y0229752D01*
X0098717Y0229744D01*
X0098635Y0229732D01*
X0098553Y0229717D01*
X0098472Y0229697D01*
X0098391Y0229674D01*
X0098313Y0229647D01*
X0098235Y0229617D01*
X0098159Y0229582D01*
X0098085Y0229545D01*
X0098012Y0229504D01*
X0097942Y0229459D01*
X0097873Y0229412D01*
X0097807Y0229361D01*
X0097744Y0229307D01*
X0097683Y0229250D01*
X0097624Y0229190D01*
X0097569Y0229128D01*
X0097517Y0229063D01*
X0097467Y0228996D01*
X0097421Y0228926D01*
X0097378Y0228855D01*
X0097339Y0228781D01*
X0097303Y0228706D01*
X0097271Y0228629D01*
X0097242Y0228551D01*
X0097217Y0228472D01*
X0097196Y0228391D01*
X0097178Y0228310D01*
X0097165Y0228227D01*
X0097155Y0228144D01*
X0097149Y0228061D01*
X0097147Y0227978D01*
X0103507Y0229756D02*
X0103507Y0225134D01*
X0103509Y0225051D01*
X0103515Y0224968D01*
X0103525Y0224885D01*
X0103538Y0224802D01*
X0103556Y0224721D01*
X0103577Y0224640D01*
X0103602Y0224561D01*
X0103631Y0224483D01*
X0103663Y0224406D01*
X0103699Y0224331D01*
X0103738Y0224257D01*
X0103781Y0224186D01*
X0103827Y0224116D01*
X0103877Y0224049D01*
X0103929Y0223984D01*
X0103984Y0223922D01*
X0104043Y0223862D01*
X0104104Y0223805D01*
X0104167Y0223751D01*
X0104233Y0223700D01*
X0104302Y0223653D01*
X0104372Y0223608D01*
X0104445Y0223567D01*
X0104519Y0223530D01*
X0104595Y0223495D01*
X0104673Y0223465D01*
X0104751Y0223438D01*
X0104832Y0223415D01*
X0104913Y0223395D01*
X0104995Y0223380D01*
X0105077Y0223368D01*
X0105160Y0223360D01*
X0105243Y0223356D01*
X0105327Y0223356D01*
X0105410Y0223360D01*
X0105493Y0223368D01*
X0105575Y0223380D01*
X0105657Y0223395D01*
X0105738Y0223415D01*
X0105819Y0223438D01*
X0105897Y0223465D01*
X0105975Y0223495D01*
X0106051Y0223530D01*
X0106125Y0223567D01*
X0106198Y0223608D01*
X0106268Y0223653D01*
X0106337Y0223700D01*
X0106403Y0223751D01*
X0106466Y0223805D01*
X0106527Y0223862D01*
X0106586Y0223922D01*
X0106641Y0223984D01*
X0106693Y0224049D01*
X0106743Y0224116D01*
X0106789Y0224186D01*
X0106832Y0224257D01*
X0106871Y0224331D01*
X0106907Y0224406D01*
X0106939Y0224483D01*
X0106968Y0224561D01*
X0106993Y0224640D01*
X0107014Y0224721D01*
X0107032Y0224802D01*
X0107045Y0224885D01*
X0107055Y0224968D01*
X0107061Y0225051D01*
X0107063Y0225134D01*
X0107062Y0225134D02*
X0107062Y0229756D01*
X0109456Y0229756D02*
X0113011Y0229756D01*
X0111234Y0229756D02*
X0111234Y0223356D01*
X0150198Y0234017D02*
X0170198Y0234017D01*
X0170198Y0154017D01*
X0150198Y0154017D01*
X0150198Y0234017D01*
X0151920Y0239317D02*
X0153342Y0239317D01*
X0151920Y0239317D02*
X0151846Y0239319D01*
X0151771Y0239325D01*
X0151698Y0239335D01*
X0151624Y0239348D01*
X0151552Y0239365D01*
X0151481Y0239387D01*
X0151410Y0239411D01*
X0151342Y0239440D01*
X0151274Y0239472D01*
X0151209Y0239508D01*
X0151146Y0239546D01*
X0151084Y0239589D01*
X0151025Y0239634D01*
X0150968Y0239682D01*
X0150914Y0239733D01*
X0150863Y0239787D01*
X0150815Y0239844D01*
X0150770Y0239903D01*
X0150727Y0239965D01*
X0150689Y0240028D01*
X0150653Y0240093D01*
X0150621Y0240161D01*
X0150592Y0240229D01*
X0150568Y0240300D01*
X0150546Y0240371D01*
X0150529Y0240443D01*
X0150516Y0240517D01*
X0150506Y0240590D01*
X0150500Y0240665D01*
X0150498Y0240739D01*
X0150498Y0244294D01*
X0150500Y0244368D01*
X0150506Y0244443D01*
X0150516Y0244516D01*
X0150529Y0244590D01*
X0150546Y0244662D01*
X0150568Y0244733D01*
X0150592Y0244804D01*
X0150621Y0244872D01*
X0150653Y0244940D01*
X0150689Y0245005D01*
X0150727Y0245068D01*
X0150770Y0245130D01*
X0150815Y0245189D01*
X0150863Y0245246D01*
X0150914Y0245300D01*
X0150968Y0245351D01*
X0151025Y0245399D01*
X0151084Y0245444D01*
X0151146Y0245487D01*
X0151209Y0245525D01*
X0151274Y0245561D01*
X0151342Y0245593D01*
X0151410Y0245622D01*
X0151481Y0245646D01*
X0151552Y0245668D01*
X0151624Y0245685D01*
X0151698Y0245698D01*
X0151771Y0245708D01*
X0151846Y0245714D01*
X0151920Y0245716D01*
X0151920Y0245717D02*
X0153342Y0245717D01*
X0155642Y0244294D02*
X0157419Y0245717D01*
X0157419Y0239317D01*
X0155642Y0239317D02*
X0159197Y0239317D01*
X0152394Y0162213D02*
X0150616Y0162213D01*
X0150616Y0155813D01*
X0152394Y0155813D01*
X0152394Y0155812D02*
X0152477Y0155814D01*
X0152560Y0155820D01*
X0152643Y0155830D01*
X0152726Y0155843D01*
X0152807Y0155861D01*
X0152888Y0155882D01*
X0152967Y0155907D01*
X0153045Y0155936D01*
X0153122Y0155968D01*
X0153197Y0156004D01*
X0153271Y0156043D01*
X0153342Y0156086D01*
X0153412Y0156132D01*
X0153479Y0156182D01*
X0153544Y0156234D01*
X0153606Y0156289D01*
X0153666Y0156348D01*
X0153723Y0156409D01*
X0153777Y0156472D01*
X0153828Y0156538D01*
X0153875Y0156607D01*
X0153920Y0156677D01*
X0153961Y0156750D01*
X0153998Y0156824D01*
X0154033Y0156900D01*
X0154063Y0156978D01*
X0154090Y0157056D01*
X0154113Y0157137D01*
X0154133Y0157218D01*
X0154148Y0157300D01*
X0154160Y0157382D01*
X0154168Y0157465D01*
X0154172Y0157548D01*
X0154172Y0157632D01*
X0154168Y0157715D01*
X0154160Y0157798D01*
X0154148Y0157880D01*
X0154133Y0157962D01*
X0154113Y0158043D01*
X0154090Y0158124D01*
X0154063Y0158202D01*
X0154033Y0158280D01*
X0153998Y0158356D01*
X0153961Y0158430D01*
X0153920Y0158503D01*
X0153875Y0158573D01*
X0153828Y0158642D01*
X0153777Y0158708D01*
X0153723Y0158771D01*
X0153666Y0158832D01*
X0153606Y0158891D01*
X0153544Y0158946D01*
X0153479Y0158998D01*
X0153412Y0159048D01*
X0153342Y0159094D01*
X0153271Y0159137D01*
X0153197Y0159176D01*
X0153122Y0159212D01*
X0153045Y0159244D01*
X0152967Y0159273D01*
X0152888Y0159298D01*
X0152807Y0159319D01*
X0152726Y0159337D01*
X0152643Y0159350D01*
X0152560Y0159360D01*
X0152477Y0159366D01*
X0152394Y0159368D01*
X0150616Y0159368D01*
X0152394Y0159368D02*
X0152468Y0159370D01*
X0152543Y0159376D01*
X0152616Y0159386D01*
X0152690Y0159399D01*
X0152762Y0159416D01*
X0152833Y0159438D01*
X0152904Y0159462D01*
X0152972Y0159491D01*
X0153040Y0159523D01*
X0153105Y0159559D01*
X0153168Y0159597D01*
X0153230Y0159640D01*
X0153289Y0159685D01*
X0153346Y0159733D01*
X0153400Y0159784D01*
X0153451Y0159838D01*
X0153499Y0159895D01*
X0153544Y0159954D01*
X0153587Y0160016D01*
X0153625Y0160079D01*
X0153661Y0160144D01*
X0153693Y0160212D01*
X0153722Y0160280D01*
X0153746Y0160351D01*
X0153768Y0160422D01*
X0153785Y0160494D01*
X0153798Y0160568D01*
X0153808Y0160641D01*
X0153814Y0160716D01*
X0153816Y0160790D01*
X0153814Y0160864D01*
X0153808Y0160939D01*
X0153798Y0161012D01*
X0153785Y0161086D01*
X0153768Y0161158D01*
X0153746Y0161229D01*
X0153722Y0161300D01*
X0153693Y0161368D01*
X0153661Y0161436D01*
X0153625Y0161501D01*
X0153587Y0161564D01*
X0153544Y0161626D01*
X0153499Y0161685D01*
X0153451Y0161742D01*
X0153400Y0161796D01*
X0153346Y0161847D01*
X0153289Y0161895D01*
X0153230Y0161940D01*
X0153168Y0161983D01*
X0153105Y0162021D01*
X0153040Y0162057D01*
X0152972Y0162089D01*
X0152904Y0162118D01*
X0152833Y0162142D01*
X0152762Y0162164D01*
X0152690Y0162181D01*
X0152616Y0162194D01*
X0152543Y0162204D01*
X0152468Y0162210D01*
X0152394Y0162212D01*
X0159505Y0159368D02*
X0159562Y0159426D01*
X0159618Y0159487D01*
X0159670Y0159550D01*
X0159719Y0159615D01*
X0159765Y0159683D01*
X0159807Y0159753D01*
X0159847Y0159825D01*
X0159882Y0159898D01*
X0159915Y0159974D01*
X0159943Y0160050D01*
X0159968Y0160128D01*
X0159989Y0160207D01*
X0160007Y0160287D01*
X0160020Y0160368D01*
X0160030Y0160449D01*
X0160036Y0160531D01*
X0160038Y0160613D01*
X0159504Y0159368D02*
X0156482Y0155813D01*
X0160037Y0155813D01*
X0156481Y0160790D02*
X0156510Y0160875D01*
X0156543Y0160958D01*
X0156580Y0161039D01*
X0156620Y0161119D01*
X0156663Y0161196D01*
X0156710Y0161272D01*
X0156760Y0161346D01*
X0156813Y0161418D01*
X0156869Y0161487D01*
X0156928Y0161554D01*
X0156990Y0161618D01*
X0157055Y0161679D01*
X0157122Y0161738D01*
X0157192Y0161793D01*
X0157264Y0161846D01*
X0157338Y0161895D01*
X0157415Y0161941D01*
X0157493Y0161983D01*
X0157573Y0162023D01*
X0157655Y0162058D01*
X0157738Y0162091D01*
X0157822Y0162119D01*
X0157908Y0162144D01*
X0157995Y0162165D01*
X0158082Y0162182D01*
X0158170Y0162196D01*
X0158259Y0162205D01*
X0158348Y0162211D01*
X0158437Y0162213D01*
X0158516Y0162211D01*
X0158594Y0162205D01*
X0158672Y0162196D01*
X0158749Y0162182D01*
X0158826Y0162165D01*
X0158901Y0162144D01*
X0158976Y0162119D01*
X0159049Y0162091D01*
X0159121Y0162059D01*
X0159191Y0162024D01*
X0159260Y0161985D01*
X0159326Y0161943D01*
X0159390Y0161898D01*
X0159452Y0161850D01*
X0159511Y0161799D01*
X0159568Y0161744D01*
X0159623Y0161687D01*
X0159674Y0161628D01*
X0159722Y0161566D01*
X0159767Y0161502D01*
X0159809Y0161436D01*
X0159848Y0161367D01*
X0159883Y0161297D01*
X0159915Y0161225D01*
X0159943Y0161152D01*
X0159968Y0161077D01*
X0159989Y0161002D01*
X0160006Y0160925D01*
X0160020Y0160848D01*
X0160029Y0160770D01*
X0160035Y0160692D01*
X0160037Y0160613D01*
X0150316Y0150513D02*
X0170316Y0150513D01*
X0170316Y0110513D01*
X0150316Y0110513D01*
X0150316Y0150513D01*
X0173234Y0106428D02*
X0173234Y0104295D01*
X0173234Y0106428D02*
X0173236Y0106502D01*
X0173242Y0106577D01*
X0173252Y0106650D01*
X0173265Y0106724D01*
X0173282Y0106796D01*
X0173304Y0106867D01*
X0173328Y0106938D01*
X0173357Y0107006D01*
X0173389Y0107074D01*
X0173425Y0107139D01*
X0173463Y0107202D01*
X0173506Y0107264D01*
X0173551Y0107323D01*
X0173599Y0107380D01*
X0173650Y0107434D01*
X0173704Y0107485D01*
X0173761Y0107533D01*
X0173820Y0107578D01*
X0173882Y0107621D01*
X0173945Y0107659D01*
X0174010Y0107695D01*
X0174078Y0107727D01*
X0174146Y0107756D01*
X0174217Y0107780D01*
X0174288Y0107802D01*
X0174360Y0107819D01*
X0174434Y0107832D01*
X0174507Y0107842D01*
X0174582Y0107848D01*
X0174656Y0107850D01*
X0174730Y0107848D01*
X0174805Y0107842D01*
X0174878Y0107832D01*
X0174952Y0107819D01*
X0175024Y0107802D01*
X0175095Y0107780D01*
X0175166Y0107756D01*
X0175234Y0107727D01*
X0175302Y0107695D01*
X0175367Y0107659D01*
X0175430Y0107621D01*
X0175492Y0107578D01*
X0175551Y0107533D01*
X0175608Y0107485D01*
X0175662Y0107434D01*
X0175713Y0107380D01*
X0175761Y0107323D01*
X0175806Y0107264D01*
X0175849Y0107202D01*
X0175887Y0107139D01*
X0175923Y0107074D01*
X0175955Y0107006D01*
X0175984Y0106938D01*
X0176008Y0106867D01*
X0176030Y0106796D01*
X0176047Y0106724D01*
X0176060Y0106650D01*
X0176070Y0106577D01*
X0176076Y0106502D01*
X0176078Y0106428D01*
X0176078Y0105006D01*
X0176078Y0106073D02*
X0176080Y0106156D01*
X0176086Y0106239D01*
X0176096Y0106322D01*
X0176109Y0106405D01*
X0176127Y0106486D01*
X0176148Y0106567D01*
X0176173Y0106646D01*
X0176202Y0106724D01*
X0176234Y0106801D01*
X0176270Y0106876D01*
X0176309Y0106950D01*
X0176352Y0107021D01*
X0176398Y0107091D01*
X0176448Y0107158D01*
X0176500Y0107223D01*
X0176555Y0107285D01*
X0176614Y0107345D01*
X0176675Y0107402D01*
X0176738Y0107456D01*
X0176804Y0107507D01*
X0176873Y0107554D01*
X0176943Y0107599D01*
X0177016Y0107640D01*
X0177090Y0107677D01*
X0177166Y0107712D01*
X0177244Y0107742D01*
X0177322Y0107769D01*
X0177403Y0107792D01*
X0177484Y0107812D01*
X0177566Y0107827D01*
X0177648Y0107839D01*
X0177731Y0107847D01*
X0177814Y0107851D01*
X0177898Y0107851D01*
X0177981Y0107847D01*
X0178064Y0107839D01*
X0178146Y0107827D01*
X0178228Y0107812D01*
X0178309Y0107792D01*
X0178390Y0107769D01*
X0178468Y0107742D01*
X0178546Y0107712D01*
X0178622Y0107677D01*
X0178696Y0107640D01*
X0178769Y0107599D01*
X0178839Y0107554D01*
X0178908Y0107507D01*
X0178974Y0107456D01*
X0179037Y0107402D01*
X0179098Y0107345D01*
X0179157Y0107285D01*
X0179212Y0107223D01*
X0179264Y0107158D01*
X0179314Y0107091D01*
X0179360Y0107021D01*
X0179403Y0106950D01*
X0179442Y0106876D01*
X0179478Y0106801D01*
X0179510Y0106724D01*
X0179539Y0106646D01*
X0179564Y0106567D01*
X0179585Y0106486D01*
X0179603Y0106405D01*
X0179616Y0106322D01*
X0179626Y0106239D01*
X0179632Y0106156D01*
X0179634Y0106073D01*
X0179634Y0104295D01*
X0178212Y0101901D02*
X0178286Y0101899D01*
X0178361Y0101893D01*
X0178434Y0101883D01*
X0178508Y0101870D01*
X0178580Y0101853D01*
X0178651Y0101831D01*
X0178722Y0101807D01*
X0178790Y0101778D01*
X0178858Y0101746D01*
X0178923Y0101710D01*
X0178986Y0101672D01*
X0179048Y0101629D01*
X0179107Y0101584D01*
X0179164Y0101536D01*
X0179218Y0101485D01*
X0179269Y0101431D01*
X0179317Y0101374D01*
X0179362Y0101315D01*
X0179405Y0101253D01*
X0179443Y0101190D01*
X0179479Y0101125D01*
X0179511Y0101057D01*
X0179540Y0100989D01*
X0179564Y0100918D01*
X0179586Y0100847D01*
X0179603Y0100775D01*
X0179616Y0100701D01*
X0179626Y0100628D01*
X0179632Y0100553D01*
X0179634Y0100479D01*
X0178212Y0101901D02*
X0178137Y0101899D01*
X0178062Y0101893D01*
X0177988Y0101884D01*
X0177914Y0101870D01*
X0177841Y0101853D01*
X0177769Y0101832D01*
X0177699Y0101807D01*
X0177629Y0101778D01*
X0177562Y0101746D01*
X0177496Y0101711D01*
X0177431Y0101672D01*
X0177369Y0101630D01*
X0177310Y0101584D01*
X0177252Y0101536D01*
X0177198Y0101485D01*
X0177146Y0101431D01*
X0177097Y0101374D01*
X0177051Y0101315D01*
X0177008Y0101254D01*
X0176968Y0101190D01*
X0176967Y0101190D02*
X0175901Y0099235D01*
X0173233Y0099946D02*
X0173235Y0100047D01*
X0173241Y0100148D01*
X0173250Y0100248D01*
X0173264Y0100348D01*
X0173281Y0100448D01*
X0173301Y0100547D01*
X0173326Y0100644D01*
X0173354Y0100741D01*
X0173386Y0100837D01*
X0173422Y0100932D01*
X0173461Y0101025D01*
X0173503Y0101116D01*
X0173549Y0101206D01*
X0173599Y0101294D01*
X0173651Y0101380D01*
X0173707Y0101464D01*
X0173766Y0101546D01*
X0175900Y0099235D02*
X0175860Y0099171D01*
X0175817Y0099110D01*
X0175771Y0099051D01*
X0175722Y0098994D01*
X0175670Y0098940D01*
X0175616Y0098889D01*
X0175558Y0098841D01*
X0175499Y0098795D01*
X0175437Y0098753D01*
X0175372Y0098714D01*
X0175306Y0098679D01*
X0175239Y0098647D01*
X0175169Y0098618D01*
X0175099Y0098593D01*
X0175027Y0098572D01*
X0174954Y0098555D01*
X0174880Y0098541D01*
X0174806Y0098532D01*
X0174731Y0098526D01*
X0174656Y0098524D01*
X0174582Y0098526D01*
X0174507Y0098532D01*
X0174434Y0098542D01*
X0174360Y0098555D01*
X0174288Y0098572D01*
X0174217Y0098594D01*
X0174146Y0098618D01*
X0174078Y0098647D01*
X0174010Y0098679D01*
X0173945Y0098715D01*
X0173882Y0098753D01*
X0173820Y0098796D01*
X0173761Y0098841D01*
X0173704Y0098889D01*
X0173650Y0098940D01*
X0173599Y0098994D01*
X0173551Y0099051D01*
X0173506Y0099110D01*
X0173463Y0099172D01*
X0173425Y0099235D01*
X0173389Y0099300D01*
X0173357Y0099368D01*
X0173328Y0099436D01*
X0173304Y0099507D01*
X0173282Y0099578D01*
X0173265Y0099650D01*
X0173252Y0099724D01*
X0173242Y0099797D01*
X0173236Y0099872D01*
X0173234Y0099946D01*
X0178744Y0098346D02*
X0178819Y0098423D01*
X0178892Y0098503D01*
X0178961Y0098586D01*
X0179028Y0098671D01*
X0179091Y0098758D01*
X0179151Y0098847D01*
X0179208Y0098939D01*
X0179262Y0099032D01*
X0179312Y0099128D01*
X0179359Y0099225D01*
X0179402Y0099324D01*
X0179442Y0099424D01*
X0179478Y0099525D01*
X0179510Y0099628D01*
X0179539Y0099732D01*
X0179564Y0099837D01*
X0179585Y0099943D01*
X0179602Y0100049D01*
X0179616Y0100156D01*
X0179625Y0100264D01*
X0179631Y0100371D01*
X0179633Y0100479D01*
X0159244Y0076780D02*
X0159244Y0070380D01*
X0161021Y0070380D02*
X0157466Y0070380D01*
X0153378Y0070380D02*
X0151600Y0070380D01*
X0151600Y0076780D01*
X0153378Y0076780D01*
X0153378Y0076779D02*
X0153452Y0076777D01*
X0153527Y0076771D01*
X0153600Y0076761D01*
X0153674Y0076748D01*
X0153746Y0076731D01*
X0153817Y0076709D01*
X0153888Y0076685D01*
X0153956Y0076656D01*
X0154024Y0076624D01*
X0154089Y0076588D01*
X0154152Y0076550D01*
X0154214Y0076507D01*
X0154273Y0076462D01*
X0154330Y0076414D01*
X0154384Y0076363D01*
X0154435Y0076309D01*
X0154483Y0076252D01*
X0154528Y0076193D01*
X0154571Y0076131D01*
X0154609Y0076068D01*
X0154645Y0076003D01*
X0154677Y0075935D01*
X0154706Y0075867D01*
X0154730Y0075796D01*
X0154752Y0075725D01*
X0154769Y0075653D01*
X0154782Y0075579D01*
X0154792Y0075506D01*
X0154798Y0075431D01*
X0154800Y0075357D01*
X0154798Y0075283D01*
X0154792Y0075208D01*
X0154782Y0075135D01*
X0154769Y0075061D01*
X0154752Y0074989D01*
X0154730Y0074918D01*
X0154706Y0074847D01*
X0154677Y0074779D01*
X0154645Y0074711D01*
X0154609Y0074646D01*
X0154571Y0074583D01*
X0154528Y0074521D01*
X0154483Y0074462D01*
X0154435Y0074405D01*
X0154384Y0074351D01*
X0154330Y0074300D01*
X0154273Y0074252D01*
X0154214Y0074207D01*
X0154152Y0074164D01*
X0154089Y0074126D01*
X0154024Y0074090D01*
X0153956Y0074058D01*
X0153888Y0074029D01*
X0153817Y0074005D01*
X0153746Y0073983D01*
X0153674Y0073966D01*
X0153600Y0073953D01*
X0153527Y0073943D01*
X0153452Y0073937D01*
X0153378Y0073935D01*
X0151600Y0073935D01*
X0153378Y0073935D02*
X0153461Y0073933D01*
X0153544Y0073927D01*
X0153627Y0073917D01*
X0153710Y0073904D01*
X0153791Y0073886D01*
X0153872Y0073865D01*
X0153951Y0073840D01*
X0154029Y0073811D01*
X0154106Y0073779D01*
X0154181Y0073743D01*
X0154255Y0073704D01*
X0154326Y0073661D01*
X0154396Y0073615D01*
X0154463Y0073565D01*
X0154528Y0073513D01*
X0154590Y0073458D01*
X0154650Y0073399D01*
X0154707Y0073338D01*
X0154761Y0073275D01*
X0154812Y0073209D01*
X0154859Y0073140D01*
X0154904Y0073070D01*
X0154945Y0072997D01*
X0154982Y0072923D01*
X0155017Y0072847D01*
X0155047Y0072769D01*
X0155074Y0072691D01*
X0155097Y0072610D01*
X0155117Y0072529D01*
X0155132Y0072447D01*
X0155144Y0072365D01*
X0155152Y0072282D01*
X0155156Y0072199D01*
X0155156Y0072115D01*
X0155152Y0072032D01*
X0155144Y0071949D01*
X0155132Y0071867D01*
X0155117Y0071785D01*
X0155097Y0071704D01*
X0155074Y0071623D01*
X0155047Y0071545D01*
X0155017Y0071467D01*
X0154982Y0071391D01*
X0154945Y0071317D01*
X0154904Y0071244D01*
X0154859Y0071174D01*
X0154812Y0071105D01*
X0154761Y0071039D01*
X0154707Y0070976D01*
X0154650Y0070915D01*
X0154590Y0070856D01*
X0154528Y0070801D01*
X0154463Y0070749D01*
X0154396Y0070699D01*
X0154326Y0070653D01*
X0154255Y0070610D01*
X0154181Y0070571D01*
X0154106Y0070535D01*
X0154029Y0070503D01*
X0153951Y0070474D01*
X0153872Y0070449D01*
X0153791Y0070428D01*
X0153710Y0070410D01*
X0153627Y0070397D01*
X0153544Y0070387D01*
X0153461Y0070381D01*
X0153378Y0070379D01*
X0151300Y0065080D02*
X0171300Y0065080D01*
X0171300Y0025080D01*
X0151300Y0025080D01*
X0151300Y0065080D01*
X0157466Y0075357D02*
X0159244Y0076780D01*
X0108888Y0074756D02*
X0108888Y0068356D01*
X0105333Y0074756D01*
X0105333Y0068356D01*
X0102693Y0068356D02*
X0101271Y0068356D01*
X0101982Y0068356D02*
X0101982Y0074756D01*
X0101271Y0074756D02*
X0102693Y0074756D01*
D14*
X0150434Y0068150D02*
X0150434Y0108150D01*
X0170434Y0108150D01*
X0170434Y0068150D01*
X0150434Y0068150D01*
D15*
X0132580Y0071556D02*
X0127580Y0071556D01*
X0082580Y0071556D02*
X0077580Y0071556D01*
X0080080Y0069056D02*
X0080080Y0074056D01*
X0080080Y0224056D02*
X0080080Y0229056D01*
X0077580Y0226556D02*
X0082580Y0226556D01*
X0127580Y0226556D02*
X0132580Y0226556D01*
M02*
