%
M48
M72
T01C0.03150
T02C0.03937
T03C0.04000
T04C0.04331
T05C0.05906
T06C0.08000
T07C0.11811
%
T01
X45316Y74883
X45316Y84725
T02
X52087Y34922
X62087Y34922
X72087Y34922
X91851Y43820
X91064Y59568
X108387Y54843
X111654Y34922
X121654Y34922
X131654Y34922
X111930Y88308
X82796Y125316
X111536Y167835
X133583Y167835
X141851Y174922
X143032Y145001
X104450Y200513
T03
X53465Y231261
X43465Y231261
T04
X160434Y98150
X160434Y88150
X160434Y78150
T05
X139080Y71056
X71080Y71056
X71080Y227056
X139080Y227056
T06
X160198Y224017
X160198Y204017
X160198Y184017
X160198Y164017
X160316Y140513
X160316Y120513
X161300Y55080
X161300Y35080
X48702Y109095
X48702Y129095
X49292Y152402
X49292Y172402
X49292Y192402
X49292Y212402
T07
X135080Y209056
X75080Y92056
M30
