G75*
%MOIN*%
%OFA0B0*%
%FSLAX25Y25*%
%IPPOS*%
%LPD*%
%AMOC8*
5,1,8,0,0,1.08239X$1,22.5*
%
%ADD10R,0.06737X0.06737*%
%ADD11C,0.06737*%
%ADD12R,0.12800X0.12800*%
%ADD13C,0.12800*%
%ADD14C,0.05950*%
%ADD15C,0.07296*%
%ADD16R,0.10643X0.10643*%
%ADD17C,0.12611*%
%ADD18R,0.06800X0.06800*%
%ADD19C,0.06800*%
%ADD20C,0.06706*%
D10*
X0052087Y0034922D03*
X0111654Y0034922D03*
D11*
X0121654Y0034922D03*
X0131654Y0034922D03*
X0072087Y0034922D03*
X0062087Y0034922D03*
D12*
X0048702Y0109095D03*
X0049292Y0152402D03*
X0160198Y0164017D03*
X0160316Y0120513D03*
X0161300Y0035080D03*
D13*
X0161300Y0055080D03*
X0160316Y0140513D03*
X0160198Y0184017D03*
X0160198Y0204017D03*
X0160198Y0224017D03*
X0049292Y0212402D03*
X0049292Y0192402D03*
X0049292Y0172402D03*
X0048702Y0129095D03*
D14*
X0047891Y0084725D02*
X0042741Y0084725D01*
X0042741Y0074883D02*
X0047891Y0074883D01*
D15*
X0157186Y0078150D02*
X0163682Y0078150D01*
X0163682Y0088150D02*
X0157186Y0088150D01*
X0157186Y0098150D02*
X0163682Y0098150D01*
D16*
X0139080Y0071056D03*
X0071080Y0071056D03*
X0071080Y0227056D03*
X0139080Y0227056D03*
D17*
X0135080Y0209056D03*
X0075080Y0092056D03*
D18*
X0043465Y0231261D03*
D19*
X0053465Y0231261D03*
D20*
X0104450Y0200513D03*
X0111536Y0167835D03*
X0133583Y0167835D03*
X0141851Y0174922D03*
X0143032Y0145001D03*
X0111930Y0088308D03*
X0091064Y0059568D03*
X0091851Y0043820D03*
X0108387Y0054843D03*
X0082796Y0125316D03*
M02*
