G75*
%MOIN*%
%OFA0B0*%
%FSLAX25Y25*%
%IPPOS*%
%LPD*%
%AMOC8*
5,1,8,0,0,1.08239X$1,22.5*
%
%ADD10C,0.00500*%
%ADD11C,0.00400*%
D10*
X0038229Y0065237D02*
X0057520Y0065237D01*
X0057520Y0094371D01*
X0044528Y0094371D01*
X0044331Y0094371D02*
X0038229Y0088269D01*
X0038229Y0065237D01*
X0038426Y0077835D02*
X0040394Y0079804D01*
X0038426Y0081772D01*
D11*
X0035116Y0080875D02*
X0030516Y0080875D01*
X0035116Y0078320D01*
X0030516Y0078320D01*
X0030516Y0076359D02*
X0030516Y0075336D01*
X0030516Y0075847D02*
X0035116Y0075847D01*
X0035116Y0075336D02*
X0035116Y0076359D01*
X0035116Y0083186D02*
X0030516Y0083186D01*
X0032560Y0083186D02*
X0032560Y0084464D01*
X0032562Y0084534D01*
X0032568Y0084605D01*
X0032577Y0084674D01*
X0032591Y0084743D01*
X0032608Y0084812D01*
X0032629Y0084879D01*
X0032654Y0084945D01*
X0032682Y0085009D01*
X0032714Y0085072D01*
X0032749Y0085133D01*
X0032788Y0085192D01*
X0032829Y0085249D01*
X0032874Y0085303D01*
X0032922Y0085355D01*
X0032972Y0085404D01*
X0033026Y0085451D01*
X0033081Y0085494D01*
X0033139Y0085534D01*
X0033199Y0085571D01*
X0033261Y0085604D01*
X0033325Y0085634D01*
X0033390Y0085661D01*
X0033456Y0085684D01*
X0033524Y0085703D01*
X0033593Y0085718D01*
X0033662Y0085730D01*
X0033732Y0085738D01*
X0033803Y0085742D01*
X0033873Y0085742D01*
X0033944Y0085738D01*
X0034014Y0085730D01*
X0034083Y0085718D01*
X0034152Y0085703D01*
X0034220Y0085684D01*
X0034286Y0085661D01*
X0034351Y0085634D01*
X0034415Y0085604D01*
X0034477Y0085571D01*
X0034537Y0085534D01*
X0034595Y0085494D01*
X0034650Y0085451D01*
X0034704Y0085404D01*
X0034754Y0085355D01*
X0034802Y0085303D01*
X0034847Y0085249D01*
X0034888Y0085192D01*
X0034927Y0085133D01*
X0034962Y0085072D01*
X0034994Y0085009D01*
X0035022Y0084945D01*
X0035047Y0084879D01*
X0035068Y0084812D01*
X0035085Y0084743D01*
X0035099Y0084674D01*
X0035108Y0084605D01*
X0035114Y0084534D01*
X0035116Y0084464D01*
X0035116Y0083186D01*
X0035116Y0087620D02*
X0031794Y0087620D01*
X0031794Y0087619D02*
X0031724Y0087621D01*
X0031653Y0087627D01*
X0031584Y0087636D01*
X0031515Y0087650D01*
X0031446Y0087667D01*
X0031379Y0087688D01*
X0031313Y0087713D01*
X0031249Y0087741D01*
X0031186Y0087773D01*
X0031125Y0087808D01*
X0031066Y0087847D01*
X0031009Y0087888D01*
X0030955Y0087933D01*
X0030903Y0087981D01*
X0030854Y0088031D01*
X0030807Y0088085D01*
X0030764Y0088140D01*
X0030724Y0088198D01*
X0030687Y0088258D01*
X0030654Y0088320D01*
X0030624Y0088384D01*
X0030597Y0088449D01*
X0030574Y0088515D01*
X0030555Y0088583D01*
X0030540Y0088652D01*
X0030528Y0088721D01*
X0030520Y0088791D01*
X0030516Y0088862D01*
X0030516Y0088932D01*
X0030520Y0089003D01*
X0030528Y0089073D01*
X0030540Y0089142D01*
X0030555Y0089211D01*
X0030574Y0089279D01*
X0030597Y0089345D01*
X0030624Y0089410D01*
X0030654Y0089474D01*
X0030687Y0089536D01*
X0030724Y0089596D01*
X0030764Y0089654D01*
X0030807Y0089709D01*
X0030854Y0089763D01*
X0030903Y0089813D01*
X0030955Y0089861D01*
X0031009Y0089906D01*
X0031066Y0089947D01*
X0031125Y0089986D01*
X0031186Y0090021D01*
X0031249Y0090053D01*
X0031313Y0090081D01*
X0031379Y0090106D01*
X0031446Y0090127D01*
X0031515Y0090144D01*
X0031584Y0090158D01*
X0031653Y0090167D01*
X0031724Y0090173D01*
X0031794Y0090175D01*
X0035116Y0090175D01*
X0035116Y0091970D02*
X0035116Y0094525D01*
X0035116Y0093247D02*
X0030516Y0093247D01*
X0060516Y0091970D02*
X0060516Y0094525D01*
X0060516Y0091970D02*
X0063071Y0094142D01*
X0065115Y0093375D02*
X0065113Y0093301D01*
X0065108Y0093227D01*
X0065098Y0093153D01*
X0065085Y0093080D01*
X0065069Y0093007D01*
X0065048Y0092936D01*
X0065024Y0092866D01*
X0064997Y0092797D01*
X0064966Y0092729D01*
X0064932Y0092663D01*
X0064895Y0092599D01*
X0064854Y0092537D01*
X0064810Y0092477D01*
X0064764Y0092419D01*
X0064714Y0092363D01*
X0064662Y0092310D01*
X0064607Y0092260D01*
X0064550Y0092213D01*
X0064490Y0092169D01*
X0064428Y0092127D01*
X0064365Y0092089D01*
X0064299Y0092054D01*
X0064232Y0092023D01*
X0064163Y0091995D01*
X0064093Y0091970D01*
X0063072Y0094142D02*
X0063119Y0094189D01*
X0063169Y0094233D01*
X0063221Y0094275D01*
X0063275Y0094314D01*
X0063331Y0094349D01*
X0063389Y0094382D01*
X0063449Y0094412D01*
X0063510Y0094438D01*
X0063573Y0094461D01*
X0063637Y0094480D01*
X0063701Y0094496D01*
X0063767Y0094509D01*
X0063833Y0094518D01*
X0063899Y0094523D01*
X0063966Y0094525D01*
X0064033Y0094523D01*
X0064100Y0094517D01*
X0064166Y0094508D01*
X0064231Y0094494D01*
X0064296Y0094477D01*
X0064359Y0094456D01*
X0064421Y0094431D01*
X0064482Y0094403D01*
X0064541Y0094371D01*
X0064598Y0094336D01*
X0064653Y0094297D01*
X0064705Y0094256D01*
X0064755Y0094211D01*
X0064802Y0094164D01*
X0064847Y0094114D01*
X0064888Y0094062D01*
X0064927Y0094007D01*
X0064962Y0093950D01*
X0064994Y0093891D01*
X0065022Y0093830D01*
X0065047Y0093768D01*
X0065068Y0093705D01*
X0065085Y0093640D01*
X0065099Y0093575D01*
X0065108Y0093509D01*
X0065114Y0093442D01*
X0065116Y0093375D01*
X0062305Y0089981D02*
X0062305Y0086914D01*
X0065116Y0084925D02*
X0060516Y0083647D01*
X0061794Y0080425D02*
X0062049Y0080425D01*
X0062111Y0080423D01*
X0062172Y0080418D01*
X0062233Y0080408D01*
X0062294Y0080395D01*
X0062353Y0080379D01*
X0062411Y0080359D01*
X0062468Y0080335D01*
X0062524Y0080308D01*
X0062578Y0080278D01*
X0062630Y0080244D01*
X0062679Y0080208D01*
X0062727Y0080168D01*
X0062772Y0080126D01*
X0062814Y0080081D01*
X0062854Y0080033D01*
X0062890Y0079984D01*
X0062924Y0079932D01*
X0062954Y0079878D01*
X0062981Y0079822D01*
X0063005Y0079765D01*
X0063025Y0079707D01*
X0063041Y0079648D01*
X0063054Y0079587D01*
X0063064Y0079526D01*
X0063069Y0079465D01*
X0063071Y0079403D01*
X0063071Y0077870D01*
X0061794Y0077870D01*
X0061794Y0077869D02*
X0061724Y0077871D01*
X0061653Y0077877D01*
X0061584Y0077886D01*
X0061515Y0077900D01*
X0061446Y0077917D01*
X0061379Y0077938D01*
X0061313Y0077963D01*
X0061249Y0077991D01*
X0061186Y0078023D01*
X0061125Y0078058D01*
X0061066Y0078097D01*
X0061009Y0078138D01*
X0060955Y0078183D01*
X0060903Y0078231D01*
X0060854Y0078281D01*
X0060807Y0078335D01*
X0060764Y0078390D01*
X0060724Y0078448D01*
X0060687Y0078508D01*
X0060654Y0078570D01*
X0060624Y0078634D01*
X0060597Y0078699D01*
X0060574Y0078765D01*
X0060555Y0078833D01*
X0060540Y0078902D01*
X0060528Y0078971D01*
X0060520Y0079041D01*
X0060516Y0079112D01*
X0060516Y0079182D01*
X0060520Y0079253D01*
X0060528Y0079323D01*
X0060540Y0079392D01*
X0060555Y0079461D01*
X0060574Y0079529D01*
X0060597Y0079595D01*
X0060624Y0079660D01*
X0060654Y0079724D01*
X0060687Y0079786D01*
X0060724Y0079846D01*
X0060764Y0079904D01*
X0060807Y0079959D01*
X0060854Y0080013D01*
X0060903Y0080063D01*
X0060955Y0080111D01*
X0061009Y0080156D01*
X0061066Y0080197D01*
X0061125Y0080236D01*
X0061186Y0080271D01*
X0061249Y0080303D01*
X0061313Y0080331D01*
X0061379Y0080356D01*
X0061446Y0080377D01*
X0061515Y0080394D01*
X0061584Y0080408D01*
X0061653Y0080417D01*
X0061724Y0080423D01*
X0061794Y0080425D01*
X0063071Y0077870D02*
X0063160Y0077872D01*
X0063249Y0077878D01*
X0063338Y0077887D01*
X0063426Y0077901D01*
X0063513Y0077918D01*
X0063600Y0077940D01*
X0063686Y0077965D01*
X0063770Y0077993D01*
X0063853Y0078026D01*
X0063935Y0078062D01*
X0064015Y0078101D01*
X0064093Y0078144D01*
X0064169Y0078190D01*
X0064243Y0078240D01*
X0064315Y0078292D01*
X0064385Y0078348D01*
X0064452Y0078407D01*
X0064516Y0078469D01*
X0064578Y0078533D01*
X0064637Y0078600D01*
X0064693Y0078670D01*
X0064745Y0078742D01*
X0064795Y0078816D01*
X0064841Y0078892D01*
X0064884Y0078970D01*
X0064923Y0079050D01*
X0064959Y0079132D01*
X0064992Y0079215D01*
X0065020Y0079299D01*
X0065045Y0079385D01*
X0065067Y0079472D01*
X0065084Y0079559D01*
X0065098Y0079647D01*
X0065107Y0079736D01*
X0065113Y0079825D01*
X0065115Y0079914D01*
X0065116Y0082370D02*
X0065116Y0084925D01*
X0065116Y0082370D02*
X0064605Y0082370D01*
X0063071Y0075542D02*
X0060516Y0073370D01*
X0060516Y0075925D01*
X0064093Y0073370D02*
X0064163Y0073395D01*
X0064232Y0073423D01*
X0064299Y0073454D01*
X0064365Y0073489D01*
X0064428Y0073527D01*
X0064490Y0073569D01*
X0064550Y0073613D01*
X0064607Y0073660D01*
X0064662Y0073710D01*
X0064714Y0073763D01*
X0064764Y0073819D01*
X0064810Y0073877D01*
X0064854Y0073937D01*
X0064895Y0073999D01*
X0064932Y0074063D01*
X0064966Y0074129D01*
X0064997Y0074197D01*
X0065024Y0074266D01*
X0065048Y0074336D01*
X0065069Y0074407D01*
X0065085Y0074480D01*
X0065098Y0074553D01*
X0065108Y0074627D01*
X0065113Y0074701D01*
X0065115Y0074775D01*
X0065116Y0074775D02*
X0065114Y0074842D01*
X0065108Y0074909D01*
X0065099Y0074975D01*
X0065085Y0075040D01*
X0065068Y0075105D01*
X0065047Y0075168D01*
X0065022Y0075230D01*
X0064994Y0075291D01*
X0064962Y0075350D01*
X0064927Y0075407D01*
X0064888Y0075462D01*
X0064847Y0075514D01*
X0064802Y0075564D01*
X0064755Y0075611D01*
X0064705Y0075656D01*
X0064653Y0075697D01*
X0064598Y0075736D01*
X0064541Y0075771D01*
X0064482Y0075803D01*
X0064421Y0075831D01*
X0064359Y0075856D01*
X0064296Y0075877D01*
X0064231Y0075894D01*
X0064166Y0075908D01*
X0064100Y0075917D01*
X0064033Y0075923D01*
X0063966Y0075925D01*
X0063899Y0075923D01*
X0063833Y0075918D01*
X0063767Y0075909D01*
X0063701Y0075896D01*
X0063637Y0075880D01*
X0063573Y0075861D01*
X0063510Y0075838D01*
X0063449Y0075812D01*
X0063389Y0075782D01*
X0063331Y0075749D01*
X0063275Y0075714D01*
X0063221Y0075675D01*
X0063169Y0075633D01*
X0063119Y0075589D01*
X0063072Y0075542D01*
X0062049Y0071425D02*
X0061538Y0071425D01*
X0061476Y0071423D01*
X0061415Y0071418D01*
X0061354Y0071408D01*
X0061293Y0071395D01*
X0061234Y0071379D01*
X0061176Y0071359D01*
X0061119Y0071335D01*
X0061063Y0071308D01*
X0061009Y0071278D01*
X0060957Y0071244D01*
X0060908Y0071208D01*
X0060860Y0071168D01*
X0060815Y0071126D01*
X0060773Y0071081D01*
X0060733Y0071033D01*
X0060697Y0070984D01*
X0060663Y0070932D01*
X0060633Y0070878D01*
X0060606Y0070822D01*
X0060582Y0070765D01*
X0060562Y0070707D01*
X0060546Y0070648D01*
X0060533Y0070587D01*
X0060523Y0070526D01*
X0060518Y0070465D01*
X0060516Y0070403D01*
X0060516Y0068870D01*
X0063071Y0070403D02*
X0063069Y0070465D01*
X0063064Y0070526D01*
X0063054Y0070587D01*
X0063041Y0070648D01*
X0063025Y0070707D01*
X0063005Y0070765D01*
X0062981Y0070822D01*
X0062954Y0070878D01*
X0062924Y0070932D01*
X0062890Y0070984D01*
X0062854Y0071033D01*
X0062814Y0071081D01*
X0062772Y0071126D01*
X0062727Y0071168D01*
X0062679Y0071208D01*
X0062630Y0071244D01*
X0062578Y0071278D01*
X0062524Y0071308D01*
X0062468Y0071335D01*
X0062411Y0071359D01*
X0062353Y0071379D01*
X0062294Y0071395D01*
X0062233Y0071408D01*
X0062172Y0071418D01*
X0062111Y0071423D01*
X0062049Y0071425D01*
X0063071Y0070403D02*
X0063071Y0068870D01*
X0065116Y0068870D01*
X0065116Y0071425D01*
M02*
