G75*
%MOIN*%
%OFA0B0*%
%FSLAX25Y25*%
%IPPOS*%
%LPD*%
%AMOC8*
5,1,8,0,0,1.08239X$1,22.5*
%
%ADD10C,0.00000*%
%ADD11R,0.05937X0.05937*%
%ADD12C,0.05937*%
%ADD13R,0.12000X0.12000*%
%ADD14C,0.12000*%
%ADD15C,0.05150*%
%ADD16C,0.06496*%
%ADD17R,0.09843X0.09843*%
%ADD18R,0.06000X0.06000*%
%ADD19C,0.06000*%
%ADD20C,0.05000*%
%ADD21C,0.05906*%
%ADD22C,0.00600*%
D10*
X0034765Y0024528D02*
X0034765Y0241064D01*
X0172560Y0241064D01*
X0172560Y0024528D01*
X0034765Y0024528D01*
X0069174Y0092056D02*
X0069176Y0092209D01*
X0069182Y0092363D01*
X0069192Y0092516D01*
X0069206Y0092668D01*
X0069224Y0092821D01*
X0069246Y0092972D01*
X0069271Y0093123D01*
X0069301Y0093274D01*
X0069335Y0093424D01*
X0069372Y0093572D01*
X0069413Y0093720D01*
X0069458Y0093866D01*
X0069507Y0094012D01*
X0069560Y0094156D01*
X0069616Y0094298D01*
X0069676Y0094439D01*
X0069740Y0094579D01*
X0069807Y0094717D01*
X0069878Y0094853D01*
X0069953Y0094987D01*
X0070030Y0095119D01*
X0070112Y0095249D01*
X0070196Y0095377D01*
X0070284Y0095503D01*
X0070375Y0095626D01*
X0070469Y0095747D01*
X0070567Y0095865D01*
X0070667Y0095981D01*
X0070771Y0096094D01*
X0070877Y0096205D01*
X0070986Y0096313D01*
X0071098Y0096418D01*
X0071212Y0096519D01*
X0071330Y0096618D01*
X0071449Y0096714D01*
X0071571Y0096807D01*
X0071696Y0096896D01*
X0071823Y0096983D01*
X0071952Y0097065D01*
X0072083Y0097145D01*
X0072216Y0097221D01*
X0072351Y0097294D01*
X0072488Y0097363D01*
X0072627Y0097428D01*
X0072767Y0097490D01*
X0072909Y0097548D01*
X0073052Y0097603D01*
X0073197Y0097654D01*
X0073343Y0097701D01*
X0073490Y0097744D01*
X0073638Y0097783D01*
X0073787Y0097819D01*
X0073937Y0097850D01*
X0074088Y0097878D01*
X0074239Y0097902D01*
X0074392Y0097922D01*
X0074544Y0097938D01*
X0074697Y0097950D01*
X0074850Y0097958D01*
X0075003Y0097962D01*
X0075157Y0097962D01*
X0075310Y0097958D01*
X0075463Y0097950D01*
X0075616Y0097938D01*
X0075768Y0097922D01*
X0075921Y0097902D01*
X0076072Y0097878D01*
X0076223Y0097850D01*
X0076373Y0097819D01*
X0076522Y0097783D01*
X0076670Y0097744D01*
X0076817Y0097701D01*
X0076963Y0097654D01*
X0077108Y0097603D01*
X0077251Y0097548D01*
X0077393Y0097490D01*
X0077533Y0097428D01*
X0077672Y0097363D01*
X0077809Y0097294D01*
X0077944Y0097221D01*
X0078077Y0097145D01*
X0078208Y0097065D01*
X0078337Y0096983D01*
X0078464Y0096896D01*
X0078589Y0096807D01*
X0078711Y0096714D01*
X0078830Y0096618D01*
X0078948Y0096519D01*
X0079062Y0096418D01*
X0079174Y0096313D01*
X0079283Y0096205D01*
X0079389Y0096094D01*
X0079493Y0095981D01*
X0079593Y0095865D01*
X0079691Y0095747D01*
X0079785Y0095626D01*
X0079876Y0095503D01*
X0079964Y0095377D01*
X0080048Y0095249D01*
X0080130Y0095119D01*
X0080207Y0094987D01*
X0080282Y0094853D01*
X0080353Y0094717D01*
X0080420Y0094579D01*
X0080484Y0094439D01*
X0080544Y0094298D01*
X0080600Y0094156D01*
X0080653Y0094012D01*
X0080702Y0093866D01*
X0080747Y0093720D01*
X0080788Y0093572D01*
X0080825Y0093424D01*
X0080859Y0093274D01*
X0080889Y0093123D01*
X0080914Y0092972D01*
X0080936Y0092821D01*
X0080954Y0092668D01*
X0080968Y0092516D01*
X0080978Y0092363D01*
X0080984Y0092209D01*
X0080986Y0092056D01*
X0080984Y0091903D01*
X0080978Y0091749D01*
X0080968Y0091596D01*
X0080954Y0091444D01*
X0080936Y0091291D01*
X0080914Y0091140D01*
X0080889Y0090989D01*
X0080859Y0090838D01*
X0080825Y0090688D01*
X0080788Y0090540D01*
X0080747Y0090392D01*
X0080702Y0090246D01*
X0080653Y0090100D01*
X0080600Y0089956D01*
X0080544Y0089814D01*
X0080484Y0089673D01*
X0080420Y0089533D01*
X0080353Y0089395D01*
X0080282Y0089259D01*
X0080207Y0089125D01*
X0080130Y0088993D01*
X0080048Y0088863D01*
X0079964Y0088735D01*
X0079876Y0088609D01*
X0079785Y0088486D01*
X0079691Y0088365D01*
X0079593Y0088247D01*
X0079493Y0088131D01*
X0079389Y0088018D01*
X0079283Y0087907D01*
X0079174Y0087799D01*
X0079062Y0087694D01*
X0078948Y0087593D01*
X0078830Y0087494D01*
X0078711Y0087398D01*
X0078589Y0087305D01*
X0078464Y0087216D01*
X0078337Y0087129D01*
X0078208Y0087047D01*
X0078077Y0086967D01*
X0077944Y0086891D01*
X0077809Y0086818D01*
X0077672Y0086749D01*
X0077533Y0086684D01*
X0077393Y0086622D01*
X0077251Y0086564D01*
X0077108Y0086509D01*
X0076963Y0086458D01*
X0076817Y0086411D01*
X0076670Y0086368D01*
X0076522Y0086329D01*
X0076373Y0086293D01*
X0076223Y0086262D01*
X0076072Y0086234D01*
X0075921Y0086210D01*
X0075768Y0086190D01*
X0075616Y0086174D01*
X0075463Y0086162D01*
X0075310Y0086154D01*
X0075157Y0086150D01*
X0075003Y0086150D01*
X0074850Y0086154D01*
X0074697Y0086162D01*
X0074544Y0086174D01*
X0074392Y0086190D01*
X0074239Y0086210D01*
X0074088Y0086234D01*
X0073937Y0086262D01*
X0073787Y0086293D01*
X0073638Y0086329D01*
X0073490Y0086368D01*
X0073343Y0086411D01*
X0073197Y0086458D01*
X0073052Y0086509D01*
X0072909Y0086564D01*
X0072767Y0086622D01*
X0072627Y0086684D01*
X0072488Y0086749D01*
X0072351Y0086818D01*
X0072216Y0086891D01*
X0072083Y0086967D01*
X0071952Y0087047D01*
X0071823Y0087129D01*
X0071696Y0087216D01*
X0071571Y0087305D01*
X0071449Y0087398D01*
X0071330Y0087494D01*
X0071212Y0087593D01*
X0071098Y0087694D01*
X0070986Y0087799D01*
X0070877Y0087907D01*
X0070771Y0088018D01*
X0070667Y0088131D01*
X0070567Y0088247D01*
X0070469Y0088365D01*
X0070375Y0088486D01*
X0070284Y0088609D01*
X0070196Y0088735D01*
X0070112Y0088863D01*
X0070030Y0088993D01*
X0069953Y0089125D01*
X0069878Y0089259D01*
X0069807Y0089395D01*
X0069740Y0089533D01*
X0069676Y0089673D01*
X0069616Y0089814D01*
X0069560Y0089956D01*
X0069507Y0090100D01*
X0069458Y0090246D01*
X0069413Y0090392D01*
X0069372Y0090540D01*
X0069335Y0090688D01*
X0069301Y0090838D01*
X0069271Y0090989D01*
X0069246Y0091140D01*
X0069224Y0091291D01*
X0069206Y0091444D01*
X0069192Y0091596D01*
X0069182Y0091749D01*
X0069176Y0091903D01*
X0069174Y0092056D01*
X0129174Y0209056D02*
X0129176Y0209209D01*
X0129182Y0209363D01*
X0129192Y0209516D01*
X0129206Y0209668D01*
X0129224Y0209821D01*
X0129246Y0209972D01*
X0129271Y0210123D01*
X0129301Y0210274D01*
X0129335Y0210424D01*
X0129372Y0210572D01*
X0129413Y0210720D01*
X0129458Y0210866D01*
X0129507Y0211012D01*
X0129560Y0211156D01*
X0129616Y0211298D01*
X0129676Y0211439D01*
X0129740Y0211579D01*
X0129807Y0211717D01*
X0129878Y0211853D01*
X0129953Y0211987D01*
X0130030Y0212119D01*
X0130112Y0212249D01*
X0130196Y0212377D01*
X0130284Y0212503D01*
X0130375Y0212626D01*
X0130469Y0212747D01*
X0130567Y0212865D01*
X0130667Y0212981D01*
X0130771Y0213094D01*
X0130877Y0213205D01*
X0130986Y0213313D01*
X0131098Y0213418D01*
X0131212Y0213519D01*
X0131330Y0213618D01*
X0131449Y0213714D01*
X0131571Y0213807D01*
X0131696Y0213896D01*
X0131823Y0213983D01*
X0131952Y0214065D01*
X0132083Y0214145D01*
X0132216Y0214221D01*
X0132351Y0214294D01*
X0132488Y0214363D01*
X0132627Y0214428D01*
X0132767Y0214490D01*
X0132909Y0214548D01*
X0133052Y0214603D01*
X0133197Y0214654D01*
X0133343Y0214701D01*
X0133490Y0214744D01*
X0133638Y0214783D01*
X0133787Y0214819D01*
X0133937Y0214850D01*
X0134088Y0214878D01*
X0134239Y0214902D01*
X0134392Y0214922D01*
X0134544Y0214938D01*
X0134697Y0214950D01*
X0134850Y0214958D01*
X0135003Y0214962D01*
X0135157Y0214962D01*
X0135310Y0214958D01*
X0135463Y0214950D01*
X0135616Y0214938D01*
X0135768Y0214922D01*
X0135921Y0214902D01*
X0136072Y0214878D01*
X0136223Y0214850D01*
X0136373Y0214819D01*
X0136522Y0214783D01*
X0136670Y0214744D01*
X0136817Y0214701D01*
X0136963Y0214654D01*
X0137108Y0214603D01*
X0137251Y0214548D01*
X0137393Y0214490D01*
X0137533Y0214428D01*
X0137672Y0214363D01*
X0137809Y0214294D01*
X0137944Y0214221D01*
X0138077Y0214145D01*
X0138208Y0214065D01*
X0138337Y0213983D01*
X0138464Y0213896D01*
X0138589Y0213807D01*
X0138711Y0213714D01*
X0138830Y0213618D01*
X0138948Y0213519D01*
X0139062Y0213418D01*
X0139174Y0213313D01*
X0139283Y0213205D01*
X0139389Y0213094D01*
X0139493Y0212981D01*
X0139593Y0212865D01*
X0139691Y0212747D01*
X0139785Y0212626D01*
X0139876Y0212503D01*
X0139964Y0212377D01*
X0140048Y0212249D01*
X0140130Y0212119D01*
X0140207Y0211987D01*
X0140282Y0211853D01*
X0140353Y0211717D01*
X0140420Y0211579D01*
X0140484Y0211439D01*
X0140544Y0211298D01*
X0140600Y0211156D01*
X0140653Y0211012D01*
X0140702Y0210866D01*
X0140747Y0210720D01*
X0140788Y0210572D01*
X0140825Y0210424D01*
X0140859Y0210274D01*
X0140889Y0210123D01*
X0140914Y0209972D01*
X0140936Y0209821D01*
X0140954Y0209668D01*
X0140968Y0209516D01*
X0140978Y0209363D01*
X0140984Y0209209D01*
X0140986Y0209056D01*
X0140984Y0208903D01*
X0140978Y0208749D01*
X0140968Y0208596D01*
X0140954Y0208444D01*
X0140936Y0208291D01*
X0140914Y0208140D01*
X0140889Y0207989D01*
X0140859Y0207838D01*
X0140825Y0207688D01*
X0140788Y0207540D01*
X0140747Y0207392D01*
X0140702Y0207246D01*
X0140653Y0207100D01*
X0140600Y0206956D01*
X0140544Y0206814D01*
X0140484Y0206673D01*
X0140420Y0206533D01*
X0140353Y0206395D01*
X0140282Y0206259D01*
X0140207Y0206125D01*
X0140130Y0205993D01*
X0140048Y0205863D01*
X0139964Y0205735D01*
X0139876Y0205609D01*
X0139785Y0205486D01*
X0139691Y0205365D01*
X0139593Y0205247D01*
X0139493Y0205131D01*
X0139389Y0205018D01*
X0139283Y0204907D01*
X0139174Y0204799D01*
X0139062Y0204694D01*
X0138948Y0204593D01*
X0138830Y0204494D01*
X0138711Y0204398D01*
X0138589Y0204305D01*
X0138464Y0204216D01*
X0138337Y0204129D01*
X0138208Y0204047D01*
X0138077Y0203967D01*
X0137944Y0203891D01*
X0137809Y0203818D01*
X0137672Y0203749D01*
X0137533Y0203684D01*
X0137393Y0203622D01*
X0137251Y0203564D01*
X0137108Y0203509D01*
X0136963Y0203458D01*
X0136817Y0203411D01*
X0136670Y0203368D01*
X0136522Y0203329D01*
X0136373Y0203293D01*
X0136223Y0203262D01*
X0136072Y0203234D01*
X0135921Y0203210D01*
X0135768Y0203190D01*
X0135616Y0203174D01*
X0135463Y0203162D01*
X0135310Y0203154D01*
X0135157Y0203150D01*
X0135003Y0203150D01*
X0134850Y0203154D01*
X0134697Y0203162D01*
X0134544Y0203174D01*
X0134392Y0203190D01*
X0134239Y0203210D01*
X0134088Y0203234D01*
X0133937Y0203262D01*
X0133787Y0203293D01*
X0133638Y0203329D01*
X0133490Y0203368D01*
X0133343Y0203411D01*
X0133197Y0203458D01*
X0133052Y0203509D01*
X0132909Y0203564D01*
X0132767Y0203622D01*
X0132627Y0203684D01*
X0132488Y0203749D01*
X0132351Y0203818D01*
X0132216Y0203891D01*
X0132083Y0203967D01*
X0131952Y0204047D01*
X0131823Y0204129D01*
X0131696Y0204216D01*
X0131571Y0204305D01*
X0131449Y0204398D01*
X0131330Y0204494D01*
X0131212Y0204593D01*
X0131098Y0204694D01*
X0130986Y0204799D01*
X0130877Y0204907D01*
X0130771Y0205018D01*
X0130667Y0205131D01*
X0130567Y0205247D01*
X0130469Y0205365D01*
X0130375Y0205486D01*
X0130284Y0205609D01*
X0130196Y0205735D01*
X0130112Y0205863D01*
X0130030Y0205993D01*
X0129953Y0206125D01*
X0129878Y0206259D01*
X0129807Y0206395D01*
X0129740Y0206533D01*
X0129676Y0206673D01*
X0129616Y0206814D01*
X0129560Y0206956D01*
X0129507Y0207100D01*
X0129458Y0207246D01*
X0129413Y0207392D01*
X0129372Y0207540D01*
X0129335Y0207688D01*
X0129301Y0207838D01*
X0129271Y0207989D01*
X0129246Y0208140D01*
X0129224Y0208291D01*
X0129206Y0208444D01*
X0129192Y0208596D01*
X0129182Y0208749D01*
X0129176Y0208903D01*
X0129174Y0209056D01*
D11*
X0111654Y0034922D03*
X0052087Y0034922D03*
D12*
X0062087Y0034922D03*
X0072087Y0034922D03*
X0121654Y0034922D03*
X0131654Y0034922D03*
D13*
X0161300Y0035080D03*
X0160316Y0120513D03*
X0160198Y0164017D03*
X0049292Y0152402D03*
X0048702Y0109095D03*
D14*
X0048702Y0129095D03*
X0049292Y0172402D03*
X0049292Y0192402D03*
X0049292Y0212402D03*
X0160198Y0204017D03*
X0160198Y0224017D03*
X0160198Y0184017D03*
X0160316Y0140513D03*
X0161300Y0055080D03*
D15*
X0047891Y0074883D02*
X0042741Y0074883D01*
X0042741Y0084725D02*
X0047891Y0084725D01*
D16*
X0157186Y0088150D02*
X0163682Y0088150D01*
X0163682Y0078150D02*
X0157186Y0078150D01*
X0157186Y0098150D02*
X0163682Y0098150D01*
D17*
X0139080Y0071056D03*
X0071080Y0071056D03*
X0071080Y0227056D03*
X0139080Y0227056D03*
D18*
X0043465Y0231261D03*
D19*
X0053465Y0231261D03*
D20*
X0066875Y0231261D01*
X0071080Y0227056D01*
X0074213Y0200513D02*
X0043465Y0231261D01*
X0074213Y0200513D02*
X0104450Y0200513D01*
X0130993Y0227056D01*
X0139080Y0227056D01*
X0160198Y0204017D02*
X0130769Y0174587D01*
X0112954Y0192402D01*
X0049292Y0192402D01*
X0049292Y0172402D02*
X0111930Y0109765D01*
X0111930Y0092639D01*
X0111930Y0088308D01*
X0111930Y0087914D01*
X0109423Y0082255D02*
X0114437Y0082255D01*
X0117983Y0085801D01*
X0117983Y0111631D01*
X0111536Y0118078D01*
X0111536Y0167835D01*
X0111536Y0168229D01*
X0126497Y0170316D02*
X0130769Y0174587D01*
X0126497Y0170316D02*
X0126497Y0055237D01*
X0131654Y0050080D01*
X0131654Y0034922D01*
X0111654Y0034922D02*
X0094513Y0052064D01*
X0052087Y0052064D01*
X0071080Y0071056D01*
X0082568Y0059568D01*
X0091064Y0059568D01*
X0091851Y0043820D02*
X0070985Y0043820D01*
X0062087Y0034922D01*
X0052087Y0034922D02*
X0052087Y0052064D01*
X0069941Y0079650D02*
X0083580Y0079650D01*
X0108387Y0054843D01*
X0109423Y0082255D02*
X0062583Y0129095D01*
X0048702Y0129095D01*
X0048702Y0109095D02*
X0062674Y0095123D01*
X0062674Y0086917D01*
X0069941Y0079650D01*
X0082796Y0125316D02*
X0055709Y0152402D01*
X0049292Y0152402D01*
X0133583Y0167835D02*
X0143032Y0158387D01*
X0143032Y0145001D01*
X0151216Y0144282D02*
X0151216Y0143735D01*
X0133977Y0126497D01*
X0133977Y0076158D01*
X0139080Y0071056D01*
X0139080Y0057300D01*
X0161300Y0035080D01*
X0160434Y0078150D02*
X0146212Y0078150D01*
X0145285Y0079077D01*
X0144213Y0079077D01*
X0142245Y0081046D01*
X0142245Y0122442D01*
X0160316Y0140513D01*
X0151300Y0144366D02*
X0151300Y0155119D01*
X0160198Y0164017D01*
X0149292Y0174922D01*
X0141851Y0174922D01*
X0151300Y0144366D02*
X0151216Y0144282D01*
D21*
X0143032Y0145001D03*
X0133583Y0167835D03*
X0141851Y0174922D03*
X0111536Y0167835D03*
X0104450Y0200513D03*
X0082796Y0125316D03*
X0111930Y0088308D03*
X0091064Y0059568D03*
X0091851Y0043820D03*
X0108387Y0054843D03*
D22*
X0111052Y0052060D02*
X0124866Y0052060D01*
X0124571Y0052355D02*
X0128254Y0048671D01*
X0128254Y0036823D01*
X0127786Y0035692D01*
X0127786Y0034153D01*
X0128375Y0032731D01*
X0129463Y0031642D01*
X0130885Y0031054D01*
X0132424Y0031054D01*
X0133846Y0031642D01*
X0134934Y0032731D01*
X0135523Y0034153D01*
X0135523Y0035692D01*
X0135054Y0036823D01*
X0135054Y0050756D01*
X0134537Y0052005D01*
X0129897Y0056645D01*
X0129897Y0166668D01*
X0130317Y0165653D01*
X0131401Y0164569D01*
X0132494Y0164116D01*
X0139632Y0156978D01*
X0139632Y0146860D01*
X0139180Y0145767D01*
X0139180Y0144234D01*
X0139766Y0142818D01*
X0140850Y0141735D01*
X0142266Y0141148D01*
X0143799Y0141148D01*
X0145215Y0141735D01*
X0146298Y0142818D01*
X0146885Y0144234D01*
X0146885Y0145767D01*
X0146432Y0146860D01*
X0146432Y0159063D01*
X0145915Y0160313D01*
X0144958Y0161269D01*
X0137302Y0168925D01*
X0136850Y0170018D01*
X0135766Y0171102D01*
X0134350Y0171688D01*
X0132817Y0171688D01*
X0132579Y0171590D01*
X0132694Y0171705D01*
X0133651Y0172661D01*
X0158317Y0197327D01*
X0158825Y0197117D01*
X0161570Y0197117D01*
X0164106Y0198167D01*
X0166047Y0200108D01*
X0167098Y0202644D01*
X0167098Y0205389D01*
X0166047Y0207925D01*
X0164106Y0209866D01*
X0161570Y0210917D01*
X0158825Y0210917D01*
X0156289Y0209866D01*
X0154348Y0207925D01*
X0153298Y0205389D01*
X0153298Y0202644D01*
X0153508Y0202135D01*
X0130769Y0179396D01*
X0114879Y0195285D01*
X0113630Y0195802D01*
X0055352Y0195802D01*
X0055142Y0196311D01*
X0053201Y0198252D01*
X0050665Y0199302D01*
X0047920Y0199302D01*
X0045384Y0198252D01*
X0043443Y0196311D01*
X0042392Y0193775D01*
X0042392Y0191030D01*
X0043443Y0188494D01*
X0045384Y0186553D01*
X0047920Y0185502D01*
X0050665Y0185502D01*
X0053201Y0186553D01*
X0055142Y0188494D01*
X0055352Y0189002D01*
X0111545Y0189002D01*
X0125960Y0174587D01*
X0123614Y0172242D01*
X0123097Y0170992D01*
X0123097Y0054561D01*
X0123614Y0053311D01*
X0124571Y0052355D01*
X0124267Y0052658D02*
X0111650Y0052658D01*
X0111653Y0052661D02*
X0112239Y0054077D01*
X0112239Y0055610D01*
X0111653Y0057026D01*
X0110569Y0058110D01*
X0109476Y0058562D01*
X0086462Y0081576D01*
X0085505Y0082533D01*
X0084256Y0083050D01*
X0079893Y0083050D01*
X0081346Y0083889D01*
X0083246Y0085790D01*
X0084590Y0088117D01*
X0085285Y0090712D01*
X0085285Y0093399D01*
X0084590Y0095995D01*
X0083246Y0098322D01*
X0081346Y0100222D01*
X0079019Y0101566D01*
X0076423Y0102261D01*
X0073736Y0102261D01*
X0071140Y0101566D01*
X0068813Y0100222D01*
X0066913Y0098322D01*
X0065816Y0096422D01*
X0065556Y0097049D01*
X0064600Y0098005D01*
X0055602Y0107004D01*
X0055602Y0115468D01*
X0055074Y0115995D01*
X0042329Y0115995D01*
X0041802Y0115468D01*
X0041802Y0102722D01*
X0042329Y0102195D01*
X0050793Y0102195D01*
X0059274Y0093715D01*
X0059274Y0086241D01*
X0059792Y0084991D01*
X0060748Y0084035D01*
X0067059Y0077724D01*
X0067906Y0076877D01*
X0065785Y0076877D01*
X0065258Y0076350D01*
X0065258Y0070043D01*
X0050161Y0054946D01*
X0049205Y0053990D01*
X0048687Y0052740D01*
X0048687Y0038732D01*
X0048219Y0038263D01*
X0048219Y0031581D01*
X0048746Y0031054D01*
X0055429Y0031054D01*
X0055956Y0031581D01*
X0055956Y0038263D01*
X0055487Y0038732D01*
X0055487Y0048664D01*
X0093104Y0048664D01*
X0107786Y0033982D01*
X0107786Y0031581D01*
X0108313Y0031054D01*
X0114996Y0031054D01*
X0115523Y0031581D01*
X0115523Y0038263D01*
X0114996Y0038791D01*
X0112594Y0038791D01*
X0097395Y0053990D01*
X0096439Y0054946D01*
X0095189Y0055464D01*
X0060296Y0055464D01*
X0070067Y0065235D01*
X0072092Y0065235D01*
X0080642Y0056685D01*
X0081891Y0056168D01*
X0089204Y0056168D01*
X0090297Y0055715D01*
X0091830Y0055715D01*
X0093246Y0056302D01*
X0094330Y0057385D01*
X0094917Y0058801D01*
X0094917Y0060334D01*
X0094330Y0061750D01*
X0093246Y0062834D01*
X0091830Y0063420D01*
X0090297Y0063420D01*
X0089204Y0062968D01*
X0083976Y0062968D01*
X0076901Y0070043D01*
X0076901Y0076250D01*
X0082171Y0076250D01*
X0104668Y0053754D01*
X0105120Y0052661D01*
X0106204Y0051577D01*
X0107620Y0050991D01*
X0109153Y0050991D01*
X0110569Y0051577D01*
X0111653Y0052661D01*
X0111900Y0053257D02*
X0123669Y0053257D01*
X0123389Y0053855D02*
X0112148Y0053855D01*
X0112239Y0054454D02*
X0123141Y0054454D01*
X0123097Y0055052D02*
X0112239Y0055052D01*
X0112222Y0055651D02*
X0123097Y0055651D01*
X0123097Y0056249D02*
X0111974Y0056249D01*
X0111726Y0056848D02*
X0123097Y0056848D01*
X0123097Y0057446D02*
X0111232Y0057446D01*
X0110634Y0058045D02*
X0123097Y0058045D01*
X0123097Y0058643D02*
X0109395Y0058643D01*
X0108796Y0059242D02*
X0123097Y0059242D01*
X0123097Y0059841D02*
X0108198Y0059841D01*
X0107599Y0060439D02*
X0123097Y0060439D01*
X0123097Y0061038D02*
X0107001Y0061038D01*
X0106402Y0061636D02*
X0123097Y0061636D01*
X0123097Y0062235D02*
X0105804Y0062235D01*
X0105205Y0062833D02*
X0123097Y0062833D01*
X0123097Y0063432D02*
X0104607Y0063432D01*
X0104008Y0064030D02*
X0123097Y0064030D01*
X0123097Y0064629D02*
X0103410Y0064629D01*
X0102811Y0065227D02*
X0123097Y0065227D01*
X0123097Y0065826D02*
X0102213Y0065826D01*
X0101614Y0066424D02*
X0123097Y0066424D01*
X0123097Y0067023D02*
X0101016Y0067023D01*
X0100417Y0067621D02*
X0123097Y0067621D01*
X0123097Y0068220D02*
X0099819Y0068220D01*
X0099220Y0068818D02*
X0123097Y0068818D01*
X0123097Y0069417D02*
X0098622Y0069417D01*
X0098023Y0070015D02*
X0123097Y0070015D01*
X0123097Y0070614D02*
X0097425Y0070614D01*
X0096826Y0071212D02*
X0123097Y0071212D01*
X0123097Y0071811D02*
X0096227Y0071811D01*
X0095629Y0072409D02*
X0123097Y0072409D01*
X0123097Y0073008D02*
X0095030Y0073008D01*
X0094432Y0073606D02*
X0123097Y0073606D01*
X0123097Y0074205D02*
X0093833Y0074205D01*
X0093235Y0074803D02*
X0123097Y0074803D01*
X0123097Y0075402D02*
X0092636Y0075402D01*
X0092038Y0076000D02*
X0123097Y0076000D01*
X0123097Y0076599D02*
X0091439Y0076599D01*
X0090841Y0077197D02*
X0123097Y0077197D01*
X0123097Y0077796D02*
X0090242Y0077796D01*
X0089644Y0078394D02*
X0123097Y0078394D01*
X0123097Y0078993D02*
X0115446Y0078993D01*
X0115113Y0078855D02*
X0116363Y0079373D01*
X0120865Y0083875D01*
X0121383Y0085124D01*
X0121383Y0112308D01*
X0120865Y0113557D01*
X0114936Y0119486D01*
X0114936Y0165976D01*
X0115389Y0167069D01*
X0115389Y0168602D01*
X0114802Y0170018D01*
X0113719Y0171102D01*
X0112303Y0171688D01*
X0110770Y0171688D01*
X0109354Y0171102D01*
X0108270Y0170018D01*
X0107683Y0168602D01*
X0107683Y0167069D01*
X0108136Y0165976D01*
X0108136Y0118367D01*
X0055981Y0170521D01*
X0056192Y0171030D01*
X0056192Y0173775D01*
X0055142Y0176311D01*
X0053201Y0178252D01*
X0050665Y0179302D01*
X0047920Y0179302D01*
X0045384Y0178252D01*
X0043443Y0176311D01*
X0042392Y0173775D01*
X0042392Y0171030D01*
X0043443Y0168494D01*
X0045384Y0166553D01*
X0047920Y0165502D01*
X0050665Y0165502D01*
X0051173Y0165713D01*
X0108530Y0108356D01*
X0108530Y0090167D01*
X0108077Y0089074D01*
X0108077Y0088409D01*
X0065465Y0131021D01*
X0065465Y0131021D01*
X0064509Y0131978D01*
X0063259Y0132495D01*
X0054762Y0132495D01*
X0054551Y0133004D01*
X0052610Y0134945D01*
X0050074Y0135995D01*
X0047329Y0135995D01*
X0044793Y0134945D01*
X0042852Y0133004D01*
X0041802Y0130468D01*
X0041802Y0127723D01*
X0042852Y0125187D01*
X0044793Y0123246D01*
X0047329Y0122195D01*
X0050074Y0122195D01*
X0052610Y0123246D01*
X0054551Y0125187D01*
X0054762Y0125695D01*
X0061174Y0125695D01*
X0106540Y0080329D01*
X0107497Y0079373D01*
X0108746Y0078855D01*
X0115113Y0078855D01*
X0116582Y0079591D02*
X0123097Y0079591D01*
X0123097Y0080190D02*
X0117180Y0080190D01*
X0117779Y0080788D02*
X0123097Y0080788D01*
X0123097Y0081387D02*
X0118377Y0081387D01*
X0118976Y0081985D02*
X0123097Y0081985D01*
X0123097Y0082584D02*
X0119574Y0082584D01*
X0120173Y0083182D02*
X0123097Y0083182D01*
X0123097Y0083781D02*
X0120771Y0083781D01*
X0121074Y0084379D02*
X0123097Y0084379D01*
X0123097Y0084978D02*
X0121322Y0084978D01*
X0121383Y0085577D02*
X0123097Y0085577D01*
X0123097Y0086175D02*
X0121383Y0086175D01*
X0121383Y0086774D02*
X0123097Y0086774D01*
X0123097Y0087372D02*
X0121383Y0087372D01*
X0121383Y0087971D02*
X0123097Y0087971D01*
X0123097Y0088569D02*
X0121383Y0088569D01*
X0121383Y0089168D02*
X0123097Y0089168D01*
X0123097Y0089766D02*
X0121383Y0089766D01*
X0121383Y0090365D02*
X0123097Y0090365D01*
X0123097Y0090963D02*
X0121383Y0090963D01*
X0121383Y0091562D02*
X0123097Y0091562D01*
X0123097Y0092160D02*
X0121383Y0092160D01*
X0121383Y0092759D02*
X0123097Y0092759D01*
X0123097Y0093357D02*
X0121383Y0093357D01*
X0121383Y0093956D02*
X0123097Y0093956D01*
X0123097Y0094554D02*
X0121383Y0094554D01*
X0121383Y0095153D02*
X0123097Y0095153D01*
X0123097Y0095751D02*
X0121383Y0095751D01*
X0121383Y0096350D02*
X0123097Y0096350D01*
X0123097Y0096948D02*
X0121383Y0096948D01*
X0121383Y0097547D02*
X0123097Y0097547D01*
X0123097Y0098145D02*
X0121383Y0098145D01*
X0121383Y0098744D02*
X0123097Y0098744D01*
X0123097Y0099342D02*
X0121383Y0099342D01*
X0121383Y0099941D02*
X0123097Y0099941D01*
X0123097Y0100539D02*
X0121383Y0100539D01*
X0121383Y0101138D02*
X0123097Y0101138D01*
X0123097Y0101736D02*
X0121383Y0101736D01*
X0121383Y0102335D02*
X0123097Y0102335D01*
X0123097Y0102933D02*
X0121383Y0102933D01*
X0121383Y0103532D02*
X0123097Y0103532D01*
X0123097Y0104130D02*
X0121383Y0104130D01*
X0121383Y0104729D02*
X0123097Y0104729D01*
X0123097Y0105327D02*
X0121383Y0105327D01*
X0121383Y0105926D02*
X0123097Y0105926D01*
X0123097Y0106524D02*
X0121383Y0106524D01*
X0121383Y0107123D02*
X0123097Y0107123D01*
X0123097Y0107721D02*
X0121383Y0107721D01*
X0121383Y0108320D02*
X0123097Y0108320D01*
X0123097Y0108918D02*
X0121383Y0108918D01*
X0121383Y0109517D02*
X0123097Y0109517D01*
X0123097Y0110115D02*
X0121383Y0110115D01*
X0121383Y0110714D02*
X0123097Y0110714D01*
X0123097Y0111312D02*
X0121383Y0111312D01*
X0121383Y0111911D02*
X0123097Y0111911D01*
X0123097Y0112510D02*
X0121299Y0112510D01*
X0121051Y0113108D02*
X0123097Y0113108D01*
X0123097Y0113707D02*
X0120716Y0113707D01*
X0120117Y0114305D02*
X0123097Y0114305D01*
X0123097Y0114904D02*
X0119519Y0114904D01*
X0118920Y0115502D02*
X0123097Y0115502D01*
X0123097Y0116101D02*
X0118322Y0116101D01*
X0117723Y0116699D02*
X0123097Y0116699D01*
X0123097Y0117298D02*
X0117125Y0117298D01*
X0116526Y0117896D02*
X0123097Y0117896D01*
X0123097Y0118495D02*
X0115928Y0118495D01*
X0115329Y0119093D02*
X0123097Y0119093D01*
X0123097Y0119692D02*
X0114936Y0119692D01*
X0114936Y0120290D02*
X0123097Y0120290D01*
X0123097Y0120889D02*
X0114936Y0120889D01*
X0114936Y0121487D02*
X0123097Y0121487D01*
X0123097Y0122086D02*
X0114936Y0122086D01*
X0114936Y0122684D02*
X0123097Y0122684D01*
X0123097Y0123283D02*
X0114936Y0123283D01*
X0114936Y0123881D02*
X0123097Y0123881D01*
X0123097Y0124480D02*
X0114936Y0124480D01*
X0114936Y0125078D02*
X0123097Y0125078D01*
X0123097Y0125677D02*
X0114936Y0125677D01*
X0114936Y0126275D02*
X0123097Y0126275D01*
X0123097Y0126874D02*
X0114936Y0126874D01*
X0114936Y0127472D02*
X0123097Y0127472D01*
X0123097Y0128071D02*
X0114936Y0128071D01*
X0114936Y0128669D02*
X0123097Y0128669D01*
X0123097Y0129268D02*
X0114936Y0129268D01*
X0114936Y0129866D02*
X0123097Y0129866D01*
X0123097Y0130465D02*
X0114936Y0130465D01*
X0114936Y0131063D02*
X0123097Y0131063D01*
X0123097Y0131662D02*
X0114936Y0131662D01*
X0114936Y0132260D02*
X0123097Y0132260D01*
X0123097Y0132859D02*
X0114936Y0132859D01*
X0114936Y0133457D02*
X0123097Y0133457D01*
X0123097Y0134056D02*
X0114936Y0134056D01*
X0114936Y0134654D02*
X0123097Y0134654D01*
X0123097Y0135253D02*
X0114936Y0135253D01*
X0114936Y0135851D02*
X0123097Y0135851D01*
X0123097Y0136450D02*
X0114936Y0136450D01*
X0114936Y0137048D02*
X0123097Y0137048D01*
X0123097Y0137647D02*
X0114936Y0137647D01*
X0114936Y0138245D02*
X0123097Y0138245D01*
X0123097Y0138844D02*
X0114936Y0138844D01*
X0114936Y0139443D02*
X0123097Y0139443D01*
X0123097Y0140041D02*
X0114936Y0140041D01*
X0114936Y0140640D02*
X0123097Y0140640D01*
X0123097Y0141238D02*
X0114936Y0141238D01*
X0114936Y0141837D02*
X0123097Y0141837D01*
X0123097Y0142435D02*
X0114936Y0142435D01*
X0114936Y0143034D02*
X0123097Y0143034D01*
X0123097Y0143632D02*
X0114936Y0143632D01*
X0114936Y0144231D02*
X0123097Y0144231D01*
X0123097Y0144829D02*
X0114936Y0144829D01*
X0114936Y0145428D02*
X0123097Y0145428D01*
X0123097Y0146026D02*
X0114936Y0146026D01*
X0114936Y0146625D02*
X0123097Y0146625D01*
X0123097Y0147223D02*
X0114936Y0147223D01*
X0114936Y0147822D02*
X0123097Y0147822D01*
X0123097Y0148420D02*
X0114936Y0148420D01*
X0114936Y0149019D02*
X0123097Y0149019D01*
X0123097Y0149617D02*
X0114936Y0149617D01*
X0114936Y0150216D02*
X0123097Y0150216D01*
X0123097Y0150814D02*
X0114936Y0150814D01*
X0114936Y0151413D02*
X0123097Y0151413D01*
X0123097Y0152011D02*
X0114936Y0152011D01*
X0114936Y0152610D02*
X0123097Y0152610D01*
X0123097Y0153208D02*
X0114936Y0153208D01*
X0114936Y0153807D02*
X0123097Y0153807D01*
X0123097Y0154405D02*
X0114936Y0154405D01*
X0114936Y0155004D02*
X0123097Y0155004D01*
X0123097Y0155602D02*
X0114936Y0155602D01*
X0114936Y0156201D02*
X0123097Y0156201D01*
X0123097Y0156799D02*
X0114936Y0156799D01*
X0114936Y0157398D02*
X0123097Y0157398D01*
X0123097Y0157996D02*
X0114936Y0157996D01*
X0114936Y0158595D02*
X0123097Y0158595D01*
X0123097Y0159193D02*
X0114936Y0159193D01*
X0114936Y0159792D02*
X0123097Y0159792D01*
X0123097Y0160390D02*
X0114936Y0160390D01*
X0114936Y0160989D02*
X0123097Y0160989D01*
X0123097Y0161587D02*
X0114936Y0161587D01*
X0114936Y0162186D02*
X0123097Y0162186D01*
X0123097Y0162784D02*
X0114936Y0162784D01*
X0114936Y0163383D02*
X0123097Y0163383D01*
X0123097Y0163981D02*
X0114936Y0163981D01*
X0114936Y0164580D02*
X0123097Y0164580D01*
X0123097Y0165179D02*
X0114936Y0165179D01*
X0114936Y0165777D02*
X0123097Y0165777D01*
X0123097Y0166376D02*
X0115102Y0166376D01*
X0115350Y0166974D02*
X0123097Y0166974D01*
X0123097Y0167573D02*
X0115389Y0167573D01*
X0115389Y0168171D02*
X0123097Y0168171D01*
X0123097Y0168770D02*
X0115319Y0168770D01*
X0115072Y0169368D02*
X0123097Y0169368D01*
X0123097Y0169967D02*
X0114824Y0169967D01*
X0114255Y0170565D02*
X0123097Y0170565D01*
X0123168Y0171164D02*
X0113569Y0171164D01*
X0109503Y0171164D02*
X0056192Y0171164D01*
X0056192Y0171762D02*
X0123416Y0171762D01*
X0123733Y0172361D02*
X0056192Y0172361D01*
X0056192Y0172959D02*
X0124332Y0172959D01*
X0124930Y0173558D02*
X0056192Y0173558D01*
X0056034Y0174156D02*
X0125529Y0174156D01*
X0125793Y0174755D02*
X0055786Y0174755D01*
X0055538Y0175353D02*
X0125194Y0175353D01*
X0124596Y0175952D02*
X0055290Y0175952D01*
X0054902Y0176550D02*
X0123997Y0176550D01*
X0123399Y0177149D02*
X0054304Y0177149D01*
X0053705Y0177747D02*
X0122800Y0177747D01*
X0122202Y0178346D02*
X0052974Y0178346D01*
X0051529Y0178944D02*
X0121603Y0178944D01*
X0121005Y0179543D02*
X0039065Y0179543D01*
X0039065Y0180141D02*
X0120406Y0180141D01*
X0119808Y0180740D02*
X0039065Y0180740D01*
X0039065Y0181338D02*
X0119209Y0181338D01*
X0118611Y0181937D02*
X0039065Y0181937D01*
X0039065Y0182535D02*
X0118012Y0182535D01*
X0117414Y0183134D02*
X0039065Y0183134D01*
X0039065Y0183732D02*
X0116815Y0183732D01*
X0116217Y0184331D02*
X0039065Y0184331D01*
X0039065Y0184929D02*
X0115618Y0184929D01*
X0115020Y0185528D02*
X0050726Y0185528D01*
X0052171Y0186126D02*
X0114421Y0186126D01*
X0113823Y0186725D02*
X0053373Y0186725D01*
X0053971Y0187323D02*
X0113224Y0187323D01*
X0112626Y0187922D02*
X0054570Y0187922D01*
X0055153Y0188520D02*
X0112027Y0188520D01*
X0116856Y0193309D02*
X0144681Y0193309D01*
X0145280Y0193907D02*
X0116257Y0193907D01*
X0115659Y0194506D02*
X0145878Y0194506D01*
X0146477Y0195104D02*
X0115060Y0195104D01*
X0113871Y0195703D02*
X0147075Y0195703D01*
X0147674Y0196301D02*
X0055146Y0196301D01*
X0054553Y0196900D02*
X0148272Y0196900D01*
X0148871Y0197498D02*
X0053954Y0197498D01*
X0053356Y0198097D02*
X0149469Y0198097D01*
X0150068Y0198695D02*
X0052131Y0198695D01*
X0050686Y0199294D02*
X0132082Y0199294D01*
X0131140Y0199546D02*
X0133736Y0198850D01*
X0136423Y0198850D01*
X0139019Y0199546D01*
X0141346Y0200889D01*
X0143246Y0202790D01*
X0144590Y0205117D01*
X0145285Y0207712D01*
X0145285Y0210399D01*
X0144590Y0212995D01*
X0143246Y0215322D01*
X0141346Y0217222D01*
X0139019Y0218566D01*
X0136423Y0219261D01*
X0133736Y0219261D01*
X0131140Y0218566D01*
X0128813Y0217222D01*
X0126913Y0215322D01*
X0125570Y0212995D01*
X0124874Y0210399D01*
X0124874Y0207712D01*
X0125570Y0205117D01*
X0126913Y0202790D01*
X0128813Y0200889D01*
X0131140Y0199546D01*
X0130541Y0199892D02*
X0039065Y0199892D01*
X0039065Y0199294D02*
X0047899Y0199294D01*
X0046454Y0198695D02*
X0039065Y0198695D01*
X0039065Y0198097D02*
X0045228Y0198097D01*
X0044630Y0197498D02*
X0039065Y0197498D01*
X0039065Y0196900D02*
X0044031Y0196900D01*
X0043439Y0196301D02*
X0039065Y0196301D01*
X0039065Y0195703D02*
X0043191Y0195703D01*
X0042943Y0195104D02*
X0039065Y0195104D01*
X0039065Y0194506D02*
X0042695Y0194506D01*
X0042447Y0193907D02*
X0039065Y0193907D01*
X0039065Y0193309D02*
X0042392Y0193309D01*
X0042392Y0192710D02*
X0039065Y0192710D01*
X0039065Y0192112D02*
X0042392Y0192112D01*
X0042392Y0191513D02*
X0039065Y0191513D01*
X0039065Y0190914D02*
X0042440Y0190914D01*
X0042688Y0190316D02*
X0039065Y0190316D01*
X0039065Y0189717D02*
X0042936Y0189717D01*
X0043184Y0189119D02*
X0039065Y0189119D01*
X0039065Y0188520D02*
X0043432Y0188520D01*
X0044014Y0187922D02*
X0039065Y0187922D01*
X0039065Y0187323D02*
X0044613Y0187323D01*
X0045211Y0186725D02*
X0039065Y0186725D01*
X0039065Y0186126D02*
X0046413Y0186126D01*
X0047858Y0185528D02*
X0039065Y0185528D01*
X0039065Y0178944D02*
X0047055Y0178944D01*
X0045610Y0178346D02*
X0039065Y0178346D01*
X0039065Y0177747D02*
X0044879Y0177747D01*
X0044280Y0177149D02*
X0039065Y0177149D01*
X0039065Y0176550D02*
X0043682Y0176550D01*
X0043294Y0175952D02*
X0039065Y0175952D01*
X0039065Y0175353D02*
X0043046Y0175353D01*
X0042798Y0174755D02*
X0039065Y0174755D01*
X0039065Y0174156D02*
X0042550Y0174156D01*
X0042392Y0173558D02*
X0039065Y0173558D01*
X0039065Y0172959D02*
X0042392Y0172959D01*
X0042392Y0172361D02*
X0039065Y0172361D01*
X0039065Y0171762D02*
X0042392Y0171762D01*
X0042392Y0171164D02*
X0039065Y0171164D01*
X0039065Y0170565D02*
X0042585Y0170565D01*
X0042833Y0169967D02*
X0039065Y0169967D01*
X0039065Y0169368D02*
X0043080Y0169368D01*
X0043328Y0168770D02*
X0039065Y0168770D01*
X0039065Y0168171D02*
X0043765Y0168171D01*
X0044364Y0167573D02*
X0039065Y0167573D01*
X0039065Y0166974D02*
X0044962Y0166974D01*
X0045812Y0166376D02*
X0039065Y0166376D01*
X0039065Y0165777D02*
X0047257Y0165777D01*
X0051708Y0165179D02*
X0039065Y0165179D01*
X0039065Y0164580D02*
X0052306Y0164580D01*
X0052905Y0163981D02*
X0039065Y0163981D01*
X0039065Y0163383D02*
X0053503Y0163383D01*
X0054102Y0162784D02*
X0039065Y0162784D01*
X0039065Y0162186D02*
X0054700Y0162186D01*
X0055299Y0161587D02*
X0039065Y0161587D01*
X0039065Y0160989D02*
X0055897Y0160989D01*
X0056496Y0160390D02*
X0039065Y0160390D01*
X0039065Y0159792D02*
X0057094Y0159792D01*
X0057693Y0159193D02*
X0056337Y0159193D01*
X0056332Y0159201D02*
X0056090Y0159443D01*
X0055794Y0159614D01*
X0055463Y0159702D01*
X0049592Y0159702D01*
X0049592Y0152702D01*
X0056592Y0152702D01*
X0056592Y0158574D01*
X0056504Y0158904D01*
X0056332Y0159201D01*
X0056586Y0158595D02*
X0058291Y0158595D01*
X0058890Y0157996D02*
X0056592Y0157996D01*
X0056592Y0157398D02*
X0059488Y0157398D01*
X0060087Y0156799D02*
X0056592Y0156799D01*
X0056592Y0156201D02*
X0060685Y0156201D01*
X0061284Y0155602D02*
X0056592Y0155602D01*
X0056592Y0155004D02*
X0061882Y0155004D01*
X0062481Y0154405D02*
X0056592Y0154405D01*
X0056592Y0153807D02*
X0063079Y0153807D01*
X0063678Y0153208D02*
X0056592Y0153208D01*
X0056592Y0152102D02*
X0049592Y0152102D01*
X0049592Y0145102D01*
X0055463Y0145102D01*
X0055794Y0145191D01*
X0056090Y0145362D01*
X0056332Y0145604D01*
X0056504Y0145901D01*
X0056592Y0146231D01*
X0056592Y0152102D01*
X0056592Y0152011D02*
X0064875Y0152011D01*
X0065473Y0151413D02*
X0056592Y0151413D01*
X0056592Y0150814D02*
X0066072Y0150814D01*
X0066670Y0150216D02*
X0056592Y0150216D01*
X0056592Y0149617D02*
X0067269Y0149617D01*
X0067867Y0149019D02*
X0056592Y0149019D01*
X0056592Y0148420D02*
X0068466Y0148420D01*
X0069064Y0147822D02*
X0056592Y0147822D01*
X0056592Y0147223D02*
X0069663Y0147223D01*
X0070262Y0146625D02*
X0056592Y0146625D01*
X0056537Y0146026D02*
X0070860Y0146026D01*
X0071459Y0145428D02*
X0056156Y0145428D01*
X0049592Y0145428D02*
X0048992Y0145428D01*
X0048992Y0145102D02*
X0048992Y0152102D01*
X0049592Y0152102D01*
X0049592Y0152702D01*
X0048992Y0152702D01*
X0048992Y0152102D01*
X0041992Y0152102D01*
X0041992Y0146231D01*
X0042081Y0145901D01*
X0042252Y0145604D01*
X0042494Y0145362D01*
X0042790Y0145191D01*
X0043121Y0145102D01*
X0048992Y0145102D01*
X0048992Y0146026D02*
X0049592Y0146026D01*
X0049592Y0146625D02*
X0048992Y0146625D01*
X0048992Y0147223D02*
X0049592Y0147223D01*
X0049592Y0147822D02*
X0048992Y0147822D01*
X0048992Y0148420D02*
X0049592Y0148420D01*
X0049592Y0149019D02*
X0048992Y0149019D01*
X0048992Y0149617D02*
X0049592Y0149617D01*
X0049592Y0150216D02*
X0048992Y0150216D01*
X0048992Y0150814D02*
X0049592Y0150814D01*
X0049592Y0151413D02*
X0048992Y0151413D01*
X0048992Y0152011D02*
X0049592Y0152011D01*
X0049592Y0152610D02*
X0064276Y0152610D01*
X0069105Y0157398D02*
X0108136Y0157398D01*
X0108136Y0157996D02*
X0068506Y0157996D01*
X0067908Y0158595D02*
X0108136Y0158595D01*
X0108136Y0159193D02*
X0067309Y0159193D01*
X0066711Y0159792D02*
X0108136Y0159792D01*
X0108136Y0160390D02*
X0066112Y0160390D01*
X0065514Y0160989D02*
X0108136Y0160989D01*
X0108136Y0161587D02*
X0064915Y0161587D01*
X0064317Y0162186D02*
X0108136Y0162186D01*
X0108136Y0162784D02*
X0063718Y0162784D01*
X0063120Y0163383D02*
X0108136Y0163383D01*
X0108136Y0163981D02*
X0062521Y0163981D01*
X0061923Y0164580D02*
X0108136Y0164580D01*
X0108136Y0165179D02*
X0061324Y0165179D01*
X0060726Y0165777D02*
X0108136Y0165777D01*
X0107971Y0166376D02*
X0060127Y0166376D01*
X0059529Y0166974D02*
X0107723Y0166974D01*
X0107683Y0167573D02*
X0058930Y0167573D01*
X0058332Y0168171D02*
X0107683Y0168171D01*
X0107753Y0168770D02*
X0057733Y0168770D01*
X0057135Y0169368D02*
X0108001Y0169368D01*
X0108249Y0169967D02*
X0056536Y0169967D01*
X0056000Y0170565D02*
X0108817Y0170565D01*
X0108136Y0156799D02*
X0069703Y0156799D01*
X0070302Y0156201D02*
X0108136Y0156201D01*
X0108136Y0155602D02*
X0070900Y0155602D01*
X0071499Y0155004D02*
X0108136Y0155004D01*
X0108136Y0154405D02*
X0072097Y0154405D01*
X0072696Y0153807D02*
X0108136Y0153807D01*
X0108136Y0153208D02*
X0073295Y0153208D01*
X0073893Y0152610D02*
X0108136Y0152610D01*
X0108136Y0152011D02*
X0074492Y0152011D01*
X0075090Y0151413D02*
X0108136Y0151413D01*
X0108136Y0150814D02*
X0075689Y0150814D01*
X0076287Y0150216D02*
X0108136Y0150216D01*
X0108136Y0149617D02*
X0076886Y0149617D01*
X0077484Y0149019D02*
X0108136Y0149019D01*
X0108136Y0148420D02*
X0078083Y0148420D01*
X0078681Y0147822D02*
X0108136Y0147822D01*
X0108136Y0147223D02*
X0079280Y0147223D01*
X0079878Y0146625D02*
X0108136Y0146625D01*
X0108136Y0146026D02*
X0080477Y0146026D01*
X0081075Y0145428D02*
X0108136Y0145428D01*
X0108136Y0144829D02*
X0081674Y0144829D01*
X0082272Y0144231D02*
X0108136Y0144231D01*
X0108136Y0143632D02*
X0082871Y0143632D01*
X0083469Y0143034D02*
X0108136Y0143034D01*
X0108136Y0142435D02*
X0084068Y0142435D01*
X0084666Y0141837D02*
X0108136Y0141837D01*
X0108136Y0141238D02*
X0085265Y0141238D01*
X0085863Y0140640D02*
X0108136Y0140640D01*
X0108136Y0140041D02*
X0086462Y0140041D01*
X0087060Y0139443D02*
X0108136Y0139443D01*
X0108136Y0138844D02*
X0087659Y0138844D01*
X0088257Y0138245D02*
X0108136Y0138245D01*
X0108136Y0137647D02*
X0088856Y0137647D01*
X0089454Y0137048D02*
X0108136Y0137048D01*
X0108136Y0136450D02*
X0090053Y0136450D01*
X0090651Y0135851D02*
X0108136Y0135851D01*
X0108136Y0135253D02*
X0091250Y0135253D01*
X0091848Y0134654D02*
X0108136Y0134654D01*
X0108136Y0134056D02*
X0092447Y0134056D01*
X0093045Y0133457D02*
X0108136Y0133457D01*
X0108136Y0132859D02*
X0093644Y0132859D01*
X0094242Y0132260D02*
X0108136Y0132260D01*
X0108136Y0131662D02*
X0094841Y0131662D01*
X0095439Y0131063D02*
X0108136Y0131063D01*
X0108136Y0130465D02*
X0096038Y0130465D01*
X0096636Y0129866D02*
X0108136Y0129866D01*
X0108136Y0129268D02*
X0097235Y0129268D01*
X0097833Y0128669D02*
X0108136Y0128669D01*
X0108136Y0128071D02*
X0098432Y0128071D01*
X0099030Y0127472D02*
X0108136Y0127472D01*
X0108136Y0126874D02*
X0099629Y0126874D01*
X0100228Y0126275D02*
X0108136Y0126275D01*
X0108136Y0125677D02*
X0100826Y0125677D01*
X0101425Y0125078D02*
X0108136Y0125078D01*
X0108136Y0124480D02*
X0102023Y0124480D01*
X0102622Y0123881D02*
X0108136Y0123881D01*
X0108136Y0123283D02*
X0103220Y0123283D01*
X0103819Y0122684D02*
X0108136Y0122684D01*
X0108136Y0122086D02*
X0104417Y0122086D01*
X0105016Y0121487D02*
X0108136Y0121487D01*
X0108136Y0120889D02*
X0105614Y0120889D01*
X0106213Y0120290D02*
X0108136Y0120290D01*
X0108136Y0119692D02*
X0106811Y0119692D01*
X0107410Y0119093D02*
X0108136Y0119093D01*
X0108136Y0118495D02*
X0108008Y0118495D01*
X0103180Y0113707D02*
X0082780Y0113707D01*
X0082181Y0114305D02*
X0102581Y0114305D01*
X0101983Y0114904D02*
X0081583Y0114904D01*
X0080984Y0115502D02*
X0101384Y0115502D01*
X0100786Y0116101D02*
X0080386Y0116101D01*
X0079787Y0116699D02*
X0100187Y0116699D01*
X0099589Y0117298D02*
X0079189Y0117298D01*
X0078590Y0117896D02*
X0098990Y0117896D01*
X0098392Y0118495D02*
X0077992Y0118495D01*
X0077393Y0119093D02*
X0097793Y0119093D01*
X0097195Y0119692D02*
X0076795Y0119692D01*
X0076196Y0120290D02*
X0096596Y0120290D01*
X0095998Y0120889D02*
X0075598Y0120889D01*
X0074999Y0121487D02*
X0095399Y0121487D01*
X0094800Y0122086D02*
X0074401Y0122086D01*
X0073802Y0122684D02*
X0094202Y0122684D01*
X0093603Y0123283D02*
X0073203Y0123283D01*
X0072605Y0123881D02*
X0093005Y0123881D01*
X0092406Y0124480D02*
X0072006Y0124480D01*
X0071408Y0125078D02*
X0091808Y0125078D01*
X0091209Y0125677D02*
X0070809Y0125677D01*
X0070211Y0126275D02*
X0090611Y0126275D01*
X0090012Y0126874D02*
X0069612Y0126874D01*
X0069014Y0127472D02*
X0089414Y0127472D01*
X0088815Y0128071D02*
X0068415Y0128071D01*
X0067817Y0128669D02*
X0088217Y0128669D01*
X0087618Y0129268D02*
X0067218Y0129268D01*
X0066620Y0129866D02*
X0087020Y0129866D01*
X0086421Y0130465D02*
X0066021Y0130465D01*
X0065423Y0131063D02*
X0085823Y0131063D01*
X0085224Y0131662D02*
X0064824Y0131662D01*
X0063826Y0132260D02*
X0084626Y0132260D01*
X0084027Y0132859D02*
X0054611Y0132859D01*
X0054098Y0133457D02*
X0083429Y0133457D01*
X0082830Y0134056D02*
X0053499Y0134056D01*
X0052900Y0134654D02*
X0082232Y0134654D01*
X0081633Y0135253D02*
X0051866Y0135253D01*
X0050421Y0135851D02*
X0081035Y0135851D01*
X0080436Y0136450D02*
X0039065Y0136450D01*
X0039065Y0137048D02*
X0079838Y0137048D01*
X0079239Y0137647D02*
X0039065Y0137647D01*
X0039065Y0138245D02*
X0078641Y0138245D01*
X0078042Y0138844D02*
X0039065Y0138844D01*
X0039065Y0139443D02*
X0077444Y0139443D01*
X0076845Y0140041D02*
X0039065Y0140041D01*
X0039065Y0140640D02*
X0076247Y0140640D01*
X0075648Y0141238D02*
X0039065Y0141238D01*
X0039065Y0141837D02*
X0075050Y0141837D01*
X0074451Y0142435D02*
X0039065Y0142435D01*
X0039065Y0143034D02*
X0073853Y0143034D01*
X0073254Y0143632D02*
X0039065Y0143632D01*
X0039065Y0144231D02*
X0072656Y0144231D01*
X0072057Y0144829D02*
X0039065Y0144829D01*
X0039065Y0145428D02*
X0042428Y0145428D01*
X0042047Y0146026D02*
X0039065Y0146026D01*
X0039065Y0146625D02*
X0041992Y0146625D01*
X0041992Y0147223D02*
X0039065Y0147223D01*
X0039065Y0147822D02*
X0041992Y0147822D01*
X0041992Y0148420D02*
X0039065Y0148420D01*
X0039065Y0149019D02*
X0041992Y0149019D01*
X0041992Y0149617D02*
X0039065Y0149617D01*
X0039065Y0150216D02*
X0041992Y0150216D01*
X0041992Y0150814D02*
X0039065Y0150814D01*
X0039065Y0151413D02*
X0041992Y0151413D01*
X0041992Y0152011D02*
X0039065Y0152011D01*
X0039065Y0152610D02*
X0048992Y0152610D01*
X0048992Y0152702D02*
X0041992Y0152702D01*
X0041992Y0158574D01*
X0042081Y0158904D01*
X0042252Y0159201D01*
X0042494Y0159443D01*
X0042790Y0159614D01*
X0043121Y0159702D01*
X0048992Y0159702D01*
X0048992Y0152702D01*
X0048992Y0153208D02*
X0049592Y0153208D01*
X0049592Y0153807D02*
X0048992Y0153807D01*
X0048992Y0154405D02*
X0049592Y0154405D01*
X0049592Y0155004D02*
X0048992Y0155004D01*
X0048992Y0155602D02*
X0049592Y0155602D01*
X0049592Y0156201D02*
X0048992Y0156201D01*
X0048992Y0156799D02*
X0049592Y0156799D01*
X0049592Y0157398D02*
X0048992Y0157398D01*
X0048992Y0157996D02*
X0049592Y0157996D01*
X0049592Y0158595D02*
X0048992Y0158595D01*
X0048992Y0159193D02*
X0049592Y0159193D01*
X0042248Y0159193D02*
X0039065Y0159193D01*
X0039065Y0158595D02*
X0041998Y0158595D01*
X0041992Y0157996D02*
X0039065Y0157996D01*
X0039065Y0157398D02*
X0041992Y0157398D01*
X0041992Y0156799D02*
X0039065Y0156799D01*
X0039065Y0156201D02*
X0041992Y0156201D01*
X0041992Y0155602D02*
X0039065Y0155602D01*
X0039065Y0155004D02*
X0041992Y0155004D01*
X0041992Y0154405D02*
X0039065Y0154405D01*
X0039065Y0153807D02*
X0041992Y0153807D01*
X0041992Y0153208D02*
X0039065Y0153208D01*
X0039065Y0135851D02*
X0046982Y0135851D01*
X0045537Y0135253D02*
X0039065Y0135253D01*
X0039065Y0134654D02*
X0044503Y0134654D01*
X0043904Y0134056D02*
X0039065Y0134056D01*
X0039065Y0133457D02*
X0043306Y0133457D01*
X0042792Y0132859D02*
X0039065Y0132859D01*
X0039065Y0132260D02*
X0042544Y0132260D01*
X0042296Y0131662D02*
X0039065Y0131662D01*
X0039065Y0131063D02*
X0042048Y0131063D01*
X0041802Y0130465D02*
X0039065Y0130465D01*
X0039065Y0129866D02*
X0041802Y0129866D01*
X0041802Y0129268D02*
X0039065Y0129268D01*
X0039065Y0128669D02*
X0041802Y0128669D01*
X0041802Y0128071D02*
X0039065Y0128071D01*
X0039065Y0127472D02*
X0041905Y0127472D01*
X0042153Y0126874D02*
X0039065Y0126874D01*
X0039065Y0126275D02*
X0042401Y0126275D01*
X0042649Y0125677D02*
X0039065Y0125677D01*
X0039065Y0125078D02*
X0042961Y0125078D01*
X0043559Y0124480D02*
X0039065Y0124480D01*
X0039065Y0123881D02*
X0044158Y0123881D01*
X0044756Y0123283D02*
X0039065Y0123283D01*
X0039065Y0122684D02*
X0046149Y0122684D01*
X0051254Y0122684D02*
X0064185Y0122684D01*
X0063587Y0123283D02*
X0052647Y0123283D01*
X0053246Y0123881D02*
X0062988Y0123881D01*
X0062390Y0124480D02*
X0053844Y0124480D01*
X0054443Y0125078D02*
X0061791Y0125078D01*
X0061193Y0125677D02*
X0054754Y0125677D01*
X0055568Y0115502D02*
X0071368Y0115502D01*
X0071966Y0114904D02*
X0055602Y0114904D01*
X0055602Y0114305D02*
X0072565Y0114305D01*
X0073163Y0113707D02*
X0055602Y0113707D01*
X0055602Y0113108D02*
X0073762Y0113108D01*
X0074360Y0112510D02*
X0055602Y0112510D01*
X0055602Y0111911D02*
X0074959Y0111911D01*
X0075557Y0111312D02*
X0055602Y0111312D01*
X0055602Y0110714D02*
X0076156Y0110714D01*
X0076754Y0110115D02*
X0055602Y0110115D01*
X0055602Y0109517D02*
X0077353Y0109517D01*
X0077951Y0108918D02*
X0055602Y0108918D01*
X0055602Y0108320D02*
X0078550Y0108320D01*
X0079148Y0107721D02*
X0055602Y0107721D01*
X0055602Y0107123D02*
X0079747Y0107123D01*
X0080345Y0106524D02*
X0056081Y0106524D01*
X0056679Y0105926D02*
X0080944Y0105926D01*
X0081542Y0105327D02*
X0057278Y0105327D01*
X0057876Y0104729D02*
X0082141Y0104729D01*
X0082739Y0104130D02*
X0058475Y0104130D01*
X0059073Y0103532D02*
X0083338Y0103532D01*
X0083936Y0102933D02*
X0059672Y0102933D01*
X0060270Y0102335D02*
X0084535Y0102335D01*
X0085133Y0101736D02*
X0078383Y0101736D01*
X0079760Y0101138D02*
X0085732Y0101138D01*
X0086330Y0100539D02*
X0080797Y0100539D01*
X0081627Y0099941D02*
X0086929Y0099941D01*
X0087527Y0099342D02*
X0082226Y0099342D01*
X0082824Y0098744D02*
X0088126Y0098744D01*
X0088724Y0098145D02*
X0083348Y0098145D01*
X0083694Y0097547D02*
X0089323Y0097547D01*
X0089921Y0096948D02*
X0084039Y0096948D01*
X0084385Y0096350D02*
X0090520Y0096350D01*
X0091118Y0095751D02*
X0084655Y0095751D01*
X0084815Y0095153D02*
X0091717Y0095153D01*
X0092315Y0094554D02*
X0084976Y0094554D01*
X0085136Y0093956D02*
X0092914Y0093956D01*
X0093512Y0093357D02*
X0085285Y0093357D01*
X0085285Y0092759D02*
X0094111Y0092759D01*
X0094709Y0092160D02*
X0085285Y0092160D01*
X0085285Y0091562D02*
X0095308Y0091562D01*
X0095906Y0090963D02*
X0085285Y0090963D01*
X0085192Y0090365D02*
X0096505Y0090365D01*
X0097104Y0089766D02*
X0085031Y0089766D01*
X0084871Y0089168D02*
X0097702Y0089168D01*
X0098301Y0088569D02*
X0084711Y0088569D01*
X0084505Y0087971D02*
X0098899Y0087971D01*
X0099498Y0087372D02*
X0084160Y0087372D01*
X0083814Y0086774D02*
X0100096Y0086774D01*
X0100695Y0086175D02*
X0083468Y0086175D01*
X0083033Y0085577D02*
X0101293Y0085577D01*
X0101892Y0084978D02*
X0082434Y0084978D01*
X0081836Y0084379D02*
X0102490Y0084379D01*
X0103089Y0083781D02*
X0081158Y0083781D01*
X0080121Y0083182D02*
X0103687Y0083182D01*
X0104286Y0082584D02*
X0085382Y0082584D01*
X0086053Y0081985D02*
X0104884Y0081985D01*
X0105483Y0081387D02*
X0086651Y0081387D01*
X0087250Y0080788D02*
X0106081Y0080788D01*
X0106540Y0080329D02*
X0106540Y0080329D01*
X0106680Y0080190D02*
X0087848Y0080190D01*
X0088447Y0079591D02*
X0107278Y0079591D01*
X0108414Y0078993D02*
X0089045Y0078993D01*
X0084217Y0074205D02*
X0076901Y0074205D01*
X0076901Y0074803D02*
X0083618Y0074803D01*
X0083020Y0075402D02*
X0076901Y0075402D01*
X0076901Y0076000D02*
X0082421Y0076000D01*
X0084815Y0073606D02*
X0076901Y0073606D01*
X0076901Y0073008D02*
X0085414Y0073008D01*
X0086012Y0072409D02*
X0076901Y0072409D01*
X0076901Y0071811D02*
X0086611Y0071811D01*
X0087209Y0071212D02*
X0076901Y0071212D01*
X0076901Y0070614D02*
X0087808Y0070614D01*
X0088406Y0070015D02*
X0076929Y0070015D01*
X0077527Y0069417D02*
X0089005Y0069417D01*
X0089603Y0068818D02*
X0078126Y0068818D01*
X0078724Y0068220D02*
X0090202Y0068220D01*
X0090800Y0067621D02*
X0079323Y0067621D01*
X0079921Y0067023D02*
X0091399Y0067023D01*
X0091997Y0066424D02*
X0080520Y0066424D01*
X0081118Y0065826D02*
X0092596Y0065826D01*
X0093194Y0065227D02*
X0081717Y0065227D01*
X0082315Y0064629D02*
X0093793Y0064629D01*
X0094391Y0064030D02*
X0082914Y0064030D01*
X0083512Y0063432D02*
X0094990Y0063432D01*
X0095589Y0062833D02*
X0093247Y0062833D01*
X0093846Y0062235D02*
X0096187Y0062235D01*
X0096786Y0061636D02*
X0094377Y0061636D01*
X0094625Y0061038D02*
X0097384Y0061038D01*
X0097983Y0060439D02*
X0094873Y0060439D01*
X0094917Y0059841D02*
X0098581Y0059841D01*
X0099180Y0059242D02*
X0094917Y0059242D01*
X0094851Y0058643D02*
X0099778Y0058643D01*
X0100377Y0058045D02*
X0094603Y0058045D01*
X0094355Y0057446D02*
X0100975Y0057446D01*
X0101574Y0056848D02*
X0093793Y0056848D01*
X0093121Y0056249D02*
X0102172Y0056249D01*
X0102771Y0055651D02*
X0060483Y0055651D01*
X0061081Y0056249D02*
X0081694Y0056249D01*
X0080479Y0056848D02*
X0061680Y0056848D01*
X0062278Y0057446D02*
X0079881Y0057446D01*
X0079282Y0058045D02*
X0062877Y0058045D01*
X0063475Y0058643D02*
X0078684Y0058643D01*
X0078085Y0059242D02*
X0064074Y0059242D01*
X0064672Y0059841D02*
X0077487Y0059841D01*
X0076888Y0060439D02*
X0065271Y0060439D01*
X0065869Y0061038D02*
X0076290Y0061038D01*
X0075691Y0061636D02*
X0066468Y0061636D01*
X0067066Y0062235D02*
X0075093Y0062235D01*
X0074494Y0062833D02*
X0067665Y0062833D01*
X0068264Y0063432D02*
X0073896Y0063432D01*
X0073297Y0064030D02*
X0068862Y0064030D01*
X0069461Y0064629D02*
X0072698Y0064629D01*
X0072100Y0065227D02*
X0070059Y0065227D01*
X0065231Y0070015D02*
X0039065Y0070015D01*
X0039065Y0069417D02*
X0064632Y0069417D01*
X0064034Y0068818D02*
X0039065Y0068818D01*
X0039065Y0068220D02*
X0063435Y0068220D01*
X0062836Y0067621D02*
X0039065Y0067621D01*
X0039065Y0067023D02*
X0062238Y0067023D01*
X0061639Y0066424D02*
X0039065Y0066424D01*
X0039065Y0065826D02*
X0061041Y0065826D01*
X0060442Y0065227D02*
X0039065Y0065227D01*
X0039065Y0064629D02*
X0059844Y0064629D01*
X0059245Y0064030D02*
X0039065Y0064030D01*
X0039065Y0063432D02*
X0058647Y0063432D01*
X0058048Y0062833D02*
X0039065Y0062833D01*
X0039065Y0062235D02*
X0057450Y0062235D01*
X0056851Y0061636D02*
X0039065Y0061636D01*
X0039065Y0061038D02*
X0056253Y0061038D01*
X0055654Y0060439D02*
X0039065Y0060439D01*
X0039065Y0059841D02*
X0055056Y0059841D01*
X0054457Y0059242D02*
X0039065Y0059242D01*
X0039065Y0058643D02*
X0053859Y0058643D01*
X0053260Y0058045D02*
X0039065Y0058045D01*
X0039065Y0057446D02*
X0052662Y0057446D01*
X0052063Y0056848D02*
X0039065Y0056848D01*
X0039065Y0056249D02*
X0051465Y0056249D01*
X0050866Y0055651D02*
X0039065Y0055651D01*
X0039065Y0055052D02*
X0050268Y0055052D01*
X0049669Y0054454D02*
X0039065Y0054454D01*
X0039065Y0053855D02*
X0049149Y0053855D01*
X0048901Y0053257D02*
X0039065Y0053257D01*
X0039065Y0052658D02*
X0048687Y0052658D01*
X0048687Y0052060D02*
X0039065Y0052060D01*
X0039065Y0051461D02*
X0048687Y0051461D01*
X0048687Y0050863D02*
X0039065Y0050863D01*
X0039065Y0050264D02*
X0048687Y0050264D01*
X0048687Y0049666D02*
X0039065Y0049666D01*
X0039065Y0049067D02*
X0048687Y0049067D01*
X0048687Y0048469D02*
X0039065Y0048469D01*
X0039065Y0047870D02*
X0048687Y0047870D01*
X0048687Y0047272D02*
X0039065Y0047272D01*
X0039065Y0046673D02*
X0048687Y0046673D01*
X0048687Y0046075D02*
X0039065Y0046075D01*
X0039065Y0045476D02*
X0048687Y0045476D01*
X0048687Y0044878D02*
X0039065Y0044878D01*
X0039065Y0044279D02*
X0048687Y0044279D01*
X0048687Y0043681D02*
X0039065Y0043681D01*
X0039065Y0043082D02*
X0048687Y0043082D01*
X0048687Y0042484D02*
X0039065Y0042484D01*
X0039065Y0041885D02*
X0048687Y0041885D01*
X0048687Y0041287D02*
X0039065Y0041287D01*
X0039065Y0040688D02*
X0048687Y0040688D01*
X0048687Y0040090D02*
X0039065Y0040090D01*
X0039065Y0039491D02*
X0048687Y0039491D01*
X0048687Y0038893D02*
X0039065Y0038893D01*
X0039065Y0038294D02*
X0048250Y0038294D01*
X0048219Y0037696D02*
X0039065Y0037696D01*
X0039065Y0037097D02*
X0048219Y0037097D01*
X0048219Y0036499D02*
X0039065Y0036499D01*
X0039065Y0035900D02*
X0048219Y0035900D01*
X0048219Y0035302D02*
X0039065Y0035302D01*
X0039065Y0034703D02*
X0048219Y0034703D01*
X0048219Y0034105D02*
X0039065Y0034105D01*
X0039065Y0033506D02*
X0048219Y0033506D01*
X0048219Y0032908D02*
X0039065Y0032908D01*
X0039065Y0032309D02*
X0048219Y0032309D01*
X0048219Y0031710D02*
X0039065Y0031710D01*
X0039065Y0031112D02*
X0048688Y0031112D01*
X0055487Y0031112D02*
X0060163Y0031112D01*
X0060449Y0030966D02*
X0061088Y0030759D01*
X0061751Y0030654D01*
X0061787Y0030654D01*
X0061787Y0034622D01*
X0057819Y0034622D01*
X0057819Y0034586D01*
X0057924Y0033922D01*
X0058132Y0033284D01*
X0058437Y0032685D01*
X0058832Y0032141D01*
X0059307Y0031666D01*
X0059850Y0031271D01*
X0060449Y0030966D01*
X0061787Y0031112D02*
X0062387Y0031112D01*
X0062387Y0030654D02*
X0062423Y0030654D01*
X0063087Y0030759D01*
X0063726Y0030966D01*
X0064325Y0031271D01*
X0064868Y0031666D01*
X0065343Y0032141D01*
X0065738Y0032685D01*
X0066043Y0033284D01*
X0066251Y0033922D01*
X0066356Y0034586D01*
X0066356Y0034622D01*
X0062387Y0034622D01*
X0062387Y0030654D01*
X0062387Y0031710D02*
X0061787Y0031710D01*
X0061787Y0032309D02*
X0062387Y0032309D01*
X0062387Y0032908D02*
X0061787Y0032908D01*
X0061787Y0033506D02*
X0062387Y0033506D01*
X0062387Y0034105D02*
X0061787Y0034105D01*
X0061787Y0034622D02*
X0062387Y0034622D01*
X0062387Y0035222D01*
X0061787Y0035222D01*
X0061787Y0034622D01*
X0061787Y0034703D02*
X0055956Y0034703D01*
X0055956Y0034105D02*
X0057895Y0034105D01*
X0058059Y0033506D02*
X0055956Y0033506D01*
X0055956Y0032908D02*
X0058323Y0032908D01*
X0058710Y0032309D02*
X0055956Y0032309D01*
X0055956Y0031710D02*
X0059262Y0031710D01*
X0057819Y0035222D02*
X0061787Y0035222D01*
X0061787Y0039191D01*
X0061751Y0039191D01*
X0061088Y0039085D01*
X0060449Y0038878D01*
X0059850Y0038573D01*
X0059307Y0038178D01*
X0058832Y0037703D01*
X0058437Y0037159D01*
X0058132Y0036561D01*
X0057924Y0035922D01*
X0057819Y0035258D01*
X0057819Y0035222D01*
X0057826Y0035302D02*
X0055956Y0035302D01*
X0055956Y0035900D02*
X0057921Y0035900D01*
X0058111Y0036499D02*
X0055956Y0036499D01*
X0055956Y0037097D02*
X0058405Y0037097D01*
X0058826Y0037696D02*
X0055956Y0037696D01*
X0055925Y0038294D02*
X0059467Y0038294D01*
X0060494Y0038893D02*
X0055487Y0038893D01*
X0055487Y0039491D02*
X0102277Y0039491D01*
X0102875Y0038893D02*
X0063680Y0038893D01*
X0063726Y0038878D02*
X0063087Y0039085D01*
X0062423Y0039191D01*
X0062387Y0039191D01*
X0062387Y0035222D01*
X0066356Y0035222D01*
X0066356Y0035258D01*
X0066251Y0035922D01*
X0066043Y0036561D01*
X0065738Y0037159D01*
X0065343Y0037703D01*
X0064868Y0038178D01*
X0064325Y0038573D01*
X0063726Y0038878D01*
X0064708Y0038294D02*
X0070119Y0038294D01*
X0069896Y0038202D02*
X0068808Y0037113D01*
X0068219Y0035692D01*
X0068219Y0034153D01*
X0068808Y0032731D01*
X0069896Y0031642D01*
X0071318Y0031054D01*
X0072857Y0031054D01*
X0074279Y0031642D01*
X0075367Y0032731D01*
X0075956Y0034153D01*
X0075956Y0035692D01*
X0075367Y0037113D01*
X0074279Y0038202D01*
X0072857Y0038791D01*
X0071318Y0038791D01*
X0069896Y0038202D01*
X0069390Y0037696D02*
X0065348Y0037696D01*
X0065770Y0037097D02*
X0068801Y0037097D01*
X0068553Y0036499D02*
X0066063Y0036499D01*
X0066254Y0035900D02*
X0068305Y0035900D01*
X0068219Y0035302D02*
X0066349Y0035302D01*
X0066280Y0034105D02*
X0068239Y0034105D01*
X0068219Y0034703D02*
X0062387Y0034703D01*
X0062387Y0035302D02*
X0061787Y0035302D01*
X0061787Y0035900D02*
X0062387Y0035900D01*
X0062387Y0036499D02*
X0061787Y0036499D01*
X0061787Y0037097D02*
X0062387Y0037097D01*
X0062387Y0037696D02*
X0061787Y0037696D01*
X0061787Y0038294D02*
X0062387Y0038294D01*
X0062387Y0038893D02*
X0061787Y0038893D01*
X0066115Y0033506D02*
X0068487Y0033506D01*
X0068735Y0032908D02*
X0065852Y0032908D01*
X0065465Y0032309D02*
X0069230Y0032309D01*
X0069828Y0031710D02*
X0064912Y0031710D01*
X0064012Y0031112D02*
X0071177Y0031112D01*
X0072998Y0031112D02*
X0108255Y0031112D01*
X0107786Y0031710D02*
X0074347Y0031710D01*
X0074945Y0032309D02*
X0107786Y0032309D01*
X0107786Y0032908D02*
X0075440Y0032908D01*
X0075688Y0033506D02*
X0107786Y0033506D01*
X0107664Y0034105D02*
X0075936Y0034105D01*
X0075956Y0034703D02*
X0107065Y0034703D01*
X0106466Y0035302D02*
X0075956Y0035302D01*
X0075870Y0035900D02*
X0105868Y0035900D01*
X0105269Y0036499D02*
X0075622Y0036499D01*
X0075374Y0037097D02*
X0104671Y0037097D01*
X0104072Y0037696D02*
X0074785Y0037696D01*
X0074055Y0038294D02*
X0103474Y0038294D01*
X0101678Y0040090D02*
X0055487Y0040090D01*
X0055487Y0040688D02*
X0101080Y0040688D01*
X0100481Y0041287D02*
X0055487Y0041287D01*
X0055487Y0041885D02*
X0099883Y0041885D01*
X0099284Y0042484D02*
X0055487Y0042484D01*
X0055487Y0043082D02*
X0098686Y0043082D01*
X0098087Y0043681D02*
X0055487Y0043681D01*
X0055487Y0044279D02*
X0097489Y0044279D01*
X0096890Y0044878D02*
X0055487Y0044878D01*
X0055487Y0045476D02*
X0096292Y0045476D01*
X0095693Y0046075D02*
X0055487Y0046075D01*
X0055487Y0046673D02*
X0095095Y0046673D01*
X0094496Y0047272D02*
X0055487Y0047272D01*
X0055487Y0047870D02*
X0093898Y0047870D01*
X0093299Y0048469D02*
X0055487Y0048469D01*
X0039065Y0030513D02*
X0154000Y0030513D01*
X0154000Y0029915D02*
X0039065Y0029915D01*
X0039065Y0029316D02*
X0154000Y0029316D01*
X0154000Y0028908D02*
X0154021Y0028828D01*
X0039065Y0028828D01*
X0039065Y0073633D01*
X0039307Y0073047D01*
X0039731Y0072413D01*
X0040271Y0071873D01*
X0040906Y0071449D01*
X0041611Y0071157D01*
X0042359Y0071008D01*
X0045016Y0071008D01*
X0045016Y0074583D01*
X0045616Y0074583D01*
X0045616Y0075183D01*
X0045016Y0075183D01*
X0045016Y0078757D01*
X0042359Y0078757D01*
X0041611Y0078609D01*
X0040906Y0078316D01*
X0040271Y0077892D01*
X0039731Y0077353D01*
X0039307Y0076718D01*
X0039065Y0076132D01*
X0039065Y0236764D01*
X0168260Y0236764D01*
X0168260Y0041958D01*
X0168098Y0042120D01*
X0167802Y0042291D01*
X0167471Y0042380D01*
X0161600Y0042380D01*
X0161600Y0035380D01*
X0161000Y0035380D01*
X0161000Y0042380D01*
X0155129Y0042380D01*
X0154798Y0042291D01*
X0154502Y0042120D01*
X0154260Y0041878D01*
X0154089Y0041581D01*
X0154000Y0041251D01*
X0154000Y0035380D01*
X0161000Y0035380D01*
X0161000Y0034780D01*
X0154000Y0034780D01*
X0154000Y0028908D01*
X0154000Y0031112D02*
X0132565Y0031112D01*
X0133914Y0031710D02*
X0154000Y0031710D01*
X0154000Y0032309D02*
X0134512Y0032309D01*
X0135007Y0032908D02*
X0154000Y0032908D01*
X0154000Y0033506D02*
X0135255Y0033506D01*
X0135503Y0034105D02*
X0154000Y0034105D01*
X0154000Y0034703D02*
X0135523Y0034703D01*
X0135523Y0035302D02*
X0161000Y0035302D01*
X0161000Y0035900D02*
X0161600Y0035900D01*
X0161600Y0036499D02*
X0161000Y0036499D01*
X0161000Y0037097D02*
X0161600Y0037097D01*
X0161600Y0037696D02*
X0161000Y0037696D01*
X0161000Y0038294D02*
X0161600Y0038294D01*
X0161600Y0038893D02*
X0161000Y0038893D01*
X0161000Y0039491D02*
X0161600Y0039491D01*
X0161600Y0040090D02*
X0161000Y0040090D01*
X0161000Y0040688D02*
X0161600Y0040688D01*
X0161600Y0041287D02*
X0161000Y0041287D01*
X0161000Y0041885D02*
X0161600Y0041885D01*
X0168260Y0042484D02*
X0135054Y0042484D01*
X0135054Y0043082D02*
X0168260Y0043082D01*
X0168260Y0043681D02*
X0135054Y0043681D01*
X0135054Y0044279D02*
X0168260Y0044279D01*
X0168260Y0044878D02*
X0135054Y0044878D01*
X0135054Y0045476D02*
X0168260Y0045476D01*
X0168260Y0046075D02*
X0135054Y0046075D01*
X0135054Y0046673D02*
X0168260Y0046673D01*
X0168260Y0047272D02*
X0135054Y0047272D01*
X0135054Y0047870D02*
X0168260Y0047870D01*
X0168260Y0048469D02*
X0163371Y0048469D01*
X0162672Y0048180D02*
X0165209Y0049230D01*
X0167150Y0051171D01*
X0168200Y0053707D01*
X0168200Y0056452D01*
X0167150Y0058988D01*
X0165209Y0060929D01*
X0162672Y0061980D01*
X0159927Y0061980D01*
X0157391Y0060929D01*
X0155450Y0058988D01*
X0154400Y0056452D01*
X0154400Y0053707D01*
X0155450Y0051171D01*
X0157391Y0049230D01*
X0159927Y0048180D01*
X0162672Y0048180D01*
X0164816Y0049067D02*
X0168260Y0049067D01*
X0168260Y0049666D02*
X0165644Y0049666D01*
X0166243Y0050264D02*
X0168260Y0050264D01*
X0168260Y0050863D02*
X0166841Y0050863D01*
X0167270Y0051461D02*
X0168260Y0051461D01*
X0168260Y0052060D02*
X0167518Y0052060D01*
X0167766Y0052658D02*
X0168260Y0052658D01*
X0168260Y0053257D02*
X0168014Y0053257D01*
X0168200Y0053855D02*
X0168260Y0053855D01*
X0168260Y0054454D02*
X0168200Y0054454D01*
X0168200Y0055052D02*
X0168260Y0055052D01*
X0168260Y0055651D02*
X0168200Y0055651D01*
X0168200Y0056249D02*
X0168260Y0056249D01*
X0168260Y0056848D02*
X0168036Y0056848D01*
X0168260Y0057446D02*
X0167788Y0057446D01*
X0167540Y0058045D02*
X0168260Y0058045D01*
X0168260Y0058643D02*
X0167292Y0058643D01*
X0166896Y0059242D02*
X0168260Y0059242D01*
X0168260Y0059841D02*
X0166297Y0059841D01*
X0165699Y0060439D02*
X0168260Y0060439D01*
X0168260Y0061038D02*
X0164947Y0061038D01*
X0163502Y0061636D02*
X0168260Y0061636D01*
X0168260Y0062235D02*
X0129897Y0062235D01*
X0129897Y0062833D02*
X0168260Y0062833D01*
X0168260Y0063432D02*
X0129897Y0063432D01*
X0129897Y0064030D02*
X0168260Y0064030D01*
X0168260Y0064629D02*
X0129897Y0064629D01*
X0129897Y0065227D02*
X0133227Y0065227D01*
X0133118Y0065336D02*
X0133360Y0065094D01*
X0133656Y0064923D01*
X0133987Y0064835D01*
X0138780Y0064835D01*
X0138780Y0070756D01*
X0139380Y0070756D01*
X0139380Y0071356D01*
X0145301Y0071356D01*
X0145301Y0074848D01*
X0145535Y0074750D01*
X0154720Y0074750D01*
X0154836Y0074634D01*
X0156361Y0074002D01*
X0164507Y0074002D01*
X0166032Y0074634D01*
X0167198Y0075801D01*
X0167830Y0077325D01*
X0167830Y0078975D01*
X0167198Y0080500D01*
X0166032Y0081667D01*
X0164507Y0082298D01*
X0156361Y0082298D01*
X0154836Y0081667D01*
X0154720Y0081550D01*
X0147620Y0081550D01*
X0147211Y0081960D01*
X0145961Y0082477D01*
X0145645Y0082477D01*
X0145645Y0121033D01*
X0158435Y0133823D01*
X0158943Y0133613D01*
X0161688Y0133613D01*
X0164224Y0134663D01*
X0166165Y0136604D01*
X0167216Y0139140D01*
X0167216Y0141885D01*
X0166165Y0144421D01*
X0164224Y0146362D01*
X0161688Y0147413D01*
X0158943Y0147413D01*
X0156407Y0146362D01*
X0154466Y0144421D01*
X0153416Y0141885D01*
X0153416Y0139140D01*
X0153626Y0138632D01*
X0140319Y0125324D01*
X0140319Y0125324D01*
X0139363Y0124368D01*
X0138845Y0123118D01*
X0138845Y0080369D01*
X0139363Y0079120D01*
X0140319Y0078163D01*
X0141205Y0077277D01*
X0139380Y0077277D01*
X0139380Y0071356D01*
X0138780Y0071356D01*
X0138780Y0077277D01*
X0133987Y0077277D01*
X0133656Y0077189D01*
X0133360Y0077017D01*
X0133118Y0076775D01*
X0132947Y0076479D01*
X0132858Y0076148D01*
X0132858Y0071356D01*
X0138779Y0071356D01*
X0138779Y0070756D01*
X0132858Y0070756D01*
X0132858Y0065963D01*
X0132947Y0065633D01*
X0133118Y0065336D01*
X0132895Y0065826D02*
X0129897Y0065826D01*
X0129897Y0066424D02*
X0132858Y0066424D01*
X0132858Y0067023D02*
X0129897Y0067023D01*
X0129897Y0067621D02*
X0132858Y0067621D01*
X0132858Y0068220D02*
X0129897Y0068220D01*
X0129897Y0068818D02*
X0132858Y0068818D01*
X0132858Y0069417D02*
X0129897Y0069417D01*
X0129897Y0070015D02*
X0132858Y0070015D01*
X0132858Y0070614D02*
X0129897Y0070614D01*
X0129897Y0071212D02*
X0138779Y0071212D01*
X0138780Y0070614D02*
X0139380Y0070614D01*
X0139380Y0070756D02*
X0139380Y0064835D01*
X0144172Y0064835D01*
X0144503Y0064923D01*
X0144799Y0065094D01*
X0145041Y0065336D01*
X0145212Y0065633D01*
X0145301Y0065963D01*
X0145301Y0070756D01*
X0139380Y0070756D01*
X0139380Y0071212D02*
X0168260Y0071212D01*
X0168260Y0070614D02*
X0145301Y0070614D01*
X0145301Y0070015D02*
X0168260Y0070015D01*
X0168260Y0069417D02*
X0145301Y0069417D01*
X0145301Y0068818D02*
X0168260Y0068818D01*
X0168260Y0068220D02*
X0145301Y0068220D01*
X0145301Y0067621D02*
X0168260Y0067621D01*
X0168260Y0067023D02*
X0145301Y0067023D01*
X0145301Y0066424D02*
X0168260Y0066424D01*
X0168260Y0065826D02*
X0145264Y0065826D01*
X0144932Y0065227D02*
X0168260Y0065227D01*
X0168260Y0071811D02*
X0145301Y0071811D01*
X0145301Y0072409D02*
X0168260Y0072409D01*
X0168260Y0073008D02*
X0145301Y0073008D01*
X0145301Y0073606D02*
X0168260Y0073606D01*
X0168260Y0074205D02*
X0164996Y0074205D01*
X0166201Y0074803D02*
X0168260Y0074803D01*
X0168260Y0075402D02*
X0166800Y0075402D01*
X0167281Y0076000D02*
X0168260Y0076000D01*
X0168260Y0076599D02*
X0167529Y0076599D01*
X0167777Y0077197D02*
X0168260Y0077197D01*
X0168260Y0077796D02*
X0167830Y0077796D01*
X0167830Y0078394D02*
X0168260Y0078394D01*
X0168260Y0078993D02*
X0167823Y0078993D01*
X0167575Y0079591D02*
X0168260Y0079591D01*
X0168260Y0080190D02*
X0167327Y0080190D01*
X0166910Y0080788D02*
X0168260Y0080788D01*
X0168260Y0081387D02*
X0166312Y0081387D01*
X0165263Y0081985D02*
X0168260Y0081985D01*
X0168260Y0082584D02*
X0145645Y0082584D01*
X0145645Y0083182D02*
X0168260Y0083182D01*
X0168260Y0083781D02*
X0145645Y0083781D01*
X0145645Y0084379D02*
X0155450Y0084379D01*
X0154836Y0084634D02*
X0156361Y0084002D01*
X0164507Y0084002D01*
X0166032Y0084634D01*
X0167198Y0085801D01*
X0167830Y0087325D01*
X0167830Y0088975D01*
X0167198Y0090500D01*
X0166032Y0091667D01*
X0164507Y0092298D01*
X0156361Y0092298D01*
X0154836Y0091667D01*
X0153669Y0090500D01*
X0153038Y0088975D01*
X0153038Y0087325D01*
X0153669Y0085801D01*
X0154836Y0084634D01*
X0154492Y0084978D02*
X0145645Y0084978D01*
X0145645Y0085577D02*
X0153894Y0085577D01*
X0153514Y0086175D02*
X0145645Y0086175D01*
X0145645Y0086774D02*
X0153266Y0086774D01*
X0153038Y0087372D02*
X0145645Y0087372D01*
X0145645Y0087971D02*
X0153038Y0087971D01*
X0153038Y0088569D02*
X0145645Y0088569D01*
X0145645Y0089168D02*
X0153117Y0089168D01*
X0153365Y0089766D02*
X0145645Y0089766D01*
X0145645Y0090365D02*
X0153613Y0090365D01*
X0154132Y0090963D02*
X0145645Y0090963D01*
X0145645Y0091562D02*
X0154731Y0091562D01*
X0156027Y0092160D02*
X0145645Y0092160D01*
X0145645Y0092759D02*
X0168260Y0092759D01*
X0168260Y0093357D02*
X0145645Y0093357D01*
X0145645Y0093956D02*
X0168260Y0093956D01*
X0168260Y0094554D02*
X0165839Y0094554D01*
X0166032Y0094634D02*
X0167198Y0095801D01*
X0167830Y0097325D01*
X0167830Y0098975D01*
X0167198Y0100500D01*
X0166032Y0101667D01*
X0164507Y0102298D01*
X0156361Y0102298D01*
X0154836Y0101667D01*
X0153669Y0100500D01*
X0153038Y0098975D01*
X0153038Y0097325D01*
X0153669Y0095801D01*
X0154836Y0094634D01*
X0156361Y0094002D01*
X0164507Y0094002D01*
X0166032Y0094634D01*
X0166550Y0095153D02*
X0168260Y0095153D01*
X0168260Y0095751D02*
X0167149Y0095751D01*
X0167426Y0096350D02*
X0168260Y0096350D01*
X0168260Y0096948D02*
X0167674Y0096948D01*
X0167830Y0097547D02*
X0168260Y0097547D01*
X0168260Y0098145D02*
X0167830Y0098145D01*
X0167830Y0098744D02*
X0168260Y0098744D01*
X0168260Y0099342D02*
X0167678Y0099342D01*
X0167430Y0099941D02*
X0168260Y0099941D01*
X0168260Y0100539D02*
X0167159Y0100539D01*
X0166561Y0101138D02*
X0168260Y0101138D01*
X0168260Y0101736D02*
X0165864Y0101736D01*
X0168260Y0102335D02*
X0145645Y0102335D01*
X0145645Y0102933D02*
X0168260Y0102933D01*
X0168260Y0103532D02*
X0145645Y0103532D01*
X0145645Y0104130D02*
X0168260Y0104130D01*
X0168260Y0104729D02*
X0145645Y0104729D01*
X0145645Y0105327D02*
X0168260Y0105327D01*
X0168260Y0105926D02*
X0145645Y0105926D01*
X0145645Y0106524D02*
X0168260Y0106524D01*
X0168260Y0107123D02*
X0145645Y0107123D01*
X0145645Y0107721D02*
X0168260Y0107721D01*
X0168260Y0108320D02*
X0145645Y0108320D01*
X0145645Y0108918D02*
X0168260Y0108918D01*
X0168260Y0109517D02*
X0145645Y0109517D01*
X0145645Y0110115D02*
X0168260Y0110115D01*
X0168260Y0110714D02*
X0145645Y0110714D01*
X0145645Y0111312D02*
X0168260Y0111312D01*
X0168260Y0111911D02*
X0145645Y0111911D01*
X0145645Y0112510D02*
X0168260Y0112510D01*
X0168260Y0113108D02*
X0145645Y0113108D01*
X0145645Y0113707D02*
X0153849Y0113707D01*
X0153943Y0113613D02*
X0166689Y0113613D01*
X0167216Y0114140D01*
X0167216Y0126885D01*
X0166689Y0127413D01*
X0153943Y0127413D01*
X0153416Y0126885D01*
X0153416Y0114140D01*
X0153943Y0113613D01*
X0153416Y0114305D02*
X0145645Y0114305D01*
X0145645Y0114904D02*
X0153416Y0114904D01*
X0153416Y0115502D02*
X0145645Y0115502D01*
X0145645Y0116101D02*
X0153416Y0116101D01*
X0153416Y0116699D02*
X0145645Y0116699D01*
X0145645Y0117298D02*
X0153416Y0117298D01*
X0153416Y0117896D02*
X0145645Y0117896D01*
X0145645Y0118495D02*
X0153416Y0118495D01*
X0153416Y0119093D02*
X0145645Y0119093D01*
X0145645Y0119692D02*
X0153416Y0119692D01*
X0153416Y0120290D02*
X0145645Y0120290D01*
X0145645Y0120889D02*
X0153416Y0120889D01*
X0153416Y0121487D02*
X0146099Y0121487D01*
X0146697Y0122086D02*
X0153416Y0122086D01*
X0153416Y0122684D02*
X0147296Y0122684D01*
X0147894Y0123283D02*
X0153416Y0123283D01*
X0153416Y0123881D02*
X0148493Y0123881D01*
X0149091Y0124480D02*
X0153416Y0124480D01*
X0153416Y0125078D02*
X0149690Y0125078D01*
X0150288Y0125677D02*
X0153416Y0125677D01*
X0153416Y0126275D02*
X0150887Y0126275D01*
X0151485Y0126874D02*
X0153416Y0126874D01*
X0152682Y0128071D02*
X0168260Y0128071D01*
X0168260Y0128669D02*
X0153281Y0128669D01*
X0153879Y0129268D02*
X0168260Y0129268D01*
X0168260Y0129866D02*
X0154478Y0129866D01*
X0155076Y0130465D02*
X0168260Y0130465D01*
X0168260Y0131063D02*
X0155675Y0131063D01*
X0156273Y0131662D02*
X0168260Y0131662D01*
X0168260Y0132260D02*
X0156872Y0132260D01*
X0157470Y0132859D02*
X0168260Y0132859D01*
X0168260Y0133457D02*
X0158069Y0133457D01*
X0162759Y0134056D02*
X0168260Y0134056D01*
X0168260Y0134654D02*
X0164203Y0134654D01*
X0164814Y0135253D02*
X0168260Y0135253D01*
X0168260Y0135851D02*
X0165413Y0135851D01*
X0166011Y0136450D02*
X0168260Y0136450D01*
X0168260Y0137048D02*
X0166349Y0137048D01*
X0166597Y0137647D02*
X0168260Y0137647D01*
X0168260Y0138245D02*
X0166845Y0138245D01*
X0167093Y0138844D02*
X0168260Y0138844D01*
X0168260Y0139443D02*
X0167216Y0139443D01*
X0167216Y0140041D02*
X0168260Y0140041D01*
X0168260Y0140640D02*
X0167216Y0140640D01*
X0167216Y0141238D02*
X0168260Y0141238D01*
X0168260Y0141837D02*
X0167216Y0141837D01*
X0166988Y0142435D02*
X0168260Y0142435D01*
X0168260Y0143034D02*
X0166740Y0143034D01*
X0166492Y0143632D02*
X0168260Y0143632D01*
X0168260Y0144231D02*
X0166244Y0144231D01*
X0165757Y0144829D02*
X0168260Y0144829D01*
X0168260Y0145428D02*
X0165159Y0145428D01*
X0164560Y0146026D02*
X0168260Y0146026D01*
X0168260Y0146625D02*
X0163590Y0146625D01*
X0162146Y0147223D02*
X0168260Y0147223D01*
X0168260Y0147822D02*
X0146432Y0147822D01*
X0146432Y0148420D02*
X0168260Y0148420D01*
X0168260Y0149019D02*
X0146432Y0149019D01*
X0146432Y0149617D02*
X0168260Y0149617D01*
X0168260Y0150216D02*
X0146432Y0150216D01*
X0146432Y0150814D02*
X0168260Y0150814D01*
X0168260Y0151413D02*
X0146432Y0151413D01*
X0146432Y0152011D02*
X0168260Y0152011D01*
X0168260Y0152610D02*
X0146432Y0152610D01*
X0146432Y0153208D02*
X0168260Y0153208D01*
X0168260Y0153807D02*
X0146432Y0153807D01*
X0146432Y0154405D02*
X0168260Y0154405D01*
X0168260Y0155004D02*
X0146432Y0155004D01*
X0146432Y0155602D02*
X0168260Y0155602D01*
X0168260Y0156201D02*
X0146432Y0156201D01*
X0146432Y0156799D02*
X0153717Y0156799D01*
X0153696Y0156805D02*
X0154026Y0156717D01*
X0159898Y0156717D01*
X0159898Y0163716D01*
X0160498Y0163716D01*
X0160498Y0156717D01*
X0166369Y0156717D01*
X0166699Y0156805D01*
X0166996Y0156976D01*
X0167238Y0157218D01*
X0167409Y0157515D01*
X0167498Y0157845D01*
X0167498Y0163717D01*
X0160498Y0163717D01*
X0160498Y0164317D01*
X0159898Y0164317D01*
X0159898Y0171317D01*
X0154026Y0171317D01*
X0153696Y0171228D01*
X0153399Y0171057D01*
X0153157Y0170815D01*
X0152986Y0170518D01*
X0152898Y0170188D01*
X0152898Y0164317D01*
X0159898Y0164317D01*
X0159898Y0163717D01*
X0152898Y0163717D01*
X0152898Y0157845D01*
X0152986Y0157515D01*
X0153157Y0157218D01*
X0153399Y0156976D01*
X0153696Y0156805D01*
X0153054Y0157398D02*
X0146432Y0157398D01*
X0146432Y0157996D02*
X0152898Y0157996D01*
X0152898Y0158595D02*
X0146432Y0158595D01*
X0146378Y0159193D02*
X0152898Y0159193D01*
X0152898Y0159792D02*
X0146130Y0159792D01*
X0145837Y0160390D02*
X0152898Y0160390D01*
X0152898Y0160989D02*
X0145238Y0160989D01*
X0144640Y0161587D02*
X0152898Y0161587D01*
X0152898Y0162186D02*
X0144041Y0162186D01*
X0143443Y0162784D02*
X0152898Y0162784D01*
X0152898Y0163383D02*
X0142844Y0163383D01*
X0142246Y0163981D02*
X0159898Y0163981D01*
X0159898Y0163383D02*
X0160498Y0163383D01*
X0160498Y0163981D02*
X0168260Y0163981D01*
X0168260Y0163383D02*
X0167498Y0163383D01*
X0167498Y0162784D02*
X0168260Y0162784D01*
X0168260Y0162186D02*
X0167498Y0162186D01*
X0167498Y0161587D02*
X0168260Y0161587D01*
X0168260Y0160989D02*
X0167498Y0160989D01*
X0167498Y0160390D02*
X0168260Y0160390D01*
X0168260Y0159792D02*
X0167498Y0159792D01*
X0167498Y0159193D02*
X0168260Y0159193D01*
X0168260Y0158595D02*
X0167498Y0158595D01*
X0167498Y0157996D02*
X0168260Y0157996D01*
X0168260Y0157398D02*
X0167342Y0157398D01*
X0166678Y0156799D02*
X0168260Y0156799D01*
X0167498Y0164317D02*
X0160498Y0164317D01*
X0160498Y0171317D01*
X0166369Y0171317D01*
X0166699Y0171228D01*
X0166996Y0171057D01*
X0167238Y0170815D01*
X0167409Y0170518D01*
X0167498Y0170188D01*
X0167498Y0164317D01*
X0167498Y0164580D02*
X0168260Y0164580D01*
X0168260Y0165179D02*
X0167498Y0165179D01*
X0167498Y0165777D02*
X0168260Y0165777D01*
X0168260Y0166376D02*
X0167498Y0166376D01*
X0167498Y0166974D02*
X0168260Y0166974D01*
X0168260Y0167573D02*
X0167498Y0167573D01*
X0167498Y0168171D02*
X0168260Y0168171D01*
X0168260Y0168770D02*
X0167498Y0168770D01*
X0167498Y0169368D02*
X0168260Y0169368D01*
X0168260Y0169967D02*
X0167498Y0169967D01*
X0167382Y0170565D02*
X0168260Y0170565D01*
X0168260Y0171164D02*
X0166811Y0171164D01*
X0168260Y0171762D02*
X0132752Y0171762D01*
X0133350Y0172361D02*
X0168260Y0172361D01*
X0168260Y0172959D02*
X0133949Y0172959D01*
X0134547Y0173558D02*
X0168260Y0173558D01*
X0168260Y0174156D02*
X0135146Y0174156D01*
X0135744Y0174755D02*
X0168260Y0174755D01*
X0168260Y0175353D02*
X0136343Y0175353D01*
X0136941Y0175952D02*
X0168260Y0175952D01*
X0168260Y0176550D02*
X0137540Y0176550D01*
X0138138Y0177149D02*
X0158747Y0177149D01*
X0158825Y0177117D02*
X0161570Y0177117D01*
X0164106Y0178167D01*
X0166047Y0180108D01*
X0167098Y0182644D01*
X0167098Y0185389D01*
X0166047Y0187925D01*
X0164106Y0189866D01*
X0161570Y0190917D01*
X0158825Y0190917D01*
X0156289Y0189866D01*
X0154348Y0187925D01*
X0153298Y0185389D01*
X0153298Y0182644D01*
X0154348Y0180108D01*
X0156289Y0178167D01*
X0158825Y0177117D01*
X0157302Y0177747D02*
X0138737Y0177747D01*
X0139335Y0178346D02*
X0156110Y0178346D01*
X0155512Y0178944D02*
X0139934Y0178944D01*
X0140532Y0179543D02*
X0154913Y0179543D01*
X0154334Y0180141D02*
X0141131Y0180141D01*
X0141729Y0180740D02*
X0154086Y0180740D01*
X0153838Y0181338D02*
X0142328Y0181338D01*
X0142926Y0181937D02*
X0153591Y0181937D01*
X0153343Y0182535D02*
X0143525Y0182535D01*
X0144123Y0183134D02*
X0153298Y0183134D01*
X0153298Y0183732D02*
X0144722Y0183732D01*
X0145320Y0184331D02*
X0153298Y0184331D01*
X0153298Y0184929D02*
X0145919Y0184929D01*
X0146517Y0185528D02*
X0153355Y0185528D01*
X0153603Y0186126D02*
X0147116Y0186126D01*
X0147714Y0186725D02*
X0153851Y0186725D01*
X0154099Y0187323D02*
X0148313Y0187323D01*
X0148911Y0187922D02*
X0154347Y0187922D01*
X0154943Y0188520D02*
X0149510Y0188520D01*
X0150108Y0189119D02*
X0155542Y0189119D01*
X0156141Y0189717D02*
X0150707Y0189717D01*
X0151305Y0190316D02*
X0157375Y0190316D01*
X0158820Y0190914D02*
X0151904Y0190914D01*
X0152502Y0191513D02*
X0168260Y0191513D01*
X0168260Y0192112D02*
X0153101Y0192112D01*
X0153699Y0192710D02*
X0168260Y0192710D01*
X0168260Y0193309D02*
X0154298Y0193309D01*
X0154896Y0193907D02*
X0168260Y0193907D01*
X0168260Y0194506D02*
X0155495Y0194506D01*
X0156093Y0195104D02*
X0168260Y0195104D01*
X0168260Y0195703D02*
X0156692Y0195703D01*
X0157291Y0196301D02*
X0168260Y0196301D01*
X0168260Y0196900D02*
X0157889Y0196900D01*
X0162491Y0197498D02*
X0168260Y0197498D01*
X0168260Y0198097D02*
X0163936Y0198097D01*
X0164634Y0198695D02*
X0168260Y0198695D01*
X0168260Y0199294D02*
X0165233Y0199294D01*
X0165831Y0199892D02*
X0168260Y0199892D01*
X0168260Y0200491D02*
X0166206Y0200491D01*
X0166454Y0201089D02*
X0168260Y0201089D01*
X0168260Y0201688D02*
X0166701Y0201688D01*
X0166949Y0202286D02*
X0168260Y0202286D01*
X0168260Y0202885D02*
X0167098Y0202885D01*
X0167098Y0203483D02*
X0168260Y0203483D01*
X0168260Y0204082D02*
X0167098Y0204082D01*
X0167098Y0204680D02*
X0168260Y0204680D01*
X0168260Y0205279D02*
X0167098Y0205279D01*
X0166895Y0205877D02*
X0168260Y0205877D01*
X0168260Y0206476D02*
X0166647Y0206476D01*
X0166400Y0207074D02*
X0168260Y0207074D01*
X0168260Y0207673D02*
X0166152Y0207673D01*
X0165701Y0208271D02*
X0168260Y0208271D01*
X0168260Y0208870D02*
X0165102Y0208870D01*
X0164504Y0209468D02*
X0168260Y0209468D01*
X0168260Y0210067D02*
X0163621Y0210067D01*
X0162176Y0210665D02*
X0168260Y0210665D01*
X0168260Y0211264D02*
X0145053Y0211264D01*
X0144893Y0211862D02*
X0168260Y0211862D01*
X0168260Y0212461D02*
X0144733Y0212461D01*
X0144552Y0213059D02*
X0168260Y0213059D01*
X0168260Y0213658D02*
X0144207Y0213658D01*
X0143861Y0214256D02*
X0168260Y0214256D01*
X0168260Y0214855D02*
X0143516Y0214855D01*
X0143115Y0215453D02*
X0168260Y0215453D01*
X0168260Y0216052D02*
X0142516Y0216052D01*
X0141918Y0216650D02*
X0168260Y0216650D01*
X0168260Y0217249D02*
X0161890Y0217249D01*
X0161570Y0217117D02*
X0164106Y0218167D01*
X0166047Y0220108D01*
X0167098Y0222644D01*
X0167098Y0225389D01*
X0166047Y0227925D01*
X0164106Y0229866D01*
X0161570Y0230917D01*
X0158825Y0230917D01*
X0156289Y0229866D01*
X0154348Y0227925D01*
X0153298Y0225389D01*
X0153298Y0222644D01*
X0154348Y0220108D01*
X0156289Y0218167D01*
X0158825Y0217117D01*
X0161570Y0217117D01*
X0163335Y0217848D02*
X0168260Y0217848D01*
X0168260Y0218446D02*
X0164385Y0218446D01*
X0164984Y0219045D02*
X0168260Y0219045D01*
X0168260Y0219643D02*
X0165582Y0219643D01*
X0166102Y0220242D02*
X0168260Y0220242D01*
X0168260Y0220840D02*
X0166350Y0220840D01*
X0166598Y0221439D02*
X0168260Y0221439D01*
X0168260Y0222037D02*
X0166846Y0222037D01*
X0167094Y0222636D02*
X0168260Y0222636D01*
X0168260Y0223234D02*
X0167098Y0223234D01*
X0167098Y0223833D02*
X0168260Y0223833D01*
X0168260Y0224431D02*
X0167098Y0224431D01*
X0167098Y0225030D02*
X0168260Y0225030D01*
X0168260Y0225628D02*
X0166999Y0225628D01*
X0166751Y0226227D02*
X0168260Y0226227D01*
X0168260Y0226825D02*
X0166503Y0226825D01*
X0166255Y0227424D02*
X0168260Y0227424D01*
X0168260Y0228022D02*
X0165950Y0228022D01*
X0165352Y0228621D02*
X0168260Y0228621D01*
X0168260Y0229219D02*
X0164753Y0229219D01*
X0164155Y0229818D02*
X0168260Y0229818D01*
X0168260Y0230416D02*
X0162778Y0230416D01*
X0157617Y0230416D02*
X0145301Y0230416D01*
X0145301Y0229818D02*
X0156241Y0229818D01*
X0155642Y0229219D02*
X0145301Y0229219D01*
X0145301Y0228621D02*
X0155044Y0228621D01*
X0154445Y0228022D02*
X0145301Y0228022D01*
X0145301Y0227424D02*
X0154140Y0227424D01*
X0153893Y0226825D02*
X0139380Y0226825D01*
X0139380Y0226756D02*
X0139380Y0227356D01*
X0145301Y0227356D01*
X0145301Y0232148D01*
X0145212Y0232479D01*
X0145041Y0232775D01*
X0144799Y0233017D01*
X0144503Y0233189D01*
X0144172Y0233277D01*
X0139380Y0233277D01*
X0139380Y0227356D01*
X0138780Y0227356D01*
X0138780Y0233277D01*
X0133987Y0233277D01*
X0133656Y0233189D01*
X0133360Y0233017D01*
X0133118Y0232775D01*
X0132947Y0232479D01*
X0132858Y0232148D01*
X0132858Y0227356D01*
X0138779Y0227356D01*
X0138779Y0226756D01*
X0132858Y0226756D01*
X0132858Y0221963D01*
X0132947Y0221633D01*
X0133118Y0221336D01*
X0133360Y0221094D01*
X0133656Y0220923D01*
X0133987Y0220835D01*
X0138780Y0220835D01*
X0138780Y0226756D01*
X0139380Y0226756D01*
X0145301Y0226756D01*
X0145301Y0221963D01*
X0145212Y0221633D01*
X0145041Y0221336D01*
X0144799Y0221094D01*
X0144503Y0220923D01*
X0144172Y0220835D01*
X0139380Y0220835D01*
X0139380Y0226756D01*
X0139380Y0226227D02*
X0138780Y0226227D01*
X0138779Y0226825D02*
X0076901Y0226825D01*
X0076901Y0226227D02*
X0132858Y0226227D01*
X0132858Y0225628D02*
X0076901Y0225628D01*
X0076901Y0225030D02*
X0132858Y0225030D01*
X0132858Y0224431D02*
X0076901Y0224431D01*
X0076901Y0223833D02*
X0132858Y0223833D01*
X0132858Y0223234D02*
X0076901Y0223234D01*
X0076901Y0222636D02*
X0132858Y0222636D01*
X0132858Y0222037D02*
X0076901Y0222037D01*
X0076901Y0221762D02*
X0076901Y0232350D01*
X0076374Y0232877D01*
X0070067Y0232877D01*
X0068801Y0234143D01*
X0067551Y0234661D01*
X0055448Y0234661D01*
X0054241Y0235161D01*
X0052690Y0235161D01*
X0051256Y0234567D01*
X0050159Y0233470D01*
X0049565Y0232036D01*
X0049565Y0230485D01*
X0050159Y0229051D01*
X0051256Y0227954D01*
X0052690Y0227361D01*
X0054241Y0227361D01*
X0055448Y0227861D01*
X0065258Y0227861D01*
X0065258Y0221762D01*
X0065785Y0221235D01*
X0076374Y0221235D01*
X0076901Y0221762D01*
X0076577Y0221439D02*
X0133059Y0221439D01*
X0133967Y0220840D02*
X0039065Y0220840D01*
X0039065Y0220242D02*
X0154293Y0220242D01*
X0154045Y0220840D02*
X0144192Y0220840D01*
X0145100Y0221439D02*
X0153797Y0221439D01*
X0153549Y0222037D02*
X0145301Y0222037D01*
X0145301Y0222636D02*
X0153301Y0222636D01*
X0153298Y0223234D02*
X0145301Y0223234D01*
X0145301Y0223833D02*
X0153298Y0223833D01*
X0153298Y0224431D02*
X0145301Y0224431D01*
X0145301Y0225030D02*
X0153298Y0225030D01*
X0153397Y0225628D02*
X0145301Y0225628D01*
X0145301Y0226227D02*
X0153645Y0226227D01*
X0154813Y0219643D02*
X0039065Y0219643D01*
X0039065Y0219045D02*
X0047297Y0219045D01*
X0047920Y0219302D02*
X0045384Y0218252D01*
X0043443Y0216311D01*
X0042392Y0213775D01*
X0042392Y0211030D01*
X0043443Y0208494D01*
X0045384Y0206553D01*
X0047920Y0205502D01*
X0050665Y0205502D01*
X0053201Y0206553D01*
X0055142Y0208494D01*
X0056192Y0211030D01*
X0056192Y0213775D01*
X0055142Y0216311D01*
X0053201Y0218252D01*
X0050665Y0219302D01*
X0047920Y0219302D01*
X0045852Y0218446D02*
X0039065Y0218446D01*
X0039065Y0217848D02*
X0044979Y0217848D01*
X0044381Y0217249D02*
X0039065Y0217249D01*
X0039065Y0216650D02*
X0043782Y0216650D01*
X0043335Y0216052D02*
X0039065Y0216052D01*
X0039065Y0215453D02*
X0043087Y0215453D01*
X0042840Y0214855D02*
X0039065Y0214855D01*
X0039065Y0214256D02*
X0042592Y0214256D01*
X0042392Y0213658D02*
X0039065Y0213658D01*
X0039065Y0213059D02*
X0042392Y0213059D01*
X0042392Y0212461D02*
X0039065Y0212461D01*
X0039065Y0211862D02*
X0042392Y0211862D01*
X0042392Y0211264D02*
X0039065Y0211264D01*
X0039065Y0210665D02*
X0042543Y0210665D01*
X0042791Y0210067D02*
X0039065Y0210067D01*
X0039065Y0209468D02*
X0043039Y0209468D01*
X0043287Y0208870D02*
X0039065Y0208870D01*
X0039065Y0208271D02*
X0043665Y0208271D01*
X0044264Y0207673D02*
X0039065Y0207673D01*
X0039065Y0207074D02*
X0044862Y0207074D01*
X0045570Y0206476D02*
X0039065Y0206476D01*
X0039065Y0205877D02*
X0047014Y0205877D01*
X0051570Y0205877D02*
X0125366Y0205877D01*
X0125526Y0205279D02*
X0039065Y0205279D01*
X0039065Y0204680D02*
X0125821Y0204680D01*
X0126167Y0204082D02*
X0039065Y0204082D01*
X0039065Y0203483D02*
X0126513Y0203483D01*
X0126858Y0202885D02*
X0039065Y0202885D01*
X0039065Y0202286D02*
X0127416Y0202286D01*
X0128015Y0201688D02*
X0039065Y0201688D01*
X0039065Y0201089D02*
X0128613Y0201089D01*
X0129504Y0200491D02*
X0039065Y0200491D01*
X0053015Y0206476D02*
X0125205Y0206476D01*
X0125045Y0207074D02*
X0053722Y0207074D01*
X0054321Y0207673D02*
X0124885Y0207673D01*
X0124874Y0208271D02*
X0054919Y0208271D01*
X0055297Y0208870D02*
X0124874Y0208870D01*
X0124874Y0209468D02*
X0055545Y0209468D01*
X0055793Y0210067D02*
X0124874Y0210067D01*
X0124945Y0210665D02*
X0056041Y0210665D01*
X0056192Y0211264D02*
X0125106Y0211264D01*
X0125266Y0211862D02*
X0056192Y0211862D01*
X0056192Y0212461D02*
X0125426Y0212461D01*
X0125607Y0213059D02*
X0056192Y0213059D01*
X0056192Y0213658D02*
X0125952Y0213658D01*
X0126298Y0214256D02*
X0055993Y0214256D01*
X0055745Y0214855D02*
X0126643Y0214855D01*
X0127044Y0215453D02*
X0055497Y0215453D01*
X0055249Y0216052D02*
X0127643Y0216052D01*
X0128241Y0216650D02*
X0054802Y0216650D01*
X0054204Y0217249D02*
X0128859Y0217249D01*
X0129896Y0217848D02*
X0053605Y0217848D01*
X0052732Y0218446D02*
X0130933Y0218446D01*
X0132927Y0219045D02*
X0051287Y0219045D01*
X0052537Y0227424D02*
X0047467Y0227424D01*
X0047506Y0227462D02*
X0047677Y0227759D01*
X0047765Y0228089D01*
X0047765Y0230961D01*
X0043765Y0230961D01*
X0043765Y0226961D01*
X0046637Y0226961D01*
X0046967Y0227049D01*
X0047264Y0227220D01*
X0047506Y0227462D01*
X0047747Y0228022D02*
X0051188Y0228022D01*
X0050590Y0228621D02*
X0047765Y0228621D01*
X0047765Y0229219D02*
X0050090Y0229219D01*
X0049842Y0229818D02*
X0047765Y0229818D01*
X0047765Y0230416D02*
X0049594Y0230416D01*
X0049565Y0231015D02*
X0043765Y0231015D01*
X0043765Y0230961D02*
X0043765Y0231561D01*
X0043165Y0231561D01*
X0043165Y0235561D01*
X0040294Y0235561D01*
X0039964Y0235472D01*
X0039667Y0235301D01*
X0039425Y0235059D01*
X0039254Y0234762D01*
X0039165Y0234432D01*
X0039165Y0231561D01*
X0043165Y0231561D01*
X0043165Y0230961D01*
X0039165Y0230961D01*
X0039165Y0228089D01*
X0039254Y0227759D01*
X0039425Y0227462D01*
X0039667Y0227220D01*
X0039964Y0227049D01*
X0040294Y0226961D01*
X0043165Y0226961D01*
X0043165Y0230961D01*
X0043765Y0230961D01*
X0043765Y0230416D02*
X0043165Y0230416D01*
X0043165Y0229818D02*
X0043765Y0229818D01*
X0043765Y0229219D02*
X0043165Y0229219D01*
X0043165Y0228621D02*
X0043765Y0228621D01*
X0043765Y0228022D02*
X0043165Y0228022D01*
X0043165Y0227424D02*
X0043765Y0227424D01*
X0043165Y0231015D02*
X0039065Y0231015D01*
X0039065Y0231613D02*
X0039165Y0231613D01*
X0039165Y0232212D02*
X0039065Y0232212D01*
X0039065Y0232810D02*
X0039165Y0232810D01*
X0039165Y0233409D02*
X0039065Y0233409D01*
X0039065Y0234007D02*
X0039165Y0234007D01*
X0039212Y0234606D02*
X0039065Y0234606D01*
X0039065Y0235204D02*
X0039571Y0235204D01*
X0039065Y0235803D02*
X0168260Y0235803D01*
X0168260Y0236401D02*
X0039065Y0236401D01*
X0043165Y0235204D02*
X0043765Y0235204D01*
X0043765Y0235561D02*
X0043765Y0231561D01*
X0047765Y0231561D01*
X0047765Y0234432D01*
X0047677Y0234762D01*
X0047506Y0235059D01*
X0047264Y0235301D01*
X0046967Y0235472D01*
X0046637Y0235561D01*
X0043765Y0235561D01*
X0043765Y0234606D02*
X0043165Y0234606D01*
X0043165Y0234007D02*
X0043765Y0234007D01*
X0043765Y0233409D02*
X0043165Y0233409D01*
X0043165Y0232810D02*
X0043765Y0232810D01*
X0043765Y0232212D02*
X0043165Y0232212D01*
X0043165Y0231613D02*
X0043765Y0231613D01*
X0047765Y0231613D02*
X0049565Y0231613D01*
X0049638Y0232212D02*
X0047765Y0232212D01*
X0047765Y0232810D02*
X0049886Y0232810D01*
X0050134Y0233409D02*
X0047765Y0233409D01*
X0047765Y0234007D02*
X0050697Y0234007D01*
X0051350Y0234606D02*
X0047719Y0234606D01*
X0047360Y0235204D02*
X0168260Y0235204D01*
X0168260Y0234606D02*
X0067683Y0234606D01*
X0068936Y0234007D02*
X0168260Y0234007D01*
X0168260Y0233409D02*
X0069535Y0233409D01*
X0065258Y0227424D02*
X0054393Y0227424D01*
X0065258Y0226825D02*
X0039065Y0226825D01*
X0039065Y0226227D02*
X0065258Y0226227D01*
X0065258Y0225628D02*
X0039065Y0225628D01*
X0039065Y0225030D02*
X0065258Y0225030D01*
X0065258Y0224431D02*
X0039065Y0224431D01*
X0039065Y0223833D02*
X0065258Y0223833D01*
X0065258Y0223234D02*
X0039065Y0223234D01*
X0039065Y0222636D02*
X0065258Y0222636D01*
X0065258Y0222037D02*
X0039065Y0222037D01*
X0039065Y0221439D02*
X0065582Y0221439D01*
X0076901Y0227424D02*
X0132858Y0227424D01*
X0132858Y0228022D02*
X0076901Y0228022D01*
X0076901Y0228621D02*
X0132858Y0228621D01*
X0132858Y0229219D02*
X0076901Y0229219D01*
X0076901Y0229818D02*
X0132858Y0229818D01*
X0132858Y0230416D02*
X0076901Y0230416D01*
X0076901Y0231015D02*
X0132858Y0231015D01*
X0132858Y0231613D02*
X0076901Y0231613D01*
X0076901Y0232212D02*
X0132875Y0232212D01*
X0133153Y0232810D02*
X0076440Y0232810D01*
X0039165Y0230416D02*
X0039065Y0230416D01*
X0039065Y0229818D02*
X0039165Y0229818D01*
X0039165Y0229219D02*
X0039065Y0229219D01*
X0039065Y0228621D02*
X0039165Y0228621D01*
X0039183Y0228022D02*
X0039065Y0228022D01*
X0039065Y0227424D02*
X0039464Y0227424D01*
X0117454Y0192710D02*
X0144083Y0192710D01*
X0143484Y0192112D02*
X0118053Y0192112D01*
X0118651Y0191513D02*
X0142886Y0191513D01*
X0142287Y0190914D02*
X0119250Y0190914D01*
X0119848Y0190316D02*
X0141689Y0190316D01*
X0141090Y0189717D02*
X0120447Y0189717D01*
X0121045Y0189119D02*
X0140492Y0189119D01*
X0139893Y0188520D02*
X0121644Y0188520D01*
X0122242Y0187922D02*
X0139295Y0187922D01*
X0138696Y0187323D02*
X0122841Y0187323D01*
X0123439Y0186725D02*
X0138098Y0186725D01*
X0137499Y0186126D02*
X0124038Y0186126D01*
X0124636Y0185528D02*
X0136901Y0185528D01*
X0136302Y0184929D02*
X0125235Y0184929D01*
X0125833Y0184331D02*
X0135704Y0184331D01*
X0135105Y0183732D02*
X0126432Y0183732D01*
X0127030Y0183134D02*
X0134507Y0183134D01*
X0133908Y0182535D02*
X0127629Y0182535D01*
X0128227Y0181937D02*
X0133310Y0181937D01*
X0132711Y0181338D02*
X0128826Y0181338D01*
X0129424Y0180740D02*
X0132113Y0180740D01*
X0131514Y0180141D02*
X0130023Y0180141D01*
X0130621Y0179543D02*
X0130916Y0179543D01*
X0135616Y0171164D02*
X0153584Y0171164D01*
X0153013Y0170565D02*
X0136302Y0170565D01*
X0136871Y0169967D02*
X0152898Y0169967D01*
X0152898Y0169368D02*
X0137119Y0169368D01*
X0137458Y0168770D02*
X0152898Y0168770D01*
X0152898Y0168171D02*
X0138056Y0168171D01*
X0138655Y0167573D02*
X0152898Y0167573D01*
X0152898Y0166974D02*
X0139253Y0166974D01*
X0139852Y0166376D02*
X0152898Y0166376D01*
X0152898Y0165777D02*
X0140450Y0165777D01*
X0141049Y0165179D02*
X0152898Y0165179D01*
X0152898Y0164580D02*
X0141647Y0164580D01*
X0136819Y0159792D02*
X0129897Y0159792D01*
X0129897Y0160390D02*
X0136220Y0160390D01*
X0135622Y0160989D02*
X0129897Y0160989D01*
X0129897Y0161587D02*
X0135023Y0161587D01*
X0134425Y0162186D02*
X0129897Y0162186D01*
X0129897Y0162784D02*
X0133826Y0162784D01*
X0133228Y0163383D02*
X0129897Y0163383D01*
X0129897Y0163981D02*
X0132629Y0163981D01*
X0131390Y0164580D02*
X0129897Y0164580D01*
X0129897Y0165179D02*
X0130792Y0165179D01*
X0130266Y0165777D02*
X0129897Y0165777D01*
X0129897Y0166376D02*
X0130018Y0166376D01*
X0129897Y0159193D02*
X0137417Y0159193D01*
X0138016Y0158595D02*
X0129897Y0158595D01*
X0129897Y0157996D02*
X0138614Y0157996D01*
X0139213Y0157398D02*
X0129897Y0157398D01*
X0129897Y0156799D02*
X0139632Y0156799D01*
X0139632Y0156201D02*
X0129897Y0156201D01*
X0129897Y0155602D02*
X0139632Y0155602D01*
X0139632Y0155004D02*
X0129897Y0155004D01*
X0129897Y0154405D02*
X0139632Y0154405D01*
X0139632Y0153807D02*
X0129897Y0153807D01*
X0129897Y0153208D02*
X0139632Y0153208D01*
X0139632Y0152610D02*
X0129897Y0152610D01*
X0129897Y0152011D02*
X0139632Y0152011D01*
X0139632Y0151413D02*
X0129897Y0151413D01*
X0129897Y0150814D02*
X0139632Y0150814D01*
X0139632Y0150216D02*
X0129897Y0150216D01*
X0129897Y0149617D02*
X0139632Y0149617D01*
X0139632Y0149019D02*
X0129897Y0149019D01*
X0129897Y0148420D02*
X0139632Y0148420D01*
X0139632Y0147822D02*
X0129897Y0147822D01*
X0129897Y0147223D02*
X0139632Y0147223D01*
X0139535Y0146625D02*
X0129897Y0146625D01*
X0129897Y0146026D02*
X0139287Y0146026D01*
X0139180Y0145428D02*
X0129897Y0145428D01*
X0129897Y0144829D02*
X0139180Y0144829D01*
X0139181Y0144231D02*
X0129897Y0144231D01*
X0129897Y0143632D02*
X0139429Y0143632D01*
X0139677Y0143034D02*
X0129897Y0143034D01*
X0129897Y0142435D02*
X0140149Y0142435D01*
X0140748Y0141837D02*
X0129897Y0141837D01*
X0129897Y0141238D02*
X0142049Y0141238D01*
X0144016Y0141238D02*
X0153416Y0141238D01*
X0153416Y0140640D02*
X0129897Y0140640D01*
X0129897Y0140041D02*
X0153416Y0140041D01*
X0153416Y0139443D02*
X0129897Y0139443D01*
X0129897Y0138844D02*
X0153538Y0138844D01*
X0153240Y0138245D02*
X0129897Y0138245D01*
X0129897Y0137647D02*
X0152642Y0137647D01*
X0152043Y0137048D02*
X0129897Y0137048D01*
X0129897Y0136450D02*
X0151445Y0136450D01*
X0150846Y0135851D02*
X0129897Y0135851D01*
X0129897Y0135253D02*
X0150248Y0135253D01*
X0149649Y0134654D02*
X0129897Y0134654D01*
X0129897Y0134056D02*
X0149051Y0134056D01*
X0148452Y0133457D02*
X0129897Y0133457D01*
X0129897Y0132859D02*
X0147854Y0132859D01*
X0147255Y0132260D02*
X0129897Y0132260D01*
X0129897Y0131662D02*
X0146657Y0131662D01*
X0146058Y0131063D02*
X0129897Y0131063D01*
X0129897Y0130465D02*
X0145460Y0130465D01*
X0144861Y0129866D02*
X0129897Y0129866D01*
X0129897Y0129268D02*
X0144263Y0129268D01*
X0143664Y0128669D02*
X0129897Y0128669D01*
X0129897Y0128071D02*
X0143066Y0128071D01*
X0142467Y0127472D02*
X0129897Y0127472D01*
X0129897Y0126874D02*
X0141869Y0126874D01*
X0141270Y0126275D02*
X0129897Y0126275D01*
X0129897Y0125677D02*
X0140672Y0125677D01*
X0140073Y0125078D02*
X0129897Y0125078D01*
X0129897Y0124480D02*
X0139475Y0124480D01*
X0139161Y0123881D02*
X0129897Y0123881D01*
X0129897Y0123283D02*
X0138913Y0123283D01*
X0138845Y0122684D02*
X0129897Y0122684D01*
X0129897Y0122086D02*
X0138845Y0122086D01*
X0138845Y0121487D02*
X0129897Y0121487D01*
X0129897Y0120889D02*
X0138845Y0120889D01*
X0138845Y0120290D02*
X0129897Y0120290D01*
X0129897Y0119692D02*
X0138845Y0119692D01*
X0138845Y0119093D02*
X0129897Y0119093D01*
X0129897Y0118495D02*
X0138845Y0118495D01*
X0138845Y0117896D02*
X0129897Y0117896D01*
X0129897Y0117298D02*
X0138845Y0117298D01*
X0138845Y0116699D02*
X0129897Y0116699D01*
X0129897Y0116101D02*
X0138845Y0116101D01*
X0138845Y0115502D02*
X0129897Y0115502D01*
X0129897Y0114904D02*
X0138845Y0114904D01*
X0138845Y0114305D02*
X0129897Y0114305D01*
X0129897Y0113707D02*
X0138845Y0113707D01*
X0138845Y0113108D02*
X0129897Y0113108D01*
X0129897Y0112510D02*
X0138845Y0112510D01*
X0138845Y0111911D02*
X0129897Y0111911D01*
X0129897Y0111312D02*
X0138845Y0111312D01*
X0138845Y0110714D02*
X0129897Y0110714D01*
X0129897Y0110115D02*
X0138845Y0110115D01*
X0138845Y0109517D02*
X0129897Y0109517D01*
X0129897Y0108918D02*
X0138845Y0108918D01*
X0138845Y0108320D02*
X0129897Y0108320D01*
X0129897Y0107721D02*
X0138845Y0107721D01*
X0138845Y0107123D02*
X0129897Y0107123D01*
X0129897Y0106524D02*
X0138845Y0106524D01*
X0138845Y0105926D02*
X0129897Y0105926D01*
X0129897Y0105327D02*
X0138845Y0105327D01*
X0138845Y0104729D02*
X0129897Y0104729D01*
X0129897Y0104130D02*
X0138845Y0104130D01*
X0138845Y0103532D02*
X0129897Y0103532D01*
X0129897Y0102933D02*
X0138845Y0102933D01*
X0138845Y0102335D02*
X0129897Y0102335D01*
X0129897Y0101736D02*
X0138845Y0101736D01*
X0138845Y0101138D02*
X0129897Y0101138D01*
X0129897Y0100539D02*
X0138845Y0100539D01*
X0138845Y0099941D02*
X0129897Y0099941D01*
X0129897Y0099342D02*
X0138845Y0099342D01*
X0138845Y0098744D02*
X0129897Y0098744D01*
X0129897Y0098145D02*
X0138845Y0098145D01*
X0138845Y0097547D02*
X0129897Y0097547D01*
X0129897Y0096948D02*
X0138845Y0096948D01*
X0138845Y0096350D02*
X0129897Y0096350D01*
X0129897Y0095751D02*
X0138845Y0095751D01*
X0138845Y0095153D02*
X0129897Y0095153D01*
X0129897Y0094554D02*
X0138845Y0094554D01*
X0138845Y0093956D02*
X0129897Y0093956D01*
X0129897Y0093357D02*
X0138845Y0093357D01*
X0138845Y0092759D02*
X0129897Y0092759D01*
X0129897Y0092160D02*
X0138845Y0092160D01*
X0138845Y0091562D02*
X0129897Y0091562D01*
X0129897Y0090963D02*
X0138845Y0090963D01*
X0138845Y0090365D02*
X0129897Y0090365D01*
X0129897Y0089766D02*
X0138845Y0089766D01*
X0138845Y0089168D02*
X0129897Y0089168D01*
X0129897Y0088569D02*
X0138845Y0088569D01*
X0138845Y0087971D02*
X0129897Y0087971D01*
X0129897Y0087372D02*
X0138845Y0087372D01*
X0138845Y0086774D02*
X0129897Y0086774D01*
X0129897Y0086175D02*
X0138845Y0086175D01*
X0138845Y0085577D02*
X0129897Y0085577D01*
X0129897Y0084978D02*
X0138845Y0084978D01*
X0138845Y0084379D02*
X0129897Y0084379D01*
X0129897Y0083781D02*
X0138845Y0083781D01*
X0138845Y0083182D02*
X0129897Y0083182D01*
X0129897Y0082584D02*
X0138845Y0082584D01*
X0138845Y0081985D02*
X0129897Y0081985D01*
X0129897Y0081387D02*
X0138845Y0081387D01*
X0138845Y0080788D02*
X0129897Y0080788D01*
X0129897Y0080190D02*
X0138919Y0080190D01*
X0139167Y0079591D02*
X0129897Y0079591D01*
X0129897Y0078993D02*
X0139489Y0078993D01*
X0140088Y0078394D02*
X0129897Y0078394D01*
X0129897Y0077796D02*
X0140686Y0077796D01*
X0139380Y0077197D02*
X0138780Y0077197D01*
X0138780Y0076599D02*
X0139380Y0076599D01*
X0139380Y0076000D02*
X0138780Y0076000D01*
X0138780Y0075402D02*
X0139380Y0075402D01*
X0139380Y0074803D02*
X0138780Y0074803D01*
X0138780Y0074205D02*
X0139380Y0074205D01*
X0139380Y0073606D02*
X0138780Y0073606D01*
X0138780Y0073008D02*
X0139380Y0073008D01*
X0139380Y0072409D02*
X0138780Y0072409D01*
X0138780Y0071811D02*
X0139380Y0071811D01*
X0139380Y0070015D02*
X0138780Y0070015D01*
X0138780Y0069417D02*
X0139380Y0069417D01*
X0139380Y0068818D02*
X0138780Y0068818D01*
X0138780Y0068220D02*
X0139380Y0068220D01*
X0139380Y0067621D02*
X0138780Y0067621D01*
X0138780Y0067023D02*
X0139380Y0067023D01*
X0139380Y0066424D02*
X0138780Y0066424D01*
X0138780Y0065826D02*
X0139380Y0065826D01*
X0139380Y0065227D02*
X0138780Y0065227D01*
X0132858Y0071811D02*
X0129897Y0071811D01*
X0129897Y0072409D02*
X0132858Y0072409D01*
X0132858Y0073008D02*
X0129897Y0073008D01*
X0129897Y0073606D02*
X0132858Y0073606D01*
X0132858Y0074205D02*
X0129897Y0074205D01*
X0129897Y0074803D02*
X0132858Y0074803D01*
X0132858Y0075402D02*
X0129897Y0075402D01*
X0129897Y0076000D02*
X0132858Y0076000D01*
X0133016Y0076599D02*
X0129897Y0076599D01*
X0129897Y0077197D02*
X0133689Y0077197D01*
X0145301Y0074803D02*
X0145408Y0074803D01*
X0145301Y0074205D02*
X0155872Y0074205D01*
X0155605Y0081985D02*
X0147148Y0081985D01*
X0145645Y0094554D02*
X0155029Y0094554D01*
X0154317Y0095153D02*
X0145645Y0095153D01*
X0145645Y0095751D02*
X0153719Y0095751D01*
X0153442Y0096350D02*
X0145645Y0096350D01*
X0145645Y0096948D02*
X0153194Y0096948D01*
X0153038Y0097547D02*
X0145645Y0097547D01*
X0145645Y0098145D02*
X0153038Y0098145D01*
X0153038Y0098744D02*
X0145645Y0098744D01*
X0145645Y0099342D02*
X0153190Y0099342D01*
X0153438Y0099941D02*
X0145645Y0099941D01*
X0145645Y0100539D02*
X0153709Y0100539D01*
X0154307Y0101138D02*
X0145645Y0101138D01*
X0145645Y0101736D02*
X0155004Y0101736D01*
X0164841Y0092160D02*
X0168260Y0092160D01*
X0168260Y0091562D02*
X0166137Y0091562D01*
X0166735Y0090963D02*
X0168260Y0090963D01*
X0168260Y0090365D02*
X0167255Y0090365D01*
X0167502Y0089766D02*
X0168260Y0089766D01*
X0168260Y0089168D02*
X0167750Y0089168D01*
X0167830Y0088569D02*
X0168260Y0088569D01*
X0168260Y0087971D02*
X0167830Y0087971D01*
X0167830Y0087372D02*
X0168260Y0087372D01*
X0168260Y0086774D02*
X0167601Y0086774D01*
X0167353Y0086175D02*
X0168260Y0086175D01*
X0168260Y0085577D02*
X0166974Y0085577D01*
X0166376Y0084978D02*
X0168260Y0084978D01*
X0168260Y0084379D02*
X0165417Y0084379D01*
X0159098Y0061636D02*
X0129897Y0061636D01*
X0129897Y0061038D02*
X0157653Y0061038D01*
X0156901Y0060439D02*
X0129897Y0060439D01*
X0129897Y0059841D02*
X0156303Y0059841D01*
X0155704Y0059242D02*
X0129897Y0059242D01*
X0129897Y0058643D02*
X0155308Y0058643D01*
X0155060Y0058045D02*
X0129897Y0058045D01*
X0129897Y0057446D02*
X0154812Y0057446D01*
X0154564Y0056848D02*
X0129897Y0056848D01*
X0130293Y0056249D02*
X0154400Y0056249D01*
X0154400Y0055651D02*
X0130891Y0055651D01*
X0131490Y0055052D02*
X0154400Y0055052D01*
X0154400Y0054454D02*
X0132088Y0054454D01*
X0132687Y0053855D02*
X0154400Y0053855D01*
X0154586Y0053257D02*
X0133285Y0053257D01*
X0133884Y0052658D02*
X0154834Y0052658D01*
X0155082Y0052060D02*
X0134482Y0052060D01*
X0134762Y0051461D02*
X0155330Y0051461D01*
X0155759Y0050863D02*
X0135010Y0050863D01*
X0135054Y0050264D02*
X0156357Y0050264D01*
X0156956Y0049666D02*
X0135054Y0049666D01*
X0135054Y0049067D02*
X0157784Y0049067D01*
X0159229Y0048469D02*
X0135054Y0048469D01*
X0128254Y0048469D02*
X0102916Y0048469D01*
X0102317Y0049067D02*
X0127858Y0049067D01*
X0127260Y0049666D02*
X0101719Y0049666D01*
X0101120Y0050264D02*
X0126661Y0050264D01*
X0126063Y0050863D02*
X0100522Y0050863D01*
X0099923Y0051461D02*
X0106484Y0051461D01*
X0105721Y0052060D02*
X0099325Y0052060D01*
X0098726Y0052658D02*
X0105123Y0052658D01*
X0104874Y0053257D02*
X0098128Y0053257D01*
X0097529Y0053855D02*
X0104566Y0053855D01*
X0103968Y0054454D02*
X0096931Y0054454D01*
X0096182Y0055052D02*
X0103369Y0055052D01*
X0103514Y0047870D02*
X0128254Y0047870D01*
X0128254Y0047272D02*
X0104113Y0047272D01*
X0104711Y0046673D02*
X0128254Y0046673D01*
X0128254Y0046075D02*
X0105310Y0046075D01*
X0105908Y0045476D02*
X0128254Y0045476D01*
X0128254Y0044878D02*
X0106507Y0044878D01*
X0107105Y0044279D02*
X0128254Y0044279D01*
X0128254Y0043681D02*
X0107704Y0043681D01*
X0108302Y0043082D02*
X0128254Y0043082D01*
X0128254Y0042484D02*
X0108901Y0042484D01*
X0109500Y0041885D02*
X0128254Y0041885D01*
X0128254Y0041287D02*
X0110098Y0041287D01*
X0110697Y0040688D02*
X0128254Y0040688D01*
X0128254Y0040090D02*
X0111295Y0040090D01*
X0111894Y0039491D02*
X0128254Y0039491D01*
X0128254Y0038893D02*
X0123247Y0038893D01*
X0123293Y0038878D02*
X0122654Y0039085D01*
X0121990Y0039191D01*
X0121954Y0039191D01*
X0121954Y0035222D01*
X0121354Y0035222D01*
X0121354Y0034622D01*
X0117386Y0034622D01*
X0117386Y0034586D01*
X0117491Y0033922D01*
X0117699Y0033284D01*
X0118004Y0032685D01*
X0118398Y0032141D01*
X0118874Y0031666D01*
X0119417Y0031271D01*
X0120016Y0030966D01*
X0120655Y0030759D01*
X0121318Y0030654D01*
X0121354Y0030654D01*
X0121354Y0034622D01*
X0121954Y0034622D01*
X0121954Y0030654D01*
X0121990Y0030654D01*
X0122654Y0030759D01*
X0123293Y0030966D01*
X0123892Y0031271D01*
X0124435Y0031666D01*
X0124910Y0032141D01*
X0125305Y0032685D01*
X0125610Y0033284D01*
X0125818Y0033922D01*
X0125923Y0034586D01*
X0125923Y0034622D01*
X0121954Y0034622D01*
X0121954Y0035222D01*
X0125923Y0035222D01*
X0125923Y0035258D01*
X0125818Y0035922D01*
X0125610Y0036561D01*
X0125305Y0037159D01*
X0124910Y0037703D01*
X0124435Y0038178D01*
X0123892Y0038573D01*
X0123293Y0038878D01*
X0124275Y0038294D02*
X0128254Y0038294D01*
X0128254Y0037696D02*
X0124915Y0037696D01*
X0125337Y0037097D02*
X0128254Y0037097D01*
X0128120Y0036499D02*
X0125630Y0036499D01*
X0125821Y0035900D02*
X0127872Y0035900D01*
X0127786Y0035302D02*
X0125916Y0035302D01*
X0125847Y0034105D02*
X0127806Y0034105D01*
X0127786Y0034703D02*
X0121954Y0034703D01*
X0121954Y0034105D02*
X0121354Y0034105D01*
X0121354Y0034703D02*
X0115523Y0034703D01*
X0115523Y0034105D02*
X0117462Y0034105D01*
X0117626Y0033506D02*
X0115523Y0033506D01*
X0115523Y0032908D02*
X0117890Y0032908D01*
X0118277Y0032309D02*
X0115523Y0032309D01*
X0115523Y0031710D02*
X0118829Y0031710D01*
X0119730Y0031112D02*
X0115054Y0031112D01*
X0115523Y0035302D02*
X0117393Y0035302D01*
X0117386Y0035258D02*
X0117386Y0035222D01*
X0121354Y0035222D01*
X0121354Y0039191D01*
X0121318Y0039191D01*
X0120655Y0039085D01*
X0120016Y0038878D01*
X0119417Y0038573D01*
X0118874Y0038178D01*
X0118398Y0037703D01*
X0118004Y0037159D01*
X0117699Y0036561D01*
X0117491Y0035922D01*
X0117386Y0035258D01*
X0117488Y0035900D02*
X0115523Y0035900D01*
X0115523Y0036499D02*
X0117678Y0036499D01*
X0117972Y0037097D02*
X0115523Y0037097D01*
X0115523Y0037696D02*
X0118393Y0037696D01*
X0119034Y0038294D02*
X0115492Y0038294D01*
X0112492Y0038893D02*
X0120061Y0038893D01*
X0121354Y0038893D02*
X0121954Y0038893D01*
X0121954Y0038294D02*
X0121354Y0038294D01*
X0121354Y0037696D02*
X0121954Y0037696D01*
X0121954Y0037097D02*
X0121354Y0037097D01*
X0121354Y0036499D02*
X0121954Y0036499D01*
X0121954Y0035900D02*
X0121354Y0035900D01*
X0121354Y0035302D02*
X0121954Y0035302D01*
X0121954Y0033506D02*
X0121354Y0033506D01*
X0121354Y0032908D02*
X0121954Y0032908D01*
X0121954Y0032309D02*
X0121354Y0032309D01*
X0121354Y0031710D02*
X0121954Y0031710D01*
X0121954Y0031112D02*
X0121354Y0031112D01*
X0123579Y0031112D02*
X0130744Y0031112D01*
X0129395Y0031710D02*
X0124479Y0031710D01*
X0125032Y0032309D02*
X0128796Y0032309D01*
X0128302Y0032908D02*
X0125419Y0032908D01*
X0125682Y0033506D02*
X0128054Y0033506D01*
X0135189Y0036499D02*
X0154000Y0036499D01*
X0154000Y0037097D02*
X0135054Y0037097D01*
X0135054Y0037696D02*
X0154000Y0037696D01*
X0154000Y0038294D02*
X0135054Y0038294D01*
X0135054Y0038893D02*
X0154000Y0038893D01*
X0154000Y0039491D02*
X0135054Y0039491D01*
X0135054Y0040090D02*
X0154000Y0040090D01*
X0154000Y0040688D02*
X0135054Y0040688D01*
X0135054Y0041287D02*
X0154010Y0041287D01*
X0154267Y0041885D02*
X0135054Y0041885D01*
X0135436Y0035900D02*
X0154000Y0035900D01*
X0125464Y0051461D02*
X0110290Y0051461D01*
X0108077Y0088569D02*
X0107917Y0088569D01*
X0108116Y0089168D02*
X0107319Y0089168D01*
X0106720Y0089766D02*
X0108364Y0089766D01*
X0108530Y0090365D02*
X0106122Y0090365D01*
X0105523Y0090963D02*
X0108530Y0090963D01*
X0108530Y0091562D02*
X0104925Y0091562D01*
X0104326Y0092160D02*
X0108530Y0092160D01*
X0108530Y0092759D02*
X0103728Y0092759D01*
X0103129Y0093357D02*
X0108530Y0093357D01*
X0108530Y0093956D02*
X0102531Y0093956D01*
X0101932Y0094554D02*
X0108530Y0094554D01*
X0108530Y0095153D02*
X0101334Y0095153D01*
X0100735Y0095751D02*
X0108530Y0095751D01*
X0108530Y0096350D02*
X0100136Y0096350D01*
X0099538Y0096948D02*
X0108530Y0096948D01*
X0108530Y0097547D02*
X0098939Y0097547D01*
X0098341Y0098145D02*
X0108530Y0098145D01*
X0108530Y0098744D02*
X0097742Y0098744D01*
X0097144Y0099342D02*
X0108530Y0099342D01*
X0108530Y0099941D02*
X0096545Y0099941D01*
X0095947Y0100539D02*
X0108530Y0100539D01*
X0108530Y0101138D02*
X0095348Y0101138D01*
X0094750Y0101736D02*
X0108530Y0101736D01*
X0108530Y0102335D02*
X0094151Y0102335D01*
X0093553Y0102933D02*
X0108530Y0102933D01*
X0108530Y0103532D02*
X0092954Y0103532D01*
X0092356Y0104130D02*
X0108530Y0104130D01*
X0108530Y0104729D02*
X0091757Y0104729D01*
X0091159Y0105327D02*
X0108530Y0105327D01*
X0108530Y0105926D02*
X0090560Y0105926D01*
X0089962Y0106524D02*
X0108530Y0106524D01*
X0108530Y0107123D02*
X0089363Y0107123D01*
X0088765Y0107721D02*
X0108530Y0107721D01*
X0108530Y0108320D02*
X0088166Y0108320D01*
X0087568Y0108918D02*
X0107968Y0108918D01*
X0107369Y0109517D02*
X0086969Y0109517D01*
X0086371Y0110115D02*
X0106771Y0110115D01*
X0106172Y0110714D02*
X0085772Y0110714D01*
X0085174Y0111312D02*
X0105574Y0111312D01*
X0104975Y0111911D02*
X0084575Y0111911D01*
X0083977Y0112510D02*
X0104377Y0112510D01*
X0103778Y0113108D02*
X0083378Y0113108D01*
X0071776Y0101736D02*
X0060869Y0101736D01*
X0061467Y0101138D02*
X0070399Y0101138D01*
X0069362Y0100539D02*
X0062066Y0100539D01*
X0062664Y0099941D02*
X0068532Y0099941D01*
X0067933Y0099342D02*
X0063263Y0099342D01*
X0063861Y0098744D02*
X0067335Y0098744D01*
X0066811Y0098145D02*
X0064460Y0098145D01*
X0065058Y0097547D02*
X0066465Y0097547D01*
X0066120Y0096948D02*
X0065598Y0096948D01*
X0059033Y0093956D02*
X0039065Y0093956D01*
X0039065Y0094554D02*
X0058434Y0094554D01*
X0057836Y0095153D02*
X0039065Y0095153D01*
X0039065Y0095751D02*
X0057237Y0095751D01*
X0056639Y0096350D02*
X0039065Y0096350D01*
X0039065Y0096948D02*
X0056040Y0096948D01*
X0055442Y0097547D02*
X0039065Y0097547D01*
X0039065Y0098145D02*
X0054843Y0098145D01*
X0054245Y0098744D02*
X0039065Y0098744D01*
X0039065Y0099342D02*
X0053646Y0099342D01*
X0053048Y0099941D02*
X0039065Y0099941D01*
X0039065Y0100539D02*
X0052449Y0100539D01*
X0051851Y0101138D02*
X0039065Y0101138D01*
X0039065Y0101736D02*
X0051252Y0101736D01*
X0059274Y0093357D02*
X0039065Y0093357D01*
X0039065Y0092759D02*
X0059274Y0092759D01*
X0059274Y0092160D02*
X0039065Y0092160D01*
X0039065Y0091562D02*
X0059274Y0091562D01*
X0059274Y0090963D02*
X0039065Y0090963D01*
X0039065Y0090365D02*
X0059274Y0090365D01*
X0059274Y0089766D02*
X0039065Y0089766D01*
X0039065Y0089168D02*
X0059274Y0089168D01*
X0059274Y0088569D02*
X0039065Y0088569D01*
X0039065Y0087971D02*
X0041496Y0087971D01*
X0042050Y0088200D02*
X0040773Y0087671D01*
X0039795Y0086694D01*
X0039266Y0085416D01*
X0039266Y0084034D01*
X0039795Y0082757D01*
X0040773Y0081779D01*
X0042050Y0081250D01*
X0048582Y0081250D01*
X0049859Y0081779D01*
X0050836Y0082757D01*
X0051365Y0084034D01*
X0051365Y0085416D01*
X0050836Y0086694D01*
X0049859Y0087671D01*
X0048582Y0088200D01*
X0042050Y0088200D01*
X0040474Y0087372D02*
X0039065Y0087372D01*
X0039065Y0086774D02*
X0039875Y0086774D01*
X0039580Y0086175D02*
X0039065Y0086175D01*
X0039065Y0085577D02*
X0039332Y0085577D01*
X0039266Y0084978D02*
X0039065Y0084978D01*
X0039065Y0084379D02*
X0039266Y0084379D01*
X0039371Y0083781D02*
X0039065Y0083781D01*
X0039065Y0083182D02*
X0039619Y0083182D01*
X0039968Y0082584D02*
X0039065Y0082584D01*
X0039065Y0081985D02*
X0040567Y0081985D01*
X0041720Y0081387D02*
X0039065Y0081387D01*
X0039065Y0080788D02*
X0063995Y0080788D01*
X0064593Y0080190D02*
X0039065Y0080190D01*
X0039065Y0079591D02*
X0065192Y0079591D01*
X0065790Y0078993D02*
X0039065Y0078993D01*
X0039065Y0078394D02*
X0041094Y0078394D01*
X0040174Y0077796D02*
X0039065Y0077796D01*
X0039065Y0077197D02*
X0039627Y0077197D01*
X0039258Y0076599D02*
X0039065Y0076599D01*
X0039065Y0073606D02*
X0039076Y0073606D01*
X0039065Y0073008D02*
X0039334Y0073008D01*
X0039065Y0072409D02*
X0039735Y0072409D01*
X0040364Y0071811D02*
X0039065Y0071811D01*
X0039065Y0071212D02*
X0041477Y0071212D01*
X0039065Y0070614D02*
X0065258Y0070614D01*
X0065258Y0071212D02*
X0049155Y0071212D01*
X0049021Y0071157D02*
X0049726Y0071449D01*
X0050361Y0071873D01*
X0050900Y0072413D01*
X0051324Y0073047D01*
X0051616Y0073752D01*
X0051765Y0074501D01*
X0051765Y0074583D01*
X0045616Y0074583D01*
X0045616Y0071008D01*
X0048272Y0071008D01*
X0049021Y0071157D01*
X0050268Y0071811D02*
X0065258Y0071811D01*
X0065258Y0072409D02*
X0050897Y0072409D01*
X0051298Y0073008D02*
X0065258Y0073008D01*
X0065258Y0073606D02*
X0051556Y0073606D01*
X0051706Y0074205D02*
X0065258Y0074205D01*
X0065258Y0074803D02*
X0045616Y0074803D01*
X0045616Y0075183D02*
X0051765Y0075183D01*
X0051765Y0075264D01*
X0051616Y0076013D01*
X0051324Y0076718D01*
X0050900Y0077353D01*
X0050361Y0077892D01*
X0049726Y0078316D01*
X0049021Y0078609D01*
X0048272Y0078757D01*
X0045616Y0078757D01*
X0045616Y0075183D01*
X0045616Y0075402D02*
X0045016Y0075402D01*
X0045016Y0076000D02*
X0045616Y0076000D01*
X0045616Y0076599D02*
X0045016Y0076599D01*
X0045016Y0077197D02*
X0045616Y0077197D01*
X0045616Y0077796D02*
X0045016Y0077796D01*
X0045016Y0078394D02*
X0045616Y0078394D01*
X0049538Y0078394D02*
X0066389Y0078394D01*
X0066987Y0077796D02*
X0050457Y0077796D01*
X0051004Y0077197D02*
X0067586Y0077197D01*
X0065507Y0076599D02*
X0051374Y0076599D01*
X0051619Y0076000D02*
X0065258Y0076000D01*
X0065258Y0075402D02*
X0051738Y0075402D01*
X0045616Y0074205D02*
X0045016Y0074205D01*
X0045016Y0073606D02*
X0045616Y0073606D01*
X0045616Y0073008D02*
X0045016Y0073008D01*
X0045016Y0072409D02*
X0045616Y0072409D01*
X0045616Y0071811D02*
X0045016Y0071811D01*
X0045016Y0071212D02*
X0045616Y0071212D01*
X0048911Y0081387D02*
X0063396Y0081387D01*
X0062798Y0081985D02*
X0050065Y0081985D01*
X0050663Y0082584D02*
X0062199Y0082584D01*
X0061601Y0083182D02*
X0051013Y0083182D01*
X0051261Y0083781D02*
X0061002Y0083781D01*
X0060404Y0084379D02*
X0051365Y0084379D01*
X0051365Y0084978D02*
X0059805Y0084978D01*
X0059549Y0085577D02*
X0051299Y0085577D01*
X0051051Y0086175D02*
X0059301Y0086175D01*
X0059274Y0086774D02*
X0050756Y0086774D01*
X0050158Y0087372D02*
X0059274Y0087372D01*
X0059274Y0087971D02*
X0049136Y0087971D01*
X0042189Y0102335D02*
X0039065Y0102335D01*
X0039065Y0102933D02*
X0041802Y0102933D01*
X0041802Y0103532D02*
X0039065Y0103532D01*
X0039065Y0104130D02*
X0041802Y0104130D01*
X0041802Y0104729D02*
X0039065Y0104729D01*
X0039065Y0105327D02*
X0041802Y0105327D01*
X0041802Y0105926D02*
X0039065Y0105926D01*
X0039065Y0106524D02*
X0041802Y0106524D01*
X0041802Y0107123D02*
X0039065Y0107123D01*
X0039065Y0107721D02*
X0041802Y0107721D01*
X0041802Y0108320D02*
X0039065Y0108320D01*
X0039065Y0108918D02*
X0041802Y0108918D01*
X0041802Y0109517D02*
X0039065Y0109517D01*
X0039065Y0110115D02*
X0041802Y0110115D01*
X0041802Y0110714D02*
X0039065Y0110714D01*
X0039065Y0111312D02*
X0041802Y0111312D01*
X0041802Y0111911D02*
X0039065Y0111911D01*
X0039065Y0112510D02*
X0041802Y0112510D01*
X0041802Y0113108D02*
X0039065Y0113108D01*
X0039065Y0113707D02*
X0041802Y0113707D01*
X0041802Y0114305D02*
X0039065Y0114305D01*
X0039065Y0114904D02*
X0041802Y0114904D01*
X0041836Y0115502D02*
X0039065Y0115502D01*
X0039065Y0116101D02*
X0070769Y0116101D01*
X0070170Y0116699D02*
X0039065Y0116699D01*
X0039065Y0117298D02*
X0069572Y0117298D01*
X0068973Y0117896D02*
X0039065Y0117896D01*
X0039065Y0118495D02*
X0068375Y0118495D01*
X0067776Y0119093D02*
X0039065Y0119093D01*
X0039065Y0119692D02*
X0067178Y0119692D01*
X0066579Y0120290D02*
X0039065Y0120290D01*
X0039065Y0120889D02*
X0065981Y0120889D01*
X0065382Y0121487D02*
X0039065Y0121487D01*
X0039065Y0122086D02*
X0064784Y0122086D01*
X0138077Y0199294D02*
X0150666Y0199294D01*
X0151265Y0199892D02*
X0139618Y0199892D01*
X0140655Y0200491D02*
X0151863Y0200491D01*
X0152462Y0201089D02*
X0141546Y0201089D01*
X0142144Y0201688D02*
X0153060Y0201688D01*
X0153446Y0202286D02*
X0142743Y0202286D01*
X0143301Y0202885D02*
X0153298Y0202885D01*
X0153298Y0203483D02*
X0143646Y0203483D01*
X0143992Y0204082D02*
X0153298Y0204082D01*
X0153298Y0204680D02*
X0144338Y0204680D01*
X0144633Y0205279D02*
X0153298Y0205279D01*
X0153500Y0205877D02*
X0144793Y0205877D01*
X0144954Y0206476D02*
X0153748Y0206476D01*
X0153996Y0207074D02*
X0145114Y0207074D01*
X0145274Y0207673D02*
X0154244Y0207673D01*
X0154694Y0208271D02*
X0145285Y0208271D01*
X0145285Y0208870D02*
X0155293Y0208870D01*
X0155891Y0209468D02*
X0145285Y0209468D01*
X0145285Y0210067D02*
X0156774Y0210067D01*
X0158219Y0210665D02*
X0145214Y0210665D01*
X0141300Y0217249D02*
X0158505Y0217249D01*
X0157060Y0217848D02*
X0140263Y0217848D01*
X0139226Y0218446D02*
X0156010Y0218446D01*
X0155412Y0219045D02*
X0137233Y0219045D01*
X0138780Y0220840D02*
X0139380Y0220840D01*
X0139380Y0221439D02*
X0138780Y0221439D01*
X0138780Y0222037D02*
X0139380Y0222037D01*
X0139380Y0222636D02*
X0138780Y0222636D01*
X0138780Y0223234D02*
X0139380Y0223234D01*
X0139380Y0223833D02*
X0138780Y0223833D01*
X0138780Y0224431D02*
X0139380Y0224431D01*
X0139380Y0225030D02*
X0138780Y0225030D01*
X0138780Y0225628D02*
X0139380Y0225628D01*
X0139380Y0227424D02*
X0138780Y0227424D01*
X0138780Y0228022D02*
X0139380Y0228022D01*
X0139380Y0228621D02*
X0138780Y0228621D01*
X0138780Y0229219D02*
X0139380Y0229219D01*
X0139380Y0229818D02*
X0138780Y0229818D01*
X0138780Y0230416D02*
X0139380Y0230416D01*
X0139380Y0231015D02*
X0138780Y0231015D01*
X0138780Y0231613D02*
X0139380Y0231613D01*
X0139380Y0232212D02*
X0138780Y0232212D01*
X0138780Y0232810D02*
X0139380Y0232810D01*
X0145006Y0232810D02*
X0168260Y0232810D01*
X0168260Y0232212D02*
X0145284Y0232212D01*
X0145301Y0231613D02*
X0168260Y0231613D01*
X0168260Y0231015D02*
X0145301Y0231015D01*
X0161575Y0190914D02*
X0168260Y0190914D01*
X0168260Y0190316D02*
X0163020Y0190316D01*
X0164255Y0189717D02*
X0168260Y0189717D01*
X0168260Y0189119D02*
X0164853Y0189119D01*
X0165452Y0188520D02*
X0168260Y0188520D01*
X0168260Y0187922D02*
X0166048Y0187922D01*
X0166296Y0187323D02*
X0168260Y0187323D01*
X0168260Y0186725D02*
X0166544Y0186725D01*
X0166792Y0186126D02*
X0168260Y0186126D01*
X0168260Y0185528D02*
X0167040Y0185528D01*
X0167098Y0184929D02*
X0168260Y0184929D01*
X0168260Y0184331D02*
X0167098Y0184331D01*
X0167098Y0183732D02*
X0168260Y0183732D01*
X0168260Y0183134D02*
X0167098Y0183134D01*
X0167053Y0182535D02*
X0168260Y0182535D01*
X0168260Y0181937D02*
X0166805Y0181937D01*
X0166557Y0181338D02*
X0168260Y0181338D01*
X0168260Y0180740D02*
X0166309Y0180740D01*
X0166061Y0180141D02*
X0168260Y0180141D01*
X0168260Y0179543D02*
X0165482Y0179543D01*
X0164883Y0178944D02*
X0168260Y0178944D01*
X0168260Y0178346D02*
X0164285Y0178346D01*
X0163093Y0177747D02*
X0168260Y0177747D01*
X0168260Y0177149D02*
X0161648Y0177149D01*
X0160498Y0171164D02*
X0159898Y0171164D01*
X0159898Y0170565D02*
X0160498Y0170565D01*
X0160498Y0169967D02*
X0159898Y0169967D01*
X0159898Y0169368D02*
X0160498Y0169368D01*
X0160498Y0168770D02*
X0159898Y0168770D01*
X0159898Y0168171D02*
X0160498Y0168171D01*
X0160498Y0167573D02*
X0159898Y0167573D01*
X0159898Y0166974D02*
X0160498Y0166974D01*
X0160498Y0166376D02*
X0159898Y0166376D01*
X0159898Y0165777D02*
X0160498Y0165777D01*
X0160498Y0165179D02*
X0159898Y0165179D01*
X0159898Y0164580D02*
X0160498Y0164580D01*
X0160498Y0162784D02*
X0159898Y0162784D01*
X0159898Y0162186D02*
X0160498Y0162186D01*
X0160498Y0161587D02*
X0159898Y0161587D01*
X0159898Y0160989D02*
X0160498Y0160989D01*
X0160498Y0160390D02*
X0159898Y0160390D01*
X0159898Y0159792D02*
X0160498Y0159792D01*
X0160498Y0159193D02*
X0159898Y0159193D01*
X0159898Y0158595D02*
X0160498Y0158595D01*
X0160498Y0157996D02*
X0159898Y0157996D01*
X0159898Y0157398D02*
X0160498Y0157398D01*
X0160498Y0156799D02*
X0159898Y0156799D01*
X0158486Y0147223D02*
X0146432Y0147223D01*
X0146530Y0146625D02*
X0157041Y0146625D01*
X0156071Y0146026D02*
X0146778Y0146026D01*
X0146885Y0145428D02*
X0155473Y0145428D01*
X0154874Y0144829D02*
X0146885Y0144829D01*
X0146883Y0144231D02*
X0154387Y0144231D01*
X0154139Y0143632D02*
X0146636Y0143632D01*
X0146388Y0143034D02*
X0153891Y0143034D01*
X0153644Y0142435D02*
X0145915Y0142435D01*
X0145317Y0141837D02*
X0153416Y0141837D01*
X0152084Y0127472D02*
X0168260Y0127472D01*
X0168260Y0126874D02*
X0167216Y0126874D01*
X0167216Y0126275D02*
X0168260Y0126275D01*
X0168260Y0125677D02*
X0167216Y0125677D01*
X0167216Y0125078D02*
X0168260Y0125078D01*
X0168260Y0124480D02*
X0167216Y0124480D01*
X0167216Y0123881D02*
X0168260Y0123881D01*
X0168260Y0123283D02*
X0167216Y0123283D01*
X0167216Y0122684D02*
X0168260Y0122684D01*
X0168260Y0122086D02*
X0167216Y0122086D01*
X0167216Y0121487D02*
X0168260Y0121487D01*
X0168260Y0120889D02*
X0167216Y0120889D01*
X0167216Y0120290D02*
X0168260Y0120290D01*
X0168260Y0119692D02*
X0167216Y0119692D01*
X0167216Y0119093D02*
X0168260Y0119093D01*
X0168260Y0118495D02*
X0167216Y0118495D01*
X0167216Y0117896D02*
X0168260Y0117896D01*
X0168260Y0117298D02*
X0167216Y0117298D01*
X0167216Y0116699D02*
X0168260Y0116699D01*
X0168260Y0116101D02*
X0167216Y0116101D01*
X0167216Y0115502D02*
X0168260Y0115502D01*
X0168260Y0114904D02*
X0167216Y0114904D01*
X0167216Y0114305D02*
X0168260Y0114305D01*
X0168260Y0113707D02*
X0166782Y0113707D01*
M02*
